<svg xmlns="http://www.w3.org/2000/svg" width="219.976" height="560.954" viewBox="0 0 219.976 560.954">
  <g id="Group_29" data-name="Group 29" transform="translate(-16.037)">
    <path id="Path_198" data-name="Path 198" d="M538.316,550.634Q545.62,665.5,563.4,779.29c1.005,6.432,2.106,13.059,5.476,18.554s9.625,9.615,15.768,8.319c8.974-1.893,12.463-13.055,14.249-22.392q20.049-104.8,33.569-210.792c.555-4.354,1.07-8.966-.632-12.985-1.645-3.881-5.088-6.562-8.419-9.009-12.978-9.535-26.836-18.465-42.365-21.971s-33.145-.751-44.619,10.679" transform="translate(-515.355 -263.254)" fill="#191847" fill-rule="evenodd"/>
    <path id="Path_199" data-name="Path 199" d="M672.91,97.225,654.392,161.4a8.3,8.3,0,0,1-2.242,4.3c-1.355,1.117-3.254,1.252-5.009,1.194-12.714-.42-24.425-8.587-30.98-19.49s-8.394-24.164-7.158-36.825" transform="translate(-545.093 -57.511)" fill="none" stroke="#191847" stroke-miterlimit="10" stroke-width="3" fill-rule="evenodd"/>
    <path id="hair" d="M588.612,50.988a11.341,11.341,0,0,1-.986-4.89,44.325,44.325,0,0,1,0-5.212c.259-3.475,1.387-7.218,4.475-9.039a11.408,11.408,0,0,1,8.182-.937,13.877,13.877,0,0,1,4.929,2.206c1.471,1.033,2.553,2.53,3.935,3.674a21.62,21.62,0,0,1,5.526-9.427,10.593,10.593,0,0,1,9.042-2.633,15.646,15.646,0,0,1,8.633,4.642c.6.6,1.183,1.224,1.721,1.888a6.142,6.142,0,0,0,1.519,1.556c.689.4,1.187.083,1.834-.313a12.673,12.673,0,0,1,2.39-1.12,11.56,11.56,0,0,1,10.89,1.362A10.052,10.052,0,0,1,654,37.076c.58,1.555.658,3.767,1.719,5.05.45.544,1,.171,1.623-.039.938-.315,1.858-.7,2.8-1a10.933,10.933,0,0,1,4.042-.528c1.991.134,4.532,1.015,4.324,3.614a10.516,10.516,0,0,1-.873,2.811c-.473,1.24-.95,2.478-1.443,3.709a28.536,28.536,0,0,1-1.229,2.718c-.249.473-.836,1.318-.773,1.887.079.711,1.43.731,1.954.914a8.44,8.44,0,0,1,2.867,1.608,3.454,3.454,0,0,1,1.337,2.284,3.234,3.234,0,0,1-.44,1.633,5.036,5.036,0,0,0-.405,1.689c1.619-.266,6.968-.325,6.817,2.386a4.131,4.131,0,0,1-1.375,2.312,22.673,22.673,0,0,1-3.327,2.773,32.381,32.381,0,0,1-7.844,4.04,4.15,4.15,0,0,1-.983,6.966,5.144,5.144,0,0,1-3.932-.049,8.285,8.285,0,0,0-1.458-.572,3.781,3.781,0,0,1-.746.022,21.054,21.054,0,0,1-5.329-2.386,19.1,19.1,0,0,1-7.112-6.986,2.722,2.722,0,0,0-1.683-1.491c-.729-.213-1.5-.231-2.235-.432-1.937-.534-3.384-2-4.979-3.167a21.441,21.441,0,0,1-3.978,6.694c-1.341,1.525-3.1,1.272-4.8.926-5.428-1.1-10.555-3.266-15.841-4.863,4.764,2.709,9.9,4.789,14.561,7.689,2.105,1.31-.114,2.323-1.418,3.1A19.456,19.456,0,0,0,618.3,85.53c-1.512-4.021-5.283-7.512-9.505-7.7-4.665-.207-9.49,4.722-8,9.771.866,2.931,3.482,4.756,5.578,6.538-2.479,1.387-3.813,4.142-5.686,6.234-.924,1.032-2.121,2.153-3.5,2.192a3.175,3.175,0,0,0-1.536.13c-.594.33-.86.819-1.56,1.045a6.7,6.7,0,0,1-7.761-3.024c-1.273-2.451.115-5.3,2.24-6.747-2.145-1.769-6.219-4.443-4.082-7.973-5.214-1.969-15.514-14.519-6.458-18.658-3.247-3.4-5.2-9.911-1.239-13.919,3.054-3.087,8.061-3.36,11.819-2.433" transform="translate(-529.588 -24.579)" fill="#191847" fill-rule="evenodd"/>
    <path id="Path_200" data-name="Path 200" d="M544.031,232.74c-11.188,12.239-17.6,31.042-23.2,49.384-10.617,34.81-19.7,70.548-27.188,106.94-1.215,5.9-2.254,12.884.459,17.7,2.84,5.04,8.185,4.923,12.74,4.49a225.8,225.8,0,0,1,75.971,5.733c3.855.957,8.511,1.639,11.027-2.59,1.541-2.59,1.721-6.244,1.74-9.625A187.163,187.163,0,0,0,591.136,363" transform="translate(-474.951 -118.942)" fill="#fff" stroke="#191847" stroke-miterlimit="10" stroke-width="3" fill-rule="evenodd"/>
    <path id="Path_201" data-name="Path 201" d="M662.018,242.59A369.525,369.525,0,0,1,729.2,329.705l30.081-41.969c1.961-2.737,5.315-5.806,8.182-4.04,2.479,1.527,1.988,5.213,1.184,8.011q-7.387,25.74-14.775,51.479c-3.114,10.853-7.868,23.389-18.787,26.262-6.934,1.824-14.148-1.017-20.754-3.805L658.39,342.03c-8.045-3.4-16.806-7.471-20.319-15.467" transform="translate(-558.433 -123.408)" fill="none" stroke="#191847" stroke-miterlimit="10" stroke-width="3" fill-rule="evenodd"/>
    <path id="Path_202" data-name="Path 202" d="M658.674,224.765a27.922,27.922,0,0,1,1.314,7.185,1.889,1.889,0,0,1-.293,1.356,1.814,1.814,0,0,1-.966.48c-4.7,1.172-9.611-.323-14.225-1.8a14.376,14.376,0,0,1-5.556-2.723c-1.526-1.413-2.373-3.789-1.4-5.629" transform="translate(-558.007 -114.813)" fill="none" stroke="#191847" stroke-miterlimit="10" stroke-width="3" fill-rule="evenodd"/>
    <path id="Path_203" data-name="Path 203" d="M924.116,142.064" transform="translate(-688.103 -77.837)" fill="none" stroke="#191847" stroke-miterlimit="10" stroke-width="0.906" fill-rule="evenodd"/>
    <path id="Path_205" data-name="Path 205" d="M734.158,269.119c2.678-5.566,4.055-11.607,5.427-17.595.689-3.009,1.384-6.021,2.258-8.983.477-1.617.97-6.089,3.341-5.514,2.743.665,3.258,4.03,3.857,6.3.82,3.1,1.461,6.25,2.093,9.4a168.184,168.184,0,0,1,2.355,19.717,99.584,99.584,0,0,1,.31,10.859c-.107,3.446-.157,7.068-1.668,10.234" transform="translate(-601.991 -120.863)" fill="none" stroke="#191847" stroke-miterlimit="10" stroke-width="3" fill-rule="evenodd"/>
    <path id="Path_206" data-name="Path 206" d="M870.519,296.765c-1.752-2.556-2.575-5.614-3.763-8.476s-2.936-5.726-5.751-7.023a.9.9,0,0,0-.569-.114c-.373.089-.489.554-.535.934-.465,3.867-.917,7.878.273,11.586s4.51,7.037,8.4,6.921" transform="translate(-658.773 -140.882)" fill="none" stroke="#191847" stroke-miterlimit="10" stroke-width="3" fill-rule="evenodd"/>
    <path id="Path_207" data-name="Path 207" d="M859.774,320.006l3.949-5.544" transform="translate(-658.935 -155.989)" fill="none" stroke="#191847" stroke-miterlimit="10" stroke-width="3" fill-rule="evenodd"/>
    <path id="Path_208" data-name="Path 208" d="M846.364,255.488l11.628-39.013-34.04-13.919c-1.216-.5-2.653-.982-3.779-.308a4.281,4.281,0,0,0-1.539,2.361,464.131,464.131,0,0,0-19.164,68.052,5.9,5.9,0,0,0,.036,3.572c.861,1.9,3.327,2.322,5.408,2.486l16.875,1.33" transform="translate(-631.479 -104.97)" fill="none" stroke="#191847" stroke-miterlimit="10" stroke-width="3" fill-rule="evenodd"/>
    <path id="Path_209" data-name="Path 209" d="M843.207,225.463a78.681,78.681,0,0,1,25.275,7.8" transform="translate(-651.425 -115.644)" fill="none" stroke="#191847" stroke-miterlimit="10" stroke-width="3" fill-rule="evenodd"/>
    <path id="Path_210" data-name="Path 210" d="M838.789,239.683a172.558,172.558,0,0,1,25.9,6.936" transform="translate(-649.422 -122.09)" fill="none" stroke="#191847" stroke-miterlimit="10" stroke-width="3" fill-rule="evenodd"/>
    <path id="Path_211" data-name="Path 211" d="M836.392,255.526a79.809,79.809,0,0,1,24.11,7.42" transform="translate(-648.336 -129.272)" fill="none" stroke="#191847" stroke-miterlimit="10" stroke-width="3" fill-rule="evenodd"/>
    <path id="Path_212" data-name="Path 212" d="M836.431,271.759l-8.358,5.03" transform="translate(-644.565 -136.631)" fill="none" stroke="#191847" stroke-miterlimit="10" stroke-width="3" fill-rule="evenodd"/>
    <path id="Path_213" data-name="Path 213" d="M833.3,268.556a36.54,36.54,0,0,0,1.991,10.078" transform="translate(-646.932 -135.178)" fill="none" stroke="#191847" stroke-miterlimit="10" stroke-width="3" fill-rule="evenodd"/>
    <path id="Path_214" data-name="Path 214" d="M821.1,305.978q9.462,1.609,18.8,3.874" transform="translate(-641.403 -152.143)" fill="none" stroke="#191847" stroke-miterlimit="10" stroke-width="3" fill-rule="evenodd"/>
    <path id="Path_215" data-name="Path 215" d="M819.516,321.006a57.733,57.733,0,0,1,14.2,3.242" transform="translate(-640.686 -158.955)" fill="none" stroke="#191847" stroke-miterlimit="10" stroke-width="3" fill-rule="evenodd"/>
    <rect id="Rectangle_31" data-name="Rectangle 31" width="4.952" height="30.204" transform="translate(150.351 98.25) rotate(12.167)" fill="#191847"/>
    <ellipse id="Ellipse_11" data-name="Ellipse 11" cx="19.806" cy="7.922" rx="19.806" ry="7.922" transform="translate(144.106 101.764) rotate(-77.833)" fill="#fff" stroke="#191847" stroke-miterlimit="10" stroke-width="2.717"/>
    <path id="Path_216" data-name="Path 216" d="M753.905,227.747l.9-7.394c.164-1.35.729-3.076,2.089-3.058,1.379.019,1.883,1.8,1.984,3.177" transform="translate(-610.943 -111.941)" fill="none" stroke="#191847" stroke-miterlimit="10" stroke-width="3" fill-rule="evenodd"/>
    <path id="Path_217" data-name="Path 217" d="M611.156,1021.232a41.129,41.129,0,0,1,37.251,11.7c-11.427,2.749-23.243,3.369-34.981,3.978-3.583.186-7.586.231-10.235-2.189s-1.828-8.116,1.759-8.206" transform="translate(-541.915 -476.033)" fill="#191847" fill-rule="evenodd"/>
  </g>
</svg>
