<svg width="30" height="30" viewBox="0 0 30 30" fill="none" xmlns="http://www.w3.org/2000/svg">
<g clip-path="url(#clip0_3823_3168)">
<path d="M14.9498 5.17533e-05C17.6283 -0.0222697 20.1451 0.647373 22.5 2.00898C25.0893 3.50452 27.0536 5.58041 28.3929 8.23666L15.971 7.58376C14.1853 7.48331 12.5446 7.89905 11.0491 8.83097C9.55357 9.76289 8.52121 11.0436 7.95201 12.673L3.33147 5.57483C4.76005 3.80027 6.49554 2.4303 8.53795 1.4649C10.5804 0.499494 12.7176 0.0112125 14.9498 5.17533e-05ZM2.4442 6.78019L8.08594 17.8795C8.88951 19.4755 10.067 20.6864 11.6183 21.5123C13.1696 22.3382 14.8047 22.5893 16.5234 22.2657L12.673 29.8159C10.3069 29.4476 8.15848 28.5687 6.22768 27.1792C4.29688 25.7897 2.77623 24.0263 1.66574 21.889C0.555246 19.7517 0 17.4554 0 15.0001C0 12.0201 0.814732 9.28019 2.4442 6.78019ZM28.9955 9.60943C29.6429 11.2835 29.9749 13.0162 29.9916 14.8075C30.0084 16.5988 29.7377 18.3064 29.1797 19.9303C28.6217 21.5542 27.7679 23.072 26.6183 24.4839C25.4688 25.8957 24.096 27.0648 22.5 27.9911C19.933 29.4755 17.154 30.1396 14.1629 29.9833L20.9431 19.5536C21.9252 18.0916 22.3856 16.4705 22.3242 14.6903C22.2628 12.9102 21.6685 11.3617 20.5413 10.0447L28.9955 9.60943ZM15 9.94425C16.3951 9.94425 17.5865 10.4381 18.5742 11.4258C19.5619 12.4136 20.0558 13.605 20.0558 15.0001C20.0558 16.3951 19.5619 17.5865 18.5742 18.5743C17.5865 19.562 16.3951 20.0559 15 20.0559C13.6049 20.0559 12.4135 19.562 11.4258 18.5743C10.4381 17.5865 9.9442 16.3951 9.9442 15.0001C9.9442 13.605 10.4381 12.4136 11.4258 11.4258C12.4135 10.4381 13.6049 9.94425 15 9.94425Z" fill="#D7D7DB"/>
</g>
<defs>
<clipPath id="clip0_3823_3168">
<rect width="30" height="30" fill="white"/>
</clipPath>
</defs>
</svg>
