<svg width="30" height="30" viewBox="0 0 30 30" fill="none" xmlns="http://www.w3.org/2000/svg">
<path fill-rule="evenodd" clip-rule="evenodd" d="M23.1869 15.9379C23.1506 12.1441 26.2866 10.3157 26.4281 10.2291C24.6671 7.64752 21.9198 7.29412 20.9414 7.25281C18.6058 7.0183 16.3833 8.62972 15.1975 8.62972C14.0149 8.62972 12.1839 7.28854 10.2484 7.32667C7.69984 7.36211 5.35226 8.80617 4.04014 11.0857C1.39592 15.6769 3.36424 22.4766 5.94287 26.2012C7.20142 28.02 8.7057 30.0718 10.6782 29.9977C12.581 29.923 13.2974 28.7706 15.5922 28.7706C17.8889 28.7706 18.5338 29.9977 20.5464 29.9598C22.5882 29.923 23.8865 28.1021 25.1373 26.2759C26.5832 24.1605 27.1786 22.1127 27.2133 22.0064C27.1693 21.9904 23.2282 20.4773 23.1868 15.9379L23.1869 15.9379Z" fill="#D7D7DB"/>
<path fill-rule="evenodd" clip-rule="evenodd" d="M19.4132 4.79162C20.4615 3.52108 21.1648 1.758 20.9721 0C19.4633 0.0599419 17.6339 1.00716 16.5531 2.27374C15.5816 3.39768 14.7314 5.19246 14.962 6.91365C16.6451 7.04452 18.3645 6.05972 19.4132 4.79162V4.79162Z" fill="#D7D7DB"/>
</svg>
