<svg width="30" height="30" viewBox="0 0 30 30" fill="none" xmlns="http://www.w3.org/2000/svg">
<path d="M11.4682 8.08615C11.6468 8.08615 11.8002 8.02197 11.9286 7.89362C12.0569 7.76528 12.1211 7.61182 12.1211 7.43324C12.1211 7.25467 12.0569 7.10121 11.9286 6.97287C11.8002 6.84452 11.6468 6.78034 11.4682 6.78034C11.2896 6.78034 11.139 6.84452 11.0162 6.97287C10.8934 7.10121 10.832 7.25467 10.832 7.43324C10.832 7.61182 10.8934 7.76528 11.0162 7.89362C11.139 8.02197 11.2896 8.08615 11.4682 8.08615ZM18.5329 8.08615C18.7115 8.08615 18.8622 8.02197 18.9849 7.89362C19.1077 7.76528 19.1691 7.61182 19.1691 7.43324C19.1691 7.25467 19.1077 7.10121 18.9849 6.97287C18.8622 6.84452 18.7115 6.78034 18.5329 6.78034C18.3544 6.78034 18.2009 6.84452 18.0725 6.97287C17.9442 7.10121 17.88 7.25467 17.88 7.43324C17.88 7.61182 17.9442 7.76528 18.0725 7.89362C18.2009 8.02197 18.3544 8.08615 18.5329 8.08615ZM4.93917 11.1665C5.40792 11.1665 5.80971 11.3339 6.14453 11.6687C6.47935 12.0036 6.64676 12.4053 6.64676 12.8741V20.0728C6.64676 20.5527 6.48214 20.96 6.1529 21.2949C5.82366 21.6297 5.41908 21.7971 4.93917 21.7971C4.45926 21.7971 4.0519 21.6297 3.71708 21.2949C3.38225 20.96 3.21484 20.5527 3.21484 20.0728V12.8741C3.21484 12.4053 3.38225 12.0036 3.71708 11.6687C4.0519 11.3339 4.45926 11.1665 4.93917 11.1665ZM22.6847 11.4846V22.6341C22.6847 23.1475 22.5061 23.5828 22.149 23.9399C21.7919 24.2971 21.3622 24.4757 20.8599 24.4757H19.6044V28.2759C19.6044 28.7558 19.4369 29.1632 19.1021 29.498C18.7673 29.8328 18.3599 30.0002 17.88 30.0002C17.4001 30.0002 16.9927 29.8328 16.6579 29.498C16.3231 29.1632 16.1557 28.7558 16.1557 28.2759V24.4757H13.8454V28.2759C13.8454 28.7558 13.678 29.1632 13.3432 29.498C13.0084 29.8328 12.601 30.0002 12.1211 30.0002C11.6523 30.0002 11.2506 29.8328 10.9157 29.498C10.5809 29.1632 10.4135 28.7558 10.4135 28.2759L10.3968 24.4757H9.15792C8.64453 24.4757 8.20926 24.2971 7.85212 23.9399C7.49498 23.5828 7.31641 23.1475 7.31641 22.6341V11.4846H22.6847ZM18.8008 4.70445C19.995 5.31829 20.9492 6.17487 21.6635 7.2742C22.3778 8.37353 22.7349 9.5761 22.7349 10.8819H7.24944C7.24944 9.5761 7.60658 8.37353 8.32087 7.2742C9.03516 6.17487 9.99498 5.31829 11.2003 4.70445L10.0117 2.51137C9.93359 2.36628 9.9615 2.25467 10.0954 2.17655C10.2405 2.10958 10.3521 2.14307 10.4302 2.27699L11.6356 4.48682C12.6959 4.01807 13.8175 3.78369 15.0006 3.78369C16.1836 3.78369 17.3052 4.01807 18.3655 4.48682L19.5709 2.27699C19.649 2.14307 19.7606 2.10958 19.9057 2.17655C20.0396 2.25467 20.0675 2.36628 19.9894 2.51137L18.8008 4.70445ZM26.7863 12.8741V20.0728C26.7863 20.5527 26.6189 20.96 26.284 21.2949C25.9492 21.6297 25.5419 21.7971 25.0619 21.7971C24.5932 21.7971 24.1914 21.6297 23.8566 21.2949C23.5218 20.96 23.3544 20.5527 23.3544 20.0728V12.8741C23.3544 12.3942 23.5218 11.9896 23.8566 11.6604C24.1914 11.3311 24.5932 11.1665 25.0619 11.1665C25.5419 11.1665 25.9492 11.3311 26.284 11.6604C26.6189 11.9896 26.7863 12.3942 26.7863 12.8741Z" fill="#D7D7DB"/>
<g clip-path="url(#clip0_3823_3172)">
<path fill-rule="evenodd" clip-rule="evenodd" d="M18.7056 14.7237C18.7053 14.6899 18.7333 14.6736 18.7345 14.6728C18.7188 14.6497 18.6943 14.6466 18.6855 14.6462C18.6647 14.6441 18.6448 14.6585 18.6343 14.6585C18.6237 14.6585 18.6074 14.6465 18.5901 14.6469C18.5673 14.6472 18.5464 14.6601 18.5346 14.6804C18.511 14.7214 18.5286 14.7821 18.5516 14.8154C18.5629 14.8316 18.5763 14.8499 18.5939 14.8493C18.6109 14.8486 18.6173 14.8383 18.6378 14.8383C18.6583 14.8383 18.6641 14.8493 18.682 14.8489C18.7003 14.8486 18.7118 14.8324 18.723 14.8161C18.7359 14.7972 18.7412 14.7789 18.7415 14.7779C18.7412 14.7778 18.706 14.7643 18.7056 14.7237L18.7056 14.7237Z" fill="#D7D7DB"/>
<path fill-rule="evenodd" clip-rule="evenodd" d="M18.6709 14.6243C18.6803 14.613 18.6866 14.5972 18.6849 14.5815C18.6714 14.5821 18.6551 14.5905 18.6454 14.6018C18.6367 14.6119 18.6291 14.6279 18.6312 14.6433C18.6462 14.6444 18.6616 14.6356 18.6709 14.6243V14.6243Z" fill="#D7D7DB"/>
</g>
<defs>
<clipPath id="clip0_3823_3172">
<rect width="0.267857" height="0.267857" fill="white" transform="translate(18.498 14.5815)"/>
</clipPath>
</defs>
</svg>
