<svg width="183" height="37" viewBox="0 0 183 37" fill="none" xmlns="http://www.w3.org/2000/svg">
<path d="M36.5347 11.816H20.1716C20.0495 12.4844 19.9274 13.1528 19.8663 13.8212H24.6287C24.934 13.8212 25.1782 14.0642 25.2393 14.3681C25.3614 15.6441 25.4835 17.0417 25.4835 18.5C25.4835 27.6146 22.3086 33.9948 19.5 33.9948C16.6304 33.9948 13.4554 27.6146 13.4554 18.5C13.4554 9.26389 16.4472 -1.12674 28.0479 5.25347V3.00521C25.4224 1.72917 22.4917 1 19.5 1C9.30363 1 1 8.83854 1 18.5C1 28.1615 9.30363 36 19.5 36C29.6964 36 38 28.1615 38 18.5C37.9389 16.1302 37.4505 13.8819 36.5347 11.816ZM16.0809 3.61285C14.066 5.375 12.7838 8.2309 12.1122 11.5122C12.0512 11.6944 11.929 11.816 11.7459 11.816H5.15181C4.90759 11.816 4.78548 11.5729 4.90759 11.3906C7.10561 7.50174 11.0132 4.40278 15.9587 3.24826C16.1419 3.1875 16.264 3.43056 16.0809 3.61285ZM4.23597 13.8212H11.2574C11.5016 13.8212 11.6848 14.0035 11.6238 14.2465C11.4406 15.6441 11.3795 17.0417 11.3795 18.5C11.3795 19.8368 11.4406 21.1736 11.5627 22.4497C11.5627 22.6927 11.3795 22.875 11.1353 22.875H4.11386C3.86964 22.875 3.62541 22.6927 3.5033 22.4497C3.13696 21.1736 2.9538 19.8368 2.9538 18.5C2.9538 17.0417 3.19802 15.6441 3.62541 14.2465C3.74752 14.0035 3.93069 13.8212 4.23597 13.8212ZM5.09076 24.8802H11.6238C11.8069 24.8802 11.9901 25.0017 11.9901 25.184C12.6007 28.3438 13.5776 31.0781 14.8597 32.9618C14.9818 33.0833 14.7987 33.3264 14.6155 33.2656C10.2805 32.0503 6.67822 29.1944 4.66337 25.4879C4.60231 25.2448 4.78548 24.8802 5.09076 24.8802ZM23.9571 33.0226C25.2393 31.1389 26.2772 28.4045 26.8878 25.2448C26.9488 25.0625 27.071 24.941 27.2541 24.941H33.7871C34.0924 24.941 34.2756 25.2448 34.1535 25.5486C32.1386 29.1944 28.5363 32.1111 24.2013 33.3264C24.0182 33.3872 23.896 33.1441 23.9571 33.0226ZM34.8251 22.875H27.6815C27.4373 22.875 27.2541 22.6927 27.2541 22.4497C27.3762 21.1736 27.4373 19.8368 27.4373 18.5C27.4373 17.0417 27.3762 15.6441 27.1931 14.3073C27.1931 14.0642 27.3762 13.8819 27.6205 13.8819H34.703C34.9472 13.8819 35.1914 14.0642 35.2525 14.3073C35.6799 15.6441 35.863 17.1024 35.863 18.5608C35.863 19.9583 35.6799 21.2344 35.3135 22.5104C35.3135 22.6927 35.0693 22.875 34.8251 22.875Z" fill="black" stroke="black" stroke-width="0.5"/>
<path d="M51.496 9.544C51.496 13.464 54.232 15.192 58.088 15.192C60.776 15.192 62.152 14.344 62.776 13.976V8.648H57.976V10.744H60.264V12.504C59.736 12.648 59.08 12.744 58.296 12.744C55.848 12.744 54.344 11.608 54.344 9.416C54.344 7.256 56.088 6.168 58.376 6.168C60.232 6.168 61.16 6.728 61.8 7.176L62.824 5.064C62.072 4.552 60.872 3.768 58.264 3.768C54.584 3.768 51.496 5.688 51.496 9.544ZM78.745 15L75.929 11.128C77.513 10.536 78.329 9.384 78.329 7.768C78.329 5.288 76.665 3.96 73.033 3.96H67.961V15H70.745V11.544H73.049L75.321 15H78.745ZM75.449 7.832C75.449 8.792 74.649 9.336 72.841 9.336H70.745V6.328H72.937C74.761 6.328 75.449 6.824 75.449 7.832ZM90.2494 3.96H87.1934L82.3294 15H85.3054L86.3774 12.328H90.9854L92.0734 15H95.1134L90.2494 3.96ZM90.2494 10.424H87.1134L88.6654 6.584H88.6974L90.2494 10.424ZM110.711 3.96H107.911V10.744H107.879L102.247 3.96H99.4466V15H102.231V8.216H102.263L107.911 15H110.711V3.96ZM126.78 3.96H115.068V6.328H119.532V15H122.332V6.328H126.78V3.96ZM147.734 3.96H138.902V15H141.686V11.528H147.19V9.144H141.686V6.328H147.734V3.96ZM164.537 9.48C164.537 6.024 162.169 3.768 158.089 3.768C154.025 3.768 151.641 6.024 151.641 9.48C151.641 12.936 154.009 15.192 158.089 15.192C162.153 15.192 164.537 12.936 164.537 9.48ZM161.673 9.448C161.673 11.448 160.313 12.728 158.105 12.728C155.865 12.728 154.505 11.448 154.505 9.448C154.505 7.464 155.865 6.184 158.089 6.184C160.313 6.184 161.673 7.464 161.673 9.448ZM180.156 15L177.34 11.128C178.924 10.536 179.74 9.384 179.74 7.768C179.74 5.288 178.076 3.96 174.444 3.96H169.372V15H172.156V11.544H174.46L176.732 15H180.156ZM176.86 7.832C176.86 8.792 176.06 9.336 174.252 9.336H172.156V6.328H174.348C176.172 6.328 176.86 6.824 176.86 7.832ZM62.84 22.96H51.128V25.328H55.592V34H58.392V25.328H62.84V22.96ZM78.507 22.96H75.707V27.2H69.995V22.96H67.211V34H69.995V29.568H75.707V34H78.507V22.96ZM92.637 22.96H83.821V34H92.781V31.616H86.621V29.456H92.045V27.28H86.621V25.296H92.637V22.96ZM122.518 22.96H119.574L117.782 30.272H117.75L114.998 22.96H112.15L109.398 30.272H109.366L107.574 22.96H104.63L107.718 34H110.582L113.558 26.368H113.59L116.55 34H119.43L122.518 22.96ZM135.717 22.96H126.901V34H135.861V31.616H129.701V29.456H135.125V27.28H129.701V25.296H135.717V22.96ZM151.32 30.896C151.32 29.488 150.296 28.56 148.92 28.304V28.272C150.024 27.968 150.824 27.12 150.824 25.792C150.824 24.064 149.544 22.96 146.312 22.96H140.808V34H146.36C149.912 34 151.32 32.72 151.32 30.896ZM148.072 26.208C148.072 26.928 147.496 27.376 145.992 27.376H143.592V25.136H145.992C147.544 25.136 148.072 25.52 148.072 26.208ZM148.52 30.544C148.52 31.28 147.944 31.696 146.184 31.696H143.592V29.328H146.136C147.928 29.328 148.52 29.776 148.52 30.544Z" fill="black"/>
</svg>
