<svg width="54" height="54" viewBox="0 0 54 54" fill="none" xmlns="http://www.w3.org/2000/svg">
<path d="M49.0978 18.1315L47.4595 13.7031L48.587 11.1625C48.7279 10.8272 48.6574 10.4567 48.4108 10.1921L45.3279 7.06924C43.9715 5.71072 41.9632 5.23435 40.1487 5.86951L39.2855 6.16944L34.5644 1.05293L26.5841 1H26.5313L18.4982 1.07057L13.7947 6.22237L12.9491 5.92244C11.117 5.26964 9.09112 5.74601 7.73466 7.13981L4.59896 10.3156C4.38756 10.5273 4.33471 10.8272 4.44041 11.0919L5.6207 13.7383L4 18.1668L5.05698 22.1718L9.84863 40.3971C10.3947 42.4967 11.6631 44.3316 13.4424 45.6019C13.4424 45.6019 19.2558 49.7127 24.9811 53.4354C25.4919 53.7706 26.0204 54 26.5841 54C27.1479 54 27.6764 53.7706 28.1872 53.4354C34.6348 49.2011 39.7259 45.5842 39.7259 45.5842C41.4876 44.3139 42.756 42.479 43.3021 40.3795L48.0585 22.1541L49.0978 18.1315Z" fill="#F15A22"/>
<path style="mix-blend-mode:lighten" opacity="0.15" d="M10.0776 41.1736L4 18.5551L5.77925 14.1267L4.54611 10.845L7.48804 7.8457C8.45693 6.98118 10.3595 6.68125 11.2403 7.1929L15.8382 9.83937L21.8277 11.2332L26.4961 9.29244L26.8836 49.4659C26.8132 55.2528 27.1831 54.6353 22.9376 51.9006L12.4558 44.861C11.3284 43.7848 10.4652 42.5674 10.0776 41.1736Z" fill="url(#paint0_linear)"/>
<path style="mix-blend-mode:darken" opacity="0.4" d="M39.6202 45.504L30.7063 51.6085C28.2224 52.9671 27.0245 54.3079 26.8307 53.6551C26.6722 53.1435 26.7955 51.6438 26.7427 49.3149L26.637 10.0236C26.6546 9.6355 26.9188 8.9827 27.3768 9.05328L31.9219 10.4294L38.4751 9.40614L42.8088 6.21273C43.2668 5.85987 43.9362 5.89515 44.359 6.30095L48.2346 10.006C48.5869 10.3765 48.6045 11.0999 48.3931 11.5586L47.3185 13.5523L49.0978 18.1571L42.9673 40.9874C42.016 43.8279 40.6772 44.5689 39.6202 45.504Z" fill="url(#paint1_linear)"/>
<path d="M27.6059 33.6048C27.3945 33.5166 27.1655 33.446 27.095 33.446H26.8131H26.5313C26.4608 33.446 26.2318 33.5166 26.0204 33.6048L23.7303 34.5576C23.5189 34.6458 23.1666 34.8046 22.9552 34.9104L19.5024 36.71C19.291 36.8159 19.2733 37.01 19.4671 37.1511L22.5147 39.3036C22.7085 39.4447 23.008 39.6741 23.1842 39.8329L24.5406 40.9973C24.7168 41.1561 24.9987 41.4031 25.1748 41.5619L26.4784 42.7263C26.6546 42.8851 26.9365 42.8851 27.1126 42.7263L28.4515 41.5619C28.6276 41.4031 28.9095 41.1561 29.0856 40.9973L30.4421 39.8152C30.6183 39.6564 30.9177 39.4271 31.1115 39.2859L34.1592 37.1158C34.3529 36.9747 34.3353 36.7806 34.1239 36.6747L30.6711 34.9104C30.4597 34.8046 30.1074 34.6458 29.896 34.5576L27.6059 33.6048Z" fill="white"/>
<path d="M44.1323 18.9178C44.2028 18.6885 44.2028 18.6002 44.2028 18.6002C44.2028 18.3709 44.1852 17.9827 44.15 17.7534L43.9738 17.2417C43.8681 17.03 43.6919 16.6948 43.551 16.5007L41.5604 13.5543C41.4371 13.3602 41.208 13.0603 41.0495 12.8662L38.4775 9.63753C38.3366 9.4611 38.1956 9.30231 38.178 9.31995H38.1428C38.1428 9.31995 37.949 9.35524 37.72 9.39053L33.7916 10.1668C33.5625 10.2198 33.1926 10.2903 32.9636 10.3256L32.8931 10.3433C32.6641 10.3785 32.2942 10.3609 32.0652 10.2903L28.7709 9.23174C28.5419 9.16116 28.1719 9.05531 27.9606 9.00238C27.9606 9.00238 27.2911 8.84359 26.745 8.86123C26.1989 8.86123 25.5295 9.00238 25.5295 9.00238C25.3005 9.05531 24.9305 9.16116 24.7191 9.23174L21.4249 10.2903C21.1959 10.3609 20.8259 10.3785 20.5969 10.3433L20.5265 10.3256C20.2974 10.2903 19.9275 10.2021 19.6985 10.1668L15.7348 9.42581C15.5058 9.37288 15.312 9.35524 15.312 9.35524H15.2768C15.2592 9.35524 15.1182 9.49638 14.9773 9.67282L12.4053 12.9015C12.2644 13.0779 12.0354 13.3955 11.8945 13.5896L9.9038 16.536C9.78049 16.7301 9.58671 17.0653 9.48101 17.277L9.30485 17.7887C9.26962 18.018 9.23438 18.4062 9.252 18.6355C9.252 18.6355 9.252 18.7061 9.32247 18.9531C9.44578 19.3765 9.74526 19.7647 9.74526 19.7647C9.88619 19.9411 10.1504 20.2411 10.309 20.3998L16.14 26.6102C16.2985 26.7867 16.3514 27.1042 16.2633 27.316L15.0478 30.1918C14.9597 30.4035 14.9421 30.7564 15.0302 30.9857L15.3649 31.8855C15.6467 32.6442 16.1224 33.3146 16.7566 33.8263L17.9369 34.779C18.113 34.9202 18.4301 34.9731 18.6415 34.8672L22.3762 33.0853C22.5876 32.9794 22.9047 32.7677 23.0808 32.6089L25.7585 30.1918C26.1461 29.8389 26.1637 29.2391 25.8114 28.8509L20.1917 25.0576C19.998 24.9341 19.9275 24.6518 20.0332 24.4401L22.4995 19.7823C22.6052 19.5706 22.6228 19.2354 22.5347 19.0237L22.2352 18.3356C22.1472 18.1239 21.8829 17.8769 21.6715 17.7887L14.4312 15.0716C14.2198 14.9834 14.2198 14.8952 14.4488 14.8775L19.1171 14.4365C19.3462 14.4188 19.7161 14.4541 19.9451 14.507L24.1026 15.6715C24.3316 15.7421 24.4725 15.9714 24.4373 16.2008L22.9927 24.1225C22.9575 24.3519 22.9575 24.6695 23.0104 24.8459C23.0632 25.0224 23.2922 25.1811 23.5212 25.2341L26.4103 25.8516C26.6393 25.9045 27.0093 25.9045 27.2383 25.8516L29.9336 25.2341C30.1626 25.1811 30.3916 25.0047 30.4445 24.8459C30.4973 24.6871 30.5149 24.3519 30.4621 24.1225L29.0351 16.2008C28.9999 15.9714 29.1408 15.7244 29.3699 15.6715L33.5273 14.507C33.7563 14.4365 34.1263 14.4188 34.3553 14.4365L39.0236 14.8775C39.2526 14.8952 39.2702 14.9834 39.0412 15.0716L31.8009 17.8239C31.5895 17.9122 31.3253 18.1415 31.2372 18.3709L30.9377 19.059C30.8496 19.2707 30.8496 19.6235 30.9729 19.8176L33.4568 24.4754C33.5625 24.6871 33.4921 24.9518 33.2983 25.0929L27.6787 28.9038C27.3087 29.2743 27.344 29.8919 27.7315 30.2447L30.4092 32.6618C30.5854 32.8206 30.9025 33.0323 31.1139 33.1206L34.8662 34.9025C35.0776 35.0084 35.3946 34.9554 35.5708 34.8143L36.7511 33.8439C37.3853 33.3323 37.8609 32.6618 38.1252 31.9032L38.4599 31.0034C38.548 30.7917 38.5304 30.4212 38.4423 30.2094L37.2267 27.3336C37.1387 27.1219 37.1915 26.8043 37.3501 26.6279L43.1811 20.4175C43.3396 20.2411 43.5862 19.9588 43.7448 19.7823C43.7096 19.7294 44.0267 19.3413 44.1323 18.9178Z" fill="white"/>
<defs>
<linearGradient id="paint0_linear" x1="4" y1="30.4377" x2="26.9058" y2="30.4377" gradientUnits="userSpaceOnUse">
<stop stop-color="white"/>
<stop offset="0.1413" stop-color="white" stop-opacity="0.9576"/>
<stop offset="1" stop-color="white" stop-opacity="0.7"/>
</linearGradient>
<linearGradient id="paint1_linear" x1="26.6282" y1="29.8895" x2="49.0978" y2="29.8895" gradientUnits="userSpaceOnUse">
<stop stop-color="#F1F1F2"/>
<stop offset="0.0919144" stop-color="#E4E5E6"/>
<stop offset="0.2357" stop-color="#D9DADB"/>
<stop offset="0.438" stop-color="#D2D4D5"/>
<stop offset="1" stop-color="#D0D2D3"/>
</linearGradient>
</defs>
</svg>
