<svg width="30" height="30" viewBox="0 0 30 30" fill="none" xmlns="http://www.w3.org/2000/svg">
<path d="M28.7992 5.88L26.8541 3.2928C26.0524 2.49573 24.8301 2.29973 23.8181 2.8028L22.8849 3.26667L19.5992 0H10.3992L7.1135 3.26667L6.18036 2.8028C5.16836 2.29973 3.94608 2.49573 3.14436 3.2928L1.19922 5.88L2.5135 7.84L1.19922 10.4533L4.99093 21.8671C5.51008 23.3567 6.55493 24.6045 7.92836 25.382L14.9992 29.4L22.0701 25.382C23.4435 24.6045 24.4884 23.3567 25.0075 21.8671L28.7992 10.4533L27.4849 7.84L28.7992 5.88ZM14.9992 24.8267L11.0564 20.9067C11.0564 20.9067 14.3421 18.9467 14.9992 18.9467C15.6564 18.9467 18.9421 20.9067 18.9421 20.9067L14.9992 24.8267ZM23.9889 10.9499L20.9135 15.0267L21.2881 15.582C21.5575 15.9805 21.6889 16.4444 21.6889 16.9017C21.6889 17.4113 21.5312 17.9144 21.2092 18.3325C20.8675 18.7899 20.3615 19.1557 19.8686 19.3713C19.5335 19.5216 19.2049 19.6 18.9421 19.6C18.3506 19.6 17.2223 18.5409 15.6564 17.4237V16.7038L18.6234 14.9339C18.8658 14.7895 18.9881 14.5066 18.927 14.2322L17.9682 9.94243C18.0825 9.67717 18.26 9.45635 18.5235 9.31261L22.2278 7.84L20.2564 7.18667H18.9421L18.9329 7.19581C18.8672 7.19712 18.8001 7.19843 18.7338 7.22064L16.7623 7.87397C16.443 7.97981 16.2557 8.30909 16.3286 8.63576L17.5404 14.0558L14.9992 15.5715L12.4574 14.0552L13.6692 8.63511C13.7421 8.30844 13.5548 7.97981 13.2354 7.87332L11.264 7.21999C11.1976 7.19777 11.1313 7.19647 11.0649 7.19516L11.0564 7.18667H9.74208L7.77065 7.84L11.4756 9.31196C11.7391 9.45569 11.9166 9.67652 12.0309 9.94177L11.0721 14.2316C11.011 14.506 11.1326 14.7889 11.3751 14.9332L14.3421 16.7031V17.4388C12.734 18.5782 11.6373 19.6 11.0564 19.6C10.7935 19.6 10.4649 19.5216 10.1298 19.3713C9.63693 19.1557 9.13093 18.7899 8.78922 18.3325C8.17808 17.5289 8.14522 16.4248 8.71036 15.582L9.08493 15.0267L6.0095 10.9499C5.49036 10.2639 5.48379 9.3296 5.98322 8.63053L8.42779 4.57333L10.2218 4.93267C10.4715 4.98493 10.7278 5.00453 10.9841 5.00453C11.6938 5.00453 12.4035 4.81507 13.0212 4.4492C13.6324 4.08333 14.3158 3.9004 14.9992 3.9004C15.6826 3.9004 16.3661 4.08333 16.9772 4.4492C17.8184 4.94573 18.8172 5.12213 19.7766 4.93267L21.5706 4.57333L24.0152 8.63053C24.5146 9.3296 24.5081 10.2639 23.9889 10.9499Z" fill="#D7D7DB"/>
</svg>
