<svg width="30" height="30" viewBox="0 0 30 30" fill="none" xmlns="http://www.w3.org/2000/svg">
<path d="M29.3985 13.7018C29.3573 13.4309 29.316 13.2715 29.316 13.2715C29.316 13.2715 29.2101 13.3943 29.0348 13.6259C28.9803 12.9806 28.8638 12.342 28.687 11.719C28.4653 10.9398 28.1712 10.183 27.8085 9.45867C27.5804 8.97808 27.3119 8.51769 27.006 8.08242C26.896 7.91805 26.7838 7.75867 26.6695 7.6043C26.1351 6.73148 25.522 6.19805 24.8123 5.1893C24.3501 4.41466 24.0351 3.56126 23.8832 2.67211C23.6886 3.20769 23.5393 3.7587 23.437 4.3193C22.7085 3.5843 22.0748 3.06211 21.6923 2.70586C19.8051 0.943359 20.0245 0.0292969 20.0245 0.0292969C20.0245 0.0292969 16.4995 3.96398 18.0266 8.06273C18.5536 9.4538 19.4637 10.6672 20.6516 11.5624C22.1291 12.7812 23.7201 13.7402 24.5591 16.1909C23.8839 14.9011 22.8634 13.8245 21.6116 13.0812C21.9885 13.9706 22.1799 14.9277 22.1741 15.8937C22.1734 16.8968 21.9468 17.8868 21.511 18.7903C21.0753 19.6938 20.4416 20.4876 19.657 21.1126C18.8725 21.7377 17.9572 22.178 16.9792 22.4008C16.0011 22.6237 14.9855 22.6234 14.0076 22.3999C13.4321 22.2921 12.8749 22.1027 12.3529 21.8374C11.575 21.3666 10.9005 20.7431 10.3701 20.0046L10.3607 19.9887L10.4788 20.0318C10.7543 20.1272 11.0363 20.2027 11.3226 20.2577C12.4554 20.4977 13.6358 20.3584 14.6816 19.8612C15.7373 19.2752 16.3766 18.8412 16.8951 19.0127H16.9045C17.4107 19.174 17.8101 18.6827 17.4482 18.169C17.1416 17.7671 16.7303 17.4572 16.2594 17.2734C15.7885 17.0895 15.2761 17.0387 14.7782 17.1265C13.7216 17.2802 12.7532 18.0312 11.3685 17.3037C11.2794 17.2572 11.1927 17.2062 11.1088 17.1509C11.0151 17.0974 11.406 17.2324 11.3151 17.1715C11.0127 17.02 10.7219 16.8464 10.4451 16.6521C10.4245 16.6352 10.6541 16.7177 10.6326 16.7009C10.2736 16.4565 9.96537 16.1448 9.72508 15.783C9.60253 15.5616 9.53314 15.3147 9.5224 15.0619C9.51166 14.8091 9.55987 14.5572 9.6632 14.3262C9.79209 14.0964 9.98845 13.9119 10.2257 13.7974C10.4048 13.8855 10.5154 13.9521 10.5154 13.9521C10.5154 13.9521 10.4338 13.8021 10.3898 13.7234C10.4057 13.7177 10.4198 13.7234 10.4357 13.713C10.5923 13.7805 10.9391 13.9568 11.122 14.0646C11.2463 14.1337 11.3537 14.2298 11.436 14.3459C11.436 14.3459 11.4988 14.3149 11.452 14.1837C11.3877 14.0207 11.2743 13.8818 11.1276 13.7862H11.1426C11.2825 13.8575 11.4162 13.9406 11.542 14.0346C11.6571 13.7687 11.7116 13.4805 11.7013 13.1909C11.7139 13.0318 11.6918 12.8719 11.6366 12.7221C11.587 12.6284 11.6648 12.5909 11.752 12.6893C11.737 12.612 11.7121 12.5371 11.6779 12.4662V12.4587C11.6779 12.4587 11.7276 12.394 11.7501 12.3705C11.812 12.3091 11.8799 12.2538 11.9526 12.2055C12.3903 11.9347 12.8497 11.7005 13.326 11.5052C13.7141 11.3355 14.0357 11.2062 14.1013 11.1687C14.1984 11.1058 14.2903 11.0353 14.376 10.9577C14.6989 10.6831 14.9174 10.3057 14.9948 9.88898C15.0032 9.8337 15.0085 9.77799 15.0107 9.72211V9.67523V9.64711V9.63586V9.62367C14.9545 9.41273 14.5907 9.2543 12.6895 9.07617C12.3614 9.02382 12.0566 8.87438 11.8143 8.64712C11.572 8.41985 11.4033 8.1252 11.3301 7.80117V7.80961C11.3029 7.87898 11.2785 7.9493 11.2541 8.02055C11.2785 7.95023 11.3029 7.87992 11.3301 7.80961V7.79461C11.6919 6.8472 12.3434 6.03815 13.192 5.48273C13.2407 5.44336 12.997 5.49305 13.0457 5.45273C13.2073 5.37354 13.3732 5.30343 13.5426 5.24273C13.6279 5.20711 13.177 5.03461 12.7785 5.0768C12.5342 5.08995 12.2942 5.14645 12.0698 5.24367C12.1635 5.16305 12.4448 5.05617 12.3782 5.05617C11.8687 5.1548 11.3799 5.33964 10.9326 5.60273C10.9317 5.5574 10.9413 5.51248 10.9607 5.47148C10.6045 5.62242 10.2932 5.86266 10.057 6.16898C10.0638 6.11489 10.0669 6.06038 10.0663 6.00586C9.90329 6.12744 9.75453 6.26708 9.62289 6.42211L9.61445 6.42867C8.56482 6.02188 7.42063 5.92428 6.31727 6.14742L6.30789 6.13898H6.31914C6.08999 5.95298 5.89216 5.73142 5.7332 5.48273L5.7182 5.48648L5.70039 5.46586C5.6282 5.35898 5.55414 5.23805 5.4782 5.10305C5.42383 5.0093 5.36852 4.89961 5.3132 4.78617C5.3132 4.77867 5.30477 4.77586 5.30102 4.77492C5.27852 4.77492 5.26258 4.87898 5.24383 4.8518V4.84617C5.05056 4.34202 4.96035 3.80423 4.97852 3.26461L4.96352 3.27211C4.6527 3.48511 4.41815 3.79193 4.29414 4.14773C4.23695 4.27617 4.20039 4.34648 4.16289 4.4168C4.16289 4.42242 4.16289 4.40742 4.16289 4.38398C4.17133 4.3193 4.19945 4.18617 4.19289 4.19648C4.18633 4.2068 4.18164 4.2143 4.17508 4.22367C4.08186 4.32923 4.00276 4.44646 3.93977 4.57242C3.88256 4.68748 3.8355 4.80731 3.79914 4.93055C3.79352 4.95023 3.79914 4.91367 3.79914 4.87055C3.79914 4.82742 3.80758 4.75055 3.79914 4.76648L3.77852 4.8068C3.37249 5.70709 3.11903 6.66865 3.02852 7.65211C3.00383 7.81903 2.9941 7.98783 2.99945 8.15648V8.17148C2.7092 8.48785 2.45252 8.83345 2.23352 9.20273C1.5022 10.438 0.956668 11.7742 0.614453 13.1684C0.857164 12.6367 1.14741 12.1281 1.48164 11.6487C0.834388 13.2907 0.502038 15.0399 0.501953 16.8049C0.612205 16.288 0.753078 15.778 0.923828 15.2777C0.819496 17.3625 1.22091 19.4416 2.09383 21.3377C3.26427 23.9665 5.21113 26.1741 7.67289 27.664V27.664C8.67351 28.3415 9.76922 28.8666 10.9241 29.2221C11.076 29.2774 11.2298 29.3318 11.3873 29.3843C11.3376 29.3646 11.2935 29.343 11.2438 29.3215C12.6125 29.732 14.0337 29.9411 15.4626 29.9421C20.5195 29.9421 22.1891 28.0165 22.3429 27.8243C22.5928 27.5987 22.7957 27.326 22.9401 27.0218V27.0218C23.0376 26.9818 23.136 26.939 23.2354 26.8934L23.2982 26.8652L23.4116 26.8118C24.1738 26.4526 24.8904 26.0038 25.5463 25.4749C26.5304 24.7698 27.2349 23.741 27.5366 22.5687C27.7158 22.1422 27.7255 21.6634 27.5638 21.2299C27.6157 21.148 27.6691 21.0605 27.7241 20.9674C28.81 19.2224 29.4259 17.2262 29.512 15.1727V15.1671C29.512 15.1118 29.512 15.0565 29.512 15.0012C29.5133 14.5655 29.4753 14.1306 29.3985 13.7018V13.7018Z" fill="#D7D7DB"/>
</svg>
