<svg width="35" height="35" viewBox="0 0 35 35" fill="none" xmlns="http://www.w3.org/2000/svg">
<g clip-path="url(#clip0_3805_1925)">
<path d="M33.0732 4.31329C31.6961 5.28461 30.1715 6.02752 28.5579 6.5134C27.6918 5.51762 26.5409 4.81183 25.2606 4.49149C23.9804 4.17116 22.6327 4.25174 21.3997 4.72233C20.1668 5.19292 19.1081 6.03082 18.3669 7.1227C17.6256 8.21459 17.2376 9.50777 17.2553 10.8274V12.2653C14.7283 12.3309 12.2242 11.7704 9.9662 10.6339C7.70818 9.49734 5.76629 7.82001 4.31347 5.75127C4.31347 5.75127 -1.43847 18.6931 11.5034 24.4451C8.5419 26.4553 5.01399 27.4633 1.4375 27.321C14.3794 34.511 30.1972 27.321 30.1972 10.7842C30.1959 10.3837 30.1574 9.98412 30.0822 9.59069C31.5498 8.14335 32.5854 6.31599 33.0732 4.31329V4.31329Z" stroke="#F7F9F9" stroke-width="2.87597" stroke-linecap="round" stroke-linejoin="round"/>
</g>
<defs>
<clipPath id="clip0_3805_1925">
<rect width="34.5116" height="34.5116" fill="white"/>
</clipPath>
</defs>
</svg>
