<svg width="423" height="358" fill="none" xmlns="http://www.w3.org/2000/svg"><path d="M147 0h-9v9.087h9V0zm69 0h-9v9.087h9V0zm69 0h-9v9.087h9V0zm69 0h-9v9.087h9V0zm69 0h-9v9.087h9V0zM147 69.67h-9v9.088h9v-9.087zm69 0h-9v9.088h9v-9.087zm69 0h-9v9.088h9v-9.087zm69 0h-9v9.088h9v-9.087zm69 0h-9v9.088h9v-9.087zm-276 69.671h-9v9.088h9v-9.088zm69 0h-9v9.088h9v-9.088zm69 0h-9v9.088h9v-9.088zm69 0h-9v9.088h9v-9.088zm69 0h-9v9.088h9v-9.088zm-276 69.671h-9v9.087h9v-9.087zm69 0h-9v9.087h9v-9.087zm69 0h-9v9.087h9v-9.087zm69 0h-9v9.087h9v-9.087zm69 0h-9v9.087h9v-9.087zM78 0h-9v9.087h9V0zm0 69.67h-9v9.088h9v-9.087zm0 69.671h-9v9.088h9v-9.088zm0 69.671h-9v9.087h9v-9.087zm69 69.67h-9v9.088h9v-9.088zm69 0h-9v9.088h9v-9.088zm69 0h-9v9.088h9v-9.088zm69 0h-9v9.088h9v-9.088zm69 0h-9v9.088h9v-9.088zm-345 0h-9v9.088h9v-9.088zM9 69.67H0v9.088h9v-9.087zm0 69.671H0v9.088h9v-9.088zm0 69.671H0v9.087h9v-9.087zm276 139.341h-9v9.087h9v-9.087zm69 0h-9v9.087h9v-9.087zm-138 0h-9v9.087h9v-9.087z" fill="#ECECED"/></svg>