<svg xmlns="http://www.w3.org/2000/svg" width="386.709" height="560.378" viewBox="0 0 386.709 560.378">
  <g id="Group_178" data-name="Group 178" transform="translate(-1484.46 -5156.155)">
    <path id="Path_354" data-name="Path 354" d="M946.209,423.577c14.437,44.236,11.139,96.066,7.52,144.89l-7.5,101.193a21.245,21.245,0,0,1-1.266,6.86c-1.978,4.456-6.661,4.53-9.662,1.576s-4.719-7.962-6.3-12.751C907.978,601.73,887.826,534,890.189,463.288c.544-16.294,2.574-33.433,9.76-45.812C910.6,399.126,931.97,397.7,943.7,414.559" transform="translate(659.702 4974.597) rotate(3)" fill="#1a2f58" fill-rule="evenodd"/>
    <path id="Path_355" data-name="Path 355" d="M920.209,421.43c14.437,44.236,11.139,96.065,7.52,144.889l-7.5,101.194a21.235,21.235,0,0,1-1.266,6.859c-1.978,4.456-6.661,4.531-9.662,1.576s-4.719-7.961-6.3-12.751c-21.02-63.614-41.172-131.344-38.809-202.056.544-16.294,2.574-33.433,9.76-45.812,10.652-18.35,32.021-19.774,43.746-2.916" transform="translate(657.127 4974.248) rotate(3)" fill="#1a2f58" fill-rule="evenodd"/>
    <path id="Hair" d="M874.692,241.916c-5.517-24.546-21.235-41.279-18.835-52.25q2.4-10.972,12.8-13.645,5.375-21.751,34.681-18.5c29.3,3.247,47.19,15.417,39.466,42.2-7.1,0-15.672-2.569-27.524,1.831q-5.641,2.095-8.069,12.987h-5.356q-7.8-12.928-15.377-9.5t-3.446,16.645l-2.639,20.238Z" transform="translate(635.39 4999.059)" fill="#1a2f58" fill-rule="evenodd"/>
    <g id="Group_72" data-name="Group 72" transform="translate(1628.301 5348.479)">
      <g id="Group_68" data-name="Group 68">
        <rect id="Rectangle_71" data-name="Rectangle 71" width="242.868" height="12.288" fill="#d7e1f2"/>
        <rect id="Rectangle_72" data-name="Rectangle 72" width="242.868" height="6.144" fill="#a5b3c6"/>
      </g>
      <g id="Group_71" data-name="Group 71" transform="translate(13.199 12.288)">
        <g id="Group_69" data-name="Group 69">
          <path id="Path_356" data-name="Path 356" d="M1014.828,371.572h-8.968l-13.382-16.109V343.175h22.349Z" transform="translate(-992.478 -343.175)" fill="#d7e1f2"/>
          <path id="Path_357" data-name="Path 357" d="M1022.3,371.572h-8.968l-13.382-16.109V343.175H1022.3Z" transform="translate(-991.734 -343.175)" fill="#a5b3c6"/>
        </g>
        <g id="Group_70" data-name="Group 70" transform="translate(185.9)">
          <path id="Path_358" data-name="Path 358" d="M1169.017,371.572h8.968l13.382-16.109V343.175h-22.349Z" transform="translate(-1160.795 -343.175)" fill="#d7e1f2"/>
          <path id="Path_359" data-name="Path 359" d="M1161.54,371.572h8.968l13.382-16.109V343.175H1161.54Z" transform="translate(-1161.54 -343.175)" fill="#a5b3c6"/>
        </g>
      </g>
    </g>
    <g id="Group_81" data-name="Group 81" transform="translate(1709.168 5224.119)">
      <g id="Group_79" data-name="Group 79">
        <g id="Group_74" data-name="Group 74">
          <g id="Group_73" data-name="Group 73">
            <rect id="Rectangle_73" data-name="Rectangle 73" width="18.457" height="121.227" fill="#5cd9a6"/>
          </g>
        </g>
        <g id="Group_76" data-name="Group 76" transform="translate(25.127 0.143)">
          <g id="Group_75" data-name="Group 75">
            <rect id="Rectangle_74" data-name="Rectangle 74" width="18.464" height="121.232" fill="#89dfbc"/>
          </g>
        </g>
        <g id="Group_78" data-name="Group 78" transform="translate(51.116)">
          <g id="Group_77" data-name="Group 77">
            <rect id="Rectangle_75" data-name="Rectangle 75" width="18.464" height="121.227" fill="#5cd9a6"/>
          </g>
        </g>
      </g>
      <g id="Group_80" data-name="Group 80" transform="translate(71.535 16.315)">
        <path id="Path_360" data-name="Path 360" d="M1125.385,338.293l-6.312-102.486,36.852-2.066,6.316,102.478Z" transform="translate(-1119.073 -233.741)" fill="#5cd9a6"/>
        <path id="Path_361" data-name="Path 361" d="M1119.984,251.131l-.258-4.1,36.853-2.073.258,4.108Z" transform="translate(-1119.008 -232.624)" fill="#1a2f58"/>
        <path id="Path_362" data-name="Path 362" d="M1120.716,263.046l-.258-4.1,36.863-2.069.247,4.1Z" transform="translate(-1118.935 -231.437)" fill="#3ead81"/>
        <path id="Path_363" data-name="Path 363" d="M1121.447,274.955l-.253-4.1,36.859-2.078.25,4.113Z" transform="translate(-1118.862 -230.251)" fill="#1a2f58"/>
        <path id="Path_364" data-name="Path 364" d="M1122.178,286.87l-.247-4.108,36.853-2.069.258,4.108Z" transform="translate(-1118.789 -229.065)" fill="#1a2f58"/>
      </g>
    </g>
    <path id="Path_365" data-name="Path 365" d="M935.55,279.445c-8.578-10.282-20.995-26.473-35.092-29.087-7.186-1.332-15.077-.869-18.567,4.085-4.309,6.108-2.8,18.222-2.154,25.354a167.05,167.05,0,0,0,3.808,23.437c1.85,7.824,4.3,15.592,8.385,22.515a83.975,83.975,0,0,0,12.556,15.63c14.681,15.048,32.292,28.1,52.71,33.108s43.959.7,58.371-14.607c6.291-6.682,10.537-14.987,14.61-23.212q6.194-12.506,12.119-25.141a10.426,10.426,0,0,0,1.394-5.171c-.154-1.8-1.621-3.622-3.423-3.481a220.232,220.232,0,0,1-29.126,19.87c-4.567,2.6-9.361,5.091-14.578,5.738-9.333,1.157-18.374-3.741-25.706-9.63C957.008,307.727,946.837,292.975,935.55,279.445Z" transform="translate(637.776 5008.283)" fill="#fff" stroke="#191847" stroke-miterlimit="10" stroke-width="3" fill-rule="evenodd"/>
    <path id="Path_366" data-name="Path 366" d="M929.815,199.547c3.292,13.432,6.606,27.068,6.147,40.888-.094,2.814-.518,5.962-2.738,7.693a9.6,9.6,0,0,1-4.9,1.575,64.955,64.955,0,0,1-48.147-14.187" transform="translate(637.837 5003.287)" fill="none" stroke="#191847" stroke-miterlimit="10" stroke-width="3" fill-rule="evenodd"/>
    <path id="Path_367" data-name="Path 367" d="M883.859,236.048a84.966,84.966,0,0,0,1.752,16.088" transform="translate(638.204 5006.922)" fill="none" stroke="#191847" stroke-miterlimit="10" stroke-width="3" fill-rule="evenodd"/>
    <path id="Path_368" data-name="Path 368" d="M904.822,244.5v6.192" transform="translate(640.291 5007.763)" fill="none" stroke="#191847" stroke-miterlimit="10" stroke-width="3" fill-rule="evenodd"/>
    <path id="Path_369" data-name="Path 369" d="M884.718,253.182c-8.7,6.428-12.267,17-14.967,26.992a381.111,381.111,0,0,0-9.944,148.959c.263,1.992.6,4.1,1.988,5.641,3.354,3.707,9.719,1.69,14.606-.018,18.879-6.6,40.209-3.632,59.2,2.692,5.055,1.683,10.674,3.6,15.61,1.634,5.425-2.157,7.734-8.235,7.819-13.7a28.484,28.484,0,0,0-2.956-13.022c-2.55-5.164-6.6-9.549-9.762-14.417a47.663,47.663,0,0,1-7-34.264" transform="translate(635.485 5008.628)" fill="#fff" stroke="#191847" stroke-miterlimit="10" stroke-width="3" fill-rule="evenodd"/>
    <path id="Path_370" data-name="Path 370" d="M941.149,655.416a18.892,18.892,0,0,1,15.36,10.767,1.541,1.541,0,0,1,.1,1.509,1.579,1.579,0,0,1-1.11.477,70.764,70.764,0,0,1-23.649-.749,3.719,3.719,0,0,1-2.674-1.433,3.444,3.444,0,0,1,.368-3.17,16.677,16.677,0,0,1,5.915-6.435" transform="matrix(0.995, -0.105, 0.105, 0.995, 562.469, 5148.47)" fill="#1a2f58" fill-rule="evenodd"/>
    <path id="Path_371" data-name="Path 371" d="M917.149,652.416a18.892,18.892,0,0,1,15.36,10.767,1.54,1.54,0,0,1,.1,1.509,1.578,1.578,0,0,1-1.109.477,70.767,70.767,0,0,1-23.649-.749,3.719,3.719,0,0,1-2.674-1.433,3.444,3.444,0,0,1,.368-3.17,16.677,16.677,0,0,1,5.915-6.435" transform="matrix(0.995, -0.105, 0.105, 0.995, 560.061, 5148.423)" fill="#1a2f58" fill-rule="evenodd"/>
    <g id="Group_82" data-name="Group 82" transform="translate(1678.786 5235.503)">
      <path id="Path_372" data-name="Path 372" d="M1034.168,338.514l-7.78-108.112,16.528-1.145,7.777,108.112Z" transform="translate(-1026.387 -229.258)" fill="#3ead81"/>
      <path id="Path_374" data-name="Path 374" d="M0,0H16.257V10.3H0Z" transform="translate(1.02 15.873) rotate(-3.962)" fill="#1a2f58"/>
      <path id="Path_375" data-name="Path 375" d="M0,0H16.257V4.408H0Z" transform="translate(1.657 25.076) rotate(-3.962)" fill="#89dfbc"/>
    </g>
    <path id="Path_373" data-name="Path 373" d="M1026.642,298.075c1.656-3.248,3.544-6.726,6.863-8.239a9.437,9.437,0,0,1,5.094-.7,4.224,4.224,0,0,1,3.165,1.638c.929,1.5.111,3.46-.937,4.876a16.754,16.754,0,0,1-13.167,6.672" transform="translate(652.424 5012.201)" fill="#fff" stroke="#191847" stroke-miterlimit="10" stroke-width="3"/>
    <path id="Path_377" data-name="Path 377" d="M1630.392,5252.757c32.815,16.911,28.661,23.764,28.661,23.764l-8.07,2.52s-24.734-5.21-29.456-5.21" transform="translate(-40 132)" fill="none" stroke="#191847" stroke-width="3"/>
    <path id="Path_378" data-name="Path 378" d="M1659.223,5279.041s7.331,6.259,3.6,6.854-9.385-1.232-9.462-3.046" transform="translate(-38 130)" fill="none" stroke="#191847" stroke-width="3"/>
  </g>
</svg>
