<svg width="959" height="54" viewBox="0 0 959 54" fill="none" xmlns="http://www.w3.org/2000/svg">
<mask id="mask0" mask-type="alpha" maskUnits="userSpaceOnUse" x="0" y="0" width="959" height="54">
<path d="M0 8.72727C0 3.90733 3.90733 0 8.72727 0H950.273C955.093 0 959 3.90733 959 8.72727V54H0V8.72727Z" fill="white"/>
</mask>
<g mask="url(#mask0)">
<line y1="53.5" x2="959" y2="53.5" stroke="#D3D3D3"/>
<rect width="959" height="53" fill="url(#paint0_linear)"/>
<path fill-rule="evenodd" clip-rule="evenodd" d="M69.8291 33.22C73.691 33.22 76.8218 30.086 76.8218 26.22C76.8218 22.354 73.691 19.22 69.8291 19.22C65.9671 19.22 62.8364 22.354 62.8364 26.22C62.8364 30.086 65.9671 33.22 69.8291 33.22Z" fill="#34C749"/>
<path fill-rule="evenodd" clip-rule="evenodd" d="M47.1382 33.22C51.0001 33.22 54.1309 30.086 54.1309 26.22C54.1309 22.354 51.0001 19.22 47.1382 19.22C43.2762 19.22 40.1454 22.354 40.1454 26.22C40.1454 30.086 43.2762 33.22 47.1382 33.22Z" fill="#FDBC40"/>
<path fill-rule="evenodd" clip-rule="evenodd" d="M24.4472 33.22C28.3092 33.22 31.4399 30.086 31.4399 26.22C31.4399 22.354 28.3092 19.22 24.4472 19.22C20.5853 19.22 17.4545 22.354 17.4545 26.22C17.4545 30.086 20.5853 33.22 24.4472 33.22Z" fill="#FC605C"/>
</g>
<defs>
<linearGradient id="paint0_linear" x1="0" y1="0" x2="0" y2="53" gradientUnits="userSpaceOnUse">
<stop offset="0.395833" stop-color="#F9F9F9"/>
<stop offset="1" stop-color="#FAFBFC"/>
</linearGradient>
</defs>
</svg>
