<svg width="569" height="523" viewBox="0 0 569 523" fill="none" xmlns="http://www.w3.org/2000/svg">
<rect width="569" height="523" rx="20" fill="white" fill-opacity="0.03"/>
<path d="M148.32 417.314H128.188C126.6 417.314 125.312 418.602 125.312 420.19V440.322C125.312 441.91 126.6 443.198 128.188 443.198H148.32C149.909 443.198 151.196 441.91 151.196 440.322V420.19C151.196 418.602 149.909 417.314 148.32 417.314Z" stroke="#F7F9F9" stroke-width="2.87597" stroke-linecap="round" stroke-linejoin="round"/>
<path d="M133.221 427.38C134.413 427.38 135.378 426.414 135.378 425.223C135.378 424.032 134.413 423.066 133.221 423.066C132.03 423.066 131.064 424.032 131.064 425.223C131.064 426.414 132.03 427.38 133.221 427.38Z" stroke="#F7F9F9" stroke-width="2.87597" stroke-linecap="round" stroke-linejoin="round"/>
<path d="M151.197 434.57L144.007 427.38L128.189 443.198" stroke="#F7F9F9" stroke-width="2.87597" stroke-linecap="round" stroke-linejoin="round"/>
<g clip-path="url(#clip0_3810_2211)">
<path d="M153.073 148.611C151.696 149.582 150.171 150.325 148.558 150.811C147.692 149.815 146.541 149.11 145.261 148.789C143.98 148.469 142.633 148.55 141.4 149.02C140.167 149.491 139.108 150.329 138.367 151.421C137.626 152.512 137.238 153.806 137.255 155.125V156.563C134.728 156.629 132.224 156.068 129.966 154.932C127.708 153.795 125.766 152.118 124.313 150.049C124.313 150.049 118.562 162.991 131.503 168.743C128.542 170.753 125.014 171.761 121.438 171.619C134.379 178.809 150.197 171.619 150.197 155.082C150.196 154.682 150.157 154.282 150.082 153.889C151.55 152.441 152.585 150.614 153.073 148.611V148.611Z" stroke="#F7F9F9" stroke-width="2.87597" stroke-linecap="round" stroke-linejoin="round"/>
</g>
<path d="M140.132 281.769H128.628C127.865 281.769 127.134 282.072 126.594 282.611C126.055 283.151 125.752 283.882 125.752 284.645V307.653C125.752 308.416 126.055 309.147 126.594 309.686C127.134 310.226 127.865 310.529 128.628 310.529H145.884C146.646 310.529 147.378 310.226 147.917 309.686C148.457 309.147 148.76 308.416 148.76 307.653V290.397L140.132 281.769Z" stroke="#F7F9F9" stroke-width="2.87597" stroke-linecap="round" stroke-linejoin="round"/>
<path d="M140.133 281.769V290.397H148.761" stroke="#F7F9F9" stroke-width="2.87597" stroke-linecap="round" stroke-linejoin="round"/>
<path d="M143.008 297.587H131.504" stroke="#F7F9F9" stroke-width="2.87597" stroke-linecap="round" stroke-linejoin="round"/>
<path d="M143.008 303.339H131.504" stroke="#F7F9F9" stroke-width="2.87597" stroke-linecap="round" stroke-linejoin="round"/>
<path d="M134.38 291.835H132.942H131.504" stroke="#F7F9F9" stroke-width="2.87597" stroke-linecap="round" stroke-linejoin="round"/>
<g clip-path="url(#clip1_3810_2211)">
<path d="M152.413 220.827C152.242 220.145 151.894 219.519 151.404 219.014C150.914 218.509 150.3 218.143 149.623 217.951C147.149 217.347 137.256 217.347 137.256 217.347C137.256 217.347 127.363 217.347 124.889 218.009C124.213 218.2 123.598 218.567 123.108 219.072C122.618 219.577 122.271 220.202 122.1 220.885C121.647 223.395 121.426 225.941 121.438 228.492C121.422 231.061 121.644 233.627 122.1 236.156C122.288 236.817 122.644 237.419 123.132 237.902C123.621 238.386 124.226 238.735 124.889 238.917C127.363 239.578 137.256 239.578 137.256 239.578C137.256 239.578 147.149 239.578 149.623 238.917C150.3 238.725 150.914 238.359 151.404 237.854C151.894 237.349 152.242 236.723 152.413 236.041C152.862 233.55 153.083 231.023 153.074 228.492C153.09 225.922 152.869 223.356 152.413 220.827V220.827Z" stroke="#F7F9F9" stroke-width="2.87597" stroke-linecap="round" stroke-linejoin="round"/>
<path d="M134.02 233.194L142.288 228.492L134.02 223.79V233.194Z" stroke="#F7F9F9" stroke-width="2.87597" stroke-linecap="round" stroke-linejoin="round"/>
</g>
<path d="M147.034 107.198L136.968 100.008L126.902 107.198V84.1899C126.902 83.4272 127.205 82.6957 127.745 82.1563C128.284 81.617 129.016 81.314 129.778 81.314H144.158C144.921 81.314 145.652 81.617 146.192 82.1563C146.731 82.6957 147.034 83.4272 147.034 84.1899V107.198Z" stroke="#F7F9F9" stroke-width="2.87597" stroke-linecap="round" stroke-linejoin="round"/>
<g clip-path="url(#clip2_3810_2211)">
<path d="M137.255 347.628C136.111 347.628 135.014 348.083 134.205 348.892C133.396 349.701 132.941 350.798 132.941 351.942V363.446C132.941 364.59 133.396 365.688 134.205 366.497C135.014 367.306 136.111 367.76 137.255 367.76C138.399 367.76 139.497 367.306 140.306 366.497C141.115 365.688 141.569 364.59 141.569 363.446V351.942C141.569 350.798 141.115 349.701 140.306 348.892C139.497 348.083 138.399 347.628 137.255 347.628V347.628Z" stroke="#F7F9F9" stroke-width="2.87597" stroke-linecap="round" stroke-linejoin="round"/>
<path d="M147.323 360.57V363.446C147.323 366.116 146.263 368.676 144.375 370.564C142.487 372.452 139.927 373.512 137.257 373.512C134.588 373.512 132.027 372.452 130.14 370.564C128.252 368.676 127.191 366.116 127.191 363.446V360.57" stroke="#F7F9F9" stroke-width="2.87597" stroke-linecap="round" stroke-linejoin="round"/>
<path d="M137.256 373.512V379.264" stroke="#F7F9F9" stroke-width="2.87597" stroke-linecap="round" stroke-linejoin="round"/>
<path d="M131.504 379.265H143.008" stroke="#F7F9F9" stroke-width="2.87597" stroke-linecap="round" stroke-linejoin="round"/>
</g>
<path d="M202.83 104H200.614L207.023 86.5455H209.205L215.614 104H213.398L208.182 89.3068H208.045L202.83 104ZM203.648 97.1818H212.58V99.0568H203.648V97.1818ZM218.06 104V90.9091H220.003V92.8864H220.139C220.378 92.2386 220.81 91.7131 221.435 91.3097C222.06 90.9062 222.764 90.7045 223.548 90.7045C223.696 90.7045 223.881 90.7074 224.102 90.7131C224.324 90.7187 224.491 90.7273 224.605 90.7386V92.7841C224.537 92.767 224.381 92.7415 224.136 92.7074C223.898 92.6676 223.645 92.6477 223.378 92.6477C222.741 92.6477 222.173 92.7812 221.673 93.0483C221.179 93.3097 220.787 93.6733 220.497 94.1392C220.213 94.5994 220.071 95.125 220.071 95.7159V104H218.06ZM233.503 90.9091V92.6136H226.719V90.9091H233.503ZM228.696 87.7727H230.707V100.25C230.707 100.818 230.79 101.244 230.955 101.528C231.125 101.807 231.341 101.994 231.602 102.091C231.869 102.182 232.151 102.227 232.446 102.227C232.668 102.227 232.849 102.216 232.991 102.193C233.134 102.165 233.247 102.142 233.332 102.125L233.741 103.932C233.605 103.983 233.415 104.034 233.17 104.085C232.926 104.142 232.616 104.17 232.241 104.17C231.673 104.17 231.116 104.048 230.571 103.804C230.031 103.56 229.582 103.188 229.224 102.688C228.872 102.188 228.696 101.557 228.696 100.795V87.7727ZM236.528 104V90.9091H238.54V104H236.528ZM237.551 88.7273C237.159 88.7273 236.821 88.5938 236.537 88.3267C236.259 88.0597 236.119 87.7386 236.119 87.3636C236.119 86.9886 236.259 86.6676 236.537 86.4006C236.821 86.1335 237.159 86 237.551 86C237.943 86 238.278 86.1335 238.557 86.4006C238.841 86.6676 238.983 86.9886 238.983 87.3636C238.983 87.7386 238.841 88.0597 238.557 88.3267C238.278 88.5938 237.943 88.7273 237.551 88.7273ZM247.542 104.273C246.315 104.273 245.258 103.983 244.371 103.403C243.485 102.824 242.803 102.026 242.326 101.009C241.849 99.9915 241.61 98.8295 241.61 97.5227C241.61 96.1932 241.854 95.0199 242.343 94.0028C242.837 92.9801 243.525 92.1818 244.406 91.608C245.292 91.0284 246.326 90.7386 247.508 90.7386C248.428 90.7386 249.258 90.9091 249.996 91.25C250.735 91.5909 251.34 92.0682 251.812 92.6818C252.283 93.2955 252.576 94.0114 252.69 94.8295H250.678C250.525 94.233 250.184 93.7045 249.656 93.2443C249.133 92.7784 248.428 92.5455 247.542 92.5455C246.758 92.5455 246.07 92.75 245.479 93.1591C244.894 93.5625 244.437 94.1335 244.107 94.8722C243.783 95.6051 243.621 96.4659 243.621 97.4545C243.621 98.4659 243.781 99.3466 244.099 100.097C244.423 100.847 244.877 101.429 245.462 101.844C246.053 102.259 246.746 102.466 247.542 102.466C248.065 102.466 248.539 102.375 248.965 102.193C249.391 102.011 249.752 101.75 250.048 101.409C250.343 101.068 250.553 100.659 250.678 100.182H252.69C252.576 100.955 252.295 101.651 251.846 102.27C251.403 102.884 250.815 103.372 250.082 103.736C249.354 104.094 248.508 104.273 247.542 104.273ZM257.641 86.5455V104H255.63V86.5455H257.641ZM266.814 104.273C265.553 104.273 264.464 103.994 263.55 103.438C262.641 102.875 261.939 102.091 261.445 101.085C260.956 100.074 260.712 98.8977 260.712 97.5568C260.712 96.2159 260.956 95.0341 261.445 94.0114C261.939 92.983 262.626 92.1818 263.507 91.608C264.393 91.0284 265.428 90.7386 266.609 90.7386C267.291 90.7386 267.964 90.8523 268.629 91.0795C269.294 91.3068 269.899 91.6761 270.445 92.1875C270.99 92.6932 271.425 93.3636 271.749 94.1989C272.072 95.0341 272.234 96.0625 272.234 97.2841V98.1364H262.143V96.3977H270.189C270.189 95.6591 270.041 95 269.746 94.4205C269.456 93.8409 269.041 93.3835 268.501 93.0483C267.967 92.7131 267.337 92.5455 266.609 92.5455C265.808 92.5455 265.115 92.7443 264.53 93.142C263.95 93.5341 263.504 94.0455 263.192 94.6761C262.879 95.3068 262.723 95.983 262.723 96.7045V97.8636C262.723 98.8523 262.893 99.6903 263.234 100.378C263.581 101.06 264.061 101.58 264.675 101.938C265.288 102.29 266.001 102.466 266.814 102.466C267.342 102.466 267.82 102.392 268.246 102.244C268.678 102.091 269.05 101.864 269.362 101.562C269.675 101.256 269.916 100.875 270.087 100.42L272.03 100.966C271.825 101.625 271.482 102.205 270.999 102.705C270.516 103.199 269.919 103.585 269.209 103.864C268.499 104.136 267.7 104.273 266.814 104.273ZM284.567 93.8409L282.76 94.3523C282.646 94.0511 282.479 93.7585 282.257 93.4744C282.041 93.1847 281.746 92.946 281.371 92.7585C280.996 92.571 280.516 92.4773 279.93 92.4773C279.129 92.4773 278.462 92.6619 277.928 93.0312C277.399 93.3949 277.135 93.858 277.135 94.4205C277.135 94.9205 277.317 95.3153 277.68 95.6051C278.044 95.8949 278.612 96.1364 279.385 96.3295L281.328 96.8068C282.499 97.0909 283.371 97.5256 283.945 98.1108C284.518 98.6903 284.805 99.4375 284.805 100.352C284.805 101.102 284.589 101.773 284.158 102.364C283.732 102.955 283.135 103.42 282.368 103.761C281.601 104.102 280.709 104.273 279.692 104.273C278.357 104.273 277.251 103.983 276.376 103.403C275.501 102.824 274.947 101.977 274.714 100.864L276.624 100.386C276.805 101.091 277.149 101.619 277.655 101.972C278.166 102.324 278.834 102.5 279.658 102.5C280.595 102.5 281.339 102.301 281.891 101.903C282.447 101.5 282.726 101.017 282.726 100.455C282.726 100 282.567 99.6193 282.249 99.3125C281.93 99 281.442 98.767 280.783 98.6136L278.601 98.1023C277.402 97.8182 276.521 97.3778 275.959 96.7812C275.402 96.179 275.124 95.4261 275.124 94.5227C275.124 93.7841 275.331 93.1307 275.746 92.5625C276.166 91.9943 276.737 91.5483 277.459 91.2244C278.186 90.9006 279.01 90.7386 279.93 90.7386C281.226 90.7386 282.243 91.0227 282.982 91.5909C283.726 92.1591 284.254 92.9091 284.567 93.8409ZM299.526 104.239C298.379 104.239 297.39 104.028 296.56 103.608C295.731 103.187 295.092 102.611 294.643 101.878C294.194 101.145 293.969 100.307 293.969 99.3636C293.969 98.6364 294.123 97.9915 294.43 97.429C294.742 96.8608 295.171 96.3352 295.717 95.8523C296.268 95.3636 296.901 94.875 297.617 94.3864L300.14 92.5114C300.634 92.1875 301.029 91.8409 301.325 91.4716C301.626 91.1023 301.776 90.6193 301.776 90.0227C301.776 89.5795 301.58 89.1506 301.188 88.7358C300.802 88.321 300.293 88.1136 299.663 88.1136C299.219 88.1136 298.827 88.2273 298.487 88.4545C298.151 88.6761 297.887 88.9602 297.694 89.3068C297.506 89.6477 297.413 90 297.413 90.3636C297.413 90.7727 297.523 91.1875 297.745 91.608C297.972 92.0227 298.259 92.4489 298.606 92.8864C298.958 93.3182 299.322 93.7614 299.697 94.2159L307.708 104H305.288L298.674 96.0227C298.06 95.2841 297.504 94.6136 297.004 94.0114C296.504 93.4091 296.106 92.8153 295.81 92.2301C295.515 91.6449 295.367 91.0114 295.367 90.3295C295.367 89.5455 295.54 88.858 295.887 88.267C296.239 87.6705 296.731 87.2074 297.362 86.8778C297.998 86.5426 298.742 86.375 299.594 86.375C300.469 86.375 301.222 86.5455 301.853 86.8864C302.484 87.2216 302.969 87.6676 303.31 88.2244C303.651 88.7756 303.822 89.375 303.822 90.0227C303.822 90.858 303.614 91.5824 303.2 92.196C302.785 92.8097 302.219 93.3807 301.504 93.9091L298.026 96.5C297.242 97.0795 296.711 97.642 296.433 98.1875C296.154 98.733 296.015 99.125 296.015 99.3636C296.015 99.9091 296.157 100.418 296.441 100.889C296.725 101.361 297.126 101.741 297.643 102.031C298.16 102.321 298.765 102.466 299.458 102.466C300.117 102.466 300.759 102.327 301.384 102.048C302.009 101.764 302.575 101.355 303.08 100.821C303.592 100.287 303.995 99.6449 304.29 98.8949C304.592 98.1449 304.742 97.3011 304.742 96.3636H306.685C306.685 97.5227 306.552 98.4687 306.285 99.2017C306.018 99.9347 305.717 100.509 305.381 100.923C305.046 101.338 304.776 101.648 304.572 101.852C304.504 101.937 304.441 102.023 304.384 102.108C304.327 102.193 304.265 102.278 304.197 102.364C303.634 102.994 302.924 103.466 302.066 103.778C301.208 104.085 300.362 104.239 299.526 104.239ZM316.957 104V86.5455H323.06C324.276 86.5455 325.278 86.7557 326.068 87.1761C326.858 87.5909 327.446 88.1506 327.832 88.8551C328.219 89.554 328.412 90.3295 328.412 91.1818C328.412 91.9318 328.278 92.5511 328.011 93.0398C327.75 93.5284 327.403 93.9148 326.972 94.1989C326.545 94.483 326.082 94.6932 325.582 94.8295V95C326.116 95.0341 326.653 95.2216 327.193 95.5625C327.733 95.9034 328.185 96.392 328.548 97.0284C328.912 97.6648 329.094 98.4432 329.094 99.3636C329.094 100.239 328.895 101.026 328.497 101.724C328.099 102.423 327.472 102.977 326.614 103.386C325.756 103.795 324.639 104 323.264 104H316.957ZM319.071 102.125H323.264C324.645 102.125 325.625 101.858 326.205 101.324C326.79 100.784 327.082 100.131 327.082 99.3636C327.082 98.7727 326.932 98.2273 326.631 97.7273C326.33 97.2216 325.901 96.8182 325.344 96.517C324.787 96.2102 324.128 96.0568 323.366 96.0568H319.071V102.125ZM319.071 94.2159H322.991C323.628 94.2159 324.202 94.0909 324.713 93.8409C325.23 93.5909 325.639 93.2386 325.94 92.7841C326.247 92.3295 326.401 91.7955 326.401 91.1818C326.401 90.4148 326.134 89.7642 325.599 89.2301C325.065 88.6903 324.219 88.4205 323.06 88.4205H319.071V94.2159ZM334.305 86.5455V104H332.294V86.5455H334.305ZM343.308 104.273C342.126 104.273 341.089 103.991 340.197 103.429C339.31 102.866 338.617 102.08 338.117 101.068C337.623 100.057 337.376 98.875 337.376 97.5227C337.376 96.1591 337.623 94.9687 338.117 93.9517C338.617 92.9347 339.31 92.1449 340.197 91.5824C341.089 91.0199 342.126 90.7386 343.308 90.7386C344.489 90.7386 345.523 91.0199 346.41 91.5824C347.302 92.1449 347.995 92.9347 348.489 93.9517C348.989 94.9687 349.239 96.1591 349.239 97.5227C349.239 98.875 348.989 100.057 348.489 101.068C347.995 102.08 347.302 102.866 346.41 103.429C345.523 103.991 344.489 104.273 343.308 104.273ZM343.308 102.466C344.205 102.466 344.944 102.236 345.523 101.776C346.103 101.315 346.532 100.71 346.81 99.9602C347.089 99.2102 347.228 98.3977 347.228 97.5227C347.228 96.6477 347.089 95.8324 346.81 95.0767C346.532 94.321 346.103 93.7102 345.523 93.2443C344.944 92.7784 344.205 92.5455 343.308 92.5455C342.41 92.5455 341.671 92.7784 341.092 93.2443C340.512 93.7102 340.083 94.321 339.805 95.0767C339.526 95.8324 339.387 96.6477 339.387 97.5227C339.387 98.3977 339.526 99.2102 339.805 99.9602C340.083 100.71 340.512 101.315 341.092 101.776C341.671 102.236 342.41 102.466 343.308 102.466ZM357.594 109.182C356.622 109.182 355.787 109.057 355.088 108.807C354.389 108.562 353.807 108.239 353.341 107.835C352.881 107.438 352.514 107.011 352.241 106.557L353.844 105.432C354.026 105.67 354.256 105.943 354.534 106.25C354.813 106.562 355.193 106.832 355.676 107.06C356.165 107.293 356.804 107.409 357.594 107.409C358.651 107.409 359.523 107.153 360.21 106.642C360.898 106.131 361.241 105.33 361.241 104.239V101.58H361.071C360.923 101.818 360.713 102.114 360.44 102.466C360.173 102.812 359.787 103.122 359.281 103.395C358.781 103.662 358.105 103.795 357.253 103.795C356.196 103.795 355.247 103.545 354.406 103.045C353.571 102.545 352.909 101.818 352.42 100.864C351.938 99.9091 351.696 98.75 351.696 97.3864C351.696 96.0455 351.932 94.8778 352.403 93.8835C352.875 92.8835 353.531 92.1108 354.372 91.5653C355.213 91.0142 356.185 90.7386 357.287 90.7386C358.139 90.7386 358.815 90.8807 359.315 91.1648C359.821 91.4432 360.207 91.7614 360.474 92.1193C360.747 92.4716 360.957 92.7614 361.105 92.9886H361.31V90.9091H363.253V104.375C363.253 105.5 362.997 106.415 362.486 107.119C361.98 107.83 361.298 108.349 360.44 108.679C359.588 109.014 358.639 109.182 357.594 109.182ZM357.526 101.989C358.332 101.989 359.014 101.804 359.571 101.435C360.128 101.065 360.551 100.534 360.841 99.8409C361.131 99.1477 361.276 98.3182 361.276 97.3523C361.276 96.4091 361.134 95.5767 360.849 94.8551C360.565 94.1335 360.145 93.5682 359.588 93.1591C359.031 92.75 358.344 92.5455 357.526 92.5455C356.673 92.5455 355.963 92.7614 355.395 93.1932C354.832 93.625 354.409 94.2045 354.125 94.9318C353.847 95.6591 353.707 96.4659 353.707 97.3523C353.707 98.2614 353.849 99.0653 354.134 99.7642C354.423 100.457 354.849 101.003 355.412 101.401C355.98 101.793 356.685 101.989 357.526 101.989ZM376.207 93.8409L374.401 94.3523C374.287 94.0511 374.119 93.7585 373.898 93.4744C373.682 93.1847 373.386 92.946 373.011 92.7585C372.636 92.571 372.156 92.4773 371.571 92.4773C370.77 92.4773 370.102 92.6619 369.568 93.0312C369.04 93.3949 368.776 93.858 368.776 94.4205C368.776 94.9205 368.957 95.3153 369.321 95.6051C369.685 95.8949 370.253 96.1364 371.026 96.3295L372.969 96.8068C374.139 97.0909 375.011 97.5256 375.585 98.1108C376.159 98.6903 376.446 99.4375 376.446 100.352C376.446 101.102 376.23 101.773 375.798 102.364C375.372 102.955 374.776 103.42 374.009 103.761C373.241 104.102 372.349 104.273 371.332 104.273C369.997 104.273 368.892 103.983 368.017 103.403C367.142 102.824 366.588 101.977 366.355 100.864L368.264 100.386C368.446 101.091 368.79 101.619 369.295 101.972C369.807 102.324 370.474 102.5 371.298 102.5C372.236 102.5 372.98 102.301 373.531 101.903C374.088 101.5 374.366 101.017 374.366 100.455C374.366 100 374.207 99.6193 373.889 99.3125C373.571 99 373.082 98.767 372.423 98.6136L370.241 98.1023C369.043 97.8182 368.162 97.3778 367.599 96.7812C367.043 96.179 366.764 95.4261 366.764 94.5227C366.764 93.7841 366.972 93.1307 367.386 92.5625C367.807 91.9943 368.378 91.5483 369.099 91.2244C369.827 90.9006 370.651 90.7386 371.571 90.7386C372.866 90.7386 373.884 91.0227 374.622 91.5909C375.366 92.1591 375.895 92.9091 376.207 93.8409Z" fill="white"/>
<path d="M201.159 155.42V153.545H214.25V155.42H208.761V171H206.648V155.42H201.159ZM218.705 171L214.717 157.909H216.83L219.66 167.932H219.796L222.592 157.909H224.739L227.501 167.898H227.637L230.467 157.909H232.58L228.592 171H226.614L223.751 160.943H223.546L220.683 171H218.705ZM240.283 171.273C239.021 171.273 237.933 170.994 237.018 170.438C236.109 169.875 235.408 169.091 234.913 168.085C234.425 167.074 234.18 165.898 234.18 164.557C234.18 163.216 234.425 162.034 234.913 161.011C235.408 159.983 236.095 159.182 236.976 158.608C237.862 158.028 238.896 157.739 240.078 157.739C240.76 157.739 241.433 157.852 242.098 158.08C242.763 158.307 243.368 158.676 243.913 159.188C244.459 159.693 244.893 160.364 245.217 161.199C245.541 162.034 245.703 163.062 245.703 164.284V165.136H235.612V163.398H243.658C243.658 162.659 243.51 162 243.214 161.42C242.925 160.841 242.51 160.384 241.97 160.048C241.436 159.713 240.805 159.545 240.078 159.545C239.277 159.545 238.584 159.744 237.999 160.142C237.419 160.534 236.973 161.045 236.661 161.676C236.348 162.307 236.192 162.983 236.192 163.705V164.864C236.192 165.852 236.362 166.69 236.703 167.378C237.05 168.06 237.53 168.58 238.143 168.938C238.757 169.29 239.47 169.466 240.283 169.466C240.811 169.466 241.288 169.392 241.714 169.244C242.146 169.091 242.518 168.864 242.831 168.562C243.143 168.256 243.385 167.875 243.555 167.42L245.499 167.966C245.294 168.625 244.95 169.205 244.467 169.705C243.984 170.199 243.388 170.585 242.678 170.864C241.967 171.136 241.169 171.273 240.283 171.273ZM254.251 171.273C252.99 171.273 251.902 170.994 250.987 170.438C250.078 169.875 249.376 169.091 248.882 168.085C248.393 167.074 248.149 165.898 248.149 164.557C248.149 163.216 248.393 162.034 248.882 161.011C249.376 159.983 250.064 159.182 250.945 158.608C251.831 158.028 252.865 157.739 254.047 157.739C254.729 157.739 255.402 157.852 256.067 158.08C256.732 158.307 257.337 158.676 257.882 159.188C258.428 159.693 258.862 160.364 259.186 161.199C259.51 162.034 259.672 163.062 259.672 164.284V165.136H249.581V163.398H257.626C257.626 162.659 257.479 162 257.183 161.42C256.893 160.841 256.479 160.384 255.939 160.048C255.405 159.713 254.774 159.545 254.047 159.545C253.246 159.545 252.553 159.744 251.967 160.142C251.388 160.534 250.942 161.045 250.629 161.676C250.317 162.307 250.161 162.983 250.161 163.705V164.864C250.161 165.852 250.331 166.69 250.672 167.378C251.018 168.06 251.499 168.58 252.112 168.938C252.726 169.29 253.439 169.466 254.251 169.466C254.78 169.466 255.257 169.392 255.683 169.244C256.115 169.091 256.487 168.864 256.8 168.562C257.112 168.256 257.354 167.875 257.524 167.42L259.467 167.966C259.263 168.625 258.919 169.205 258.436 169.705C257.953 170.199 257.357 170.585 256.646 170.864C255.936 171.136 255.138 171.273 254.251 171.273ZM268.425 157.909V159.614H261.641V157.909H268.425ZM263.618 154.773H265.629V167.25C265.629 167.818 265.712 168.244 265.876 168.528C266.047 168.807 266.263 168.994 266.524 169.091C266.791 169.182 267.072 169.227 267.368 169.227C267.589 169.227 267.771 169.216 267.913 169.193C268.055 169.165 268.169 169.142 268.254 169.125L268.663 170.932C268.527 170.983 268.337 171.034 268.092 171.085C267.848 171.142 267.538 171.17 267.163 171.17C266.595 171.17 266.038 171.048 265.493 170.804C264.953 170.56 264.504 170.188 264.146 169.688C263.794 169.188 263.618 168.557 263.618 167.795V154.773ZM280.489 160.841L278.682 161.352C278.568 161.051 278.401 160.759 278.179 160.474C277.963 160.185 277.668 159.946 277.293 159.759C276.918 159.571 276.438 159.477 275.852 159.477C275.051 159.477 274.384 159.662 273.849 160.031C273.321 160.395 273.057 160.858 273.057 161.42C273.057 161.92 273.239 162.315 273.602 162.605C273.966 162.895 274.534 163.136 275.307 163.33L277.25 163.807C278.42 164.091 279.293 164.526 279.866 165.111C280.44 165.69 280.727 166.437 280.727 167.352C280.727 168.102 280.511 168.773 280.08 169.364C279.653 169.955 279.057 170.42 278.29 170.761C277.523 171.102 276.631 171.273 275.614 171.273C274.278 171.273 273.173 170.983 272.298 170.403C271.423 169.824 270.869 168.977 270.636 167.864L272.545 167.386C272.727 168.091 273.071 168.619 273.577 168.972C274.088 169.324 274.756 169.5 275.58 169.5C276.517 169.5 277.261 169.301 277.812 168.903C278.369 168.5 278.648 168.017 278.648 167.455C278.648 167 278.489 166.619 278.17 166.312C277.852 166 277.364 165.767 276.705 165.614L274.523 165.102C273.324 164.818 272.443 164.378 271.881 163.781C271.324 163.179 271.045 162.426 271.045 161.523C271.045 160.784 271.253 160.131 271.668 159.562C272.088 158.994 272.659 158.548 273.381 158.224C274.108 157.901 274.932 157.739 275.852 157.739C277.148 157.739 278.165 158.023 278.903 158.591C279.648 159.159 280.176 159.909 280.489 160.841Z" fill="white"/>
<path d="M200.614 220.545H203.034L207.875 228.693H208.08L212.92 220.545H215.341L209.034 230.807V238H206.92V230.807L200.614 220.545ZM221.268 238.273C220.087 238.273 219.05 237.991 218.158 237.429C217.271 236.866 216.578 236.08 216.078 235.068C215.584 234.057 215.337 232.875 215.337 231.523C215.337 230.159 215.584 228.969 216.078 227.952C216.578 226.935 217.271 226.145 218.158 225.582C219.05 225.02 220.087 224.739 221.268 224.739C222.45 224.739 223.484 225.02 224.371 225.582C225.263 226.145 225.956 226.935 226.45 227.952C226.95 228.969 227.2 230.159 227.2 231.523C227.2 232.875 226.95 234.057 226.45 235.068C225.956 236.08 225.263 236.866 224.371 237.429C223.484 237.991 222.45 238.273 221.268 238.273ZM221.268 236.466C222.166 236.466 222.905 236.236 223.484 235.776C224.064 235.315 224.493 234.71 224.771 233.96C225.05 233.21 225.189 232.398 225.189 231.523C225.189 230.648 225.05 229.832 224.771 229.077C224.493 228.321 224.064 227.71 223.484 227.244C222.905 226.778 222.166 226.545 221.268 226.545C220.371 226.545 219.632 226.778 219.053 227.244C218.473 227.71 218.044 228.321 217.766 229.077C217.487 229.832 217.348 230.648 217.348 231.523C217.348 232.398 217.487 233.21 217.766 233.96C218.044 234.71 218.473 235.315 219.053 235.776C219.632 236.236 220.371 236.466 221.268 236.466ZM238.521 232.648V224.909H240.532V238H238.521V235.784H238.384C238.077 236.449 237.6 237.014 236.952 237.48C236.305 237.94 235.487 238.17 234.498 238.17C233.68 238.17 232.952 237.991 232.316 237.634C231.68 237.27 231.18 236.724 230.816 235.997C230.452 235.264 230.271 234.341 230.271 233.227V224.909H232.282V233.091C232.282 234.045 232.549 234.807 233.083 235.375C233.623 235.943 234.31 236.227 235.146 236.227C235.646 236.227 236.154 236.099 236.671 235.844C237.194 235.588 237.631 235.196 237.984 234.668C238.342 234.139 238.521 233.466 238.521 232.648ZM242.315 222.42V220.545H255.406V222.42H249.918V238H247.804V222.42H242.315ZM264.864 232.648V224.909H266.876V238H264.864V235.784H264.728C264.421 236.449 263.944 237.014 263.296 237.48C262.648 237.94 261.83 238.17 260.842 238.17C260.023 238.17 259.296 237.991 258.66 237.634C258.023 237.27 257.523 236.724 257.16 235.997C256.796 235.264 256.614 234.341 256.614 233.227V224.909H258.626V233.091C258.626 234.045 258.893 234.807 259.427 235.375C259.967 235.943 260.654 236.227 261.489 236.227C261.989 236.227 262.498 236.099 263.015 235.844C263.538 235.588 263.975 235.196 264.327 234.668C264.685 234.139 264.864 233.466 264.864 232.648ZM270.832 238V220.545H272.844V226.989H273.014C273.162 226.761 273.366 226.472 273.628 226.119C273.895 225.761 274.276 225.443 274.77 225.165C275.27 224.881 275.946 224.739 276.798 224.739C277.901 224.739 278.872 225.014 279.713 225.565C280.554 226.116 281.21 226.898 281.682 227.909C282.153 228.92 282.389 230.114 282.389 231.489C282.389 232.875 282.153 234.077 281.682 235.094C281.21 236.105 280.557 236.889 279.722 237.446C278.886 237.997 277.923 238.273 276.832 238.273C275.991 238.273 275.318 238.134 274.812 237.855C274.307 237.571 273.918 237.25 273.645 236.892C273.372 236.528 273.162 236.227 273.014 235.989H272.776V238H270.832ZM272.81 231.455C272.81 232.443 272.955 233.315 273.244 234.071C273.534 234.821 273.957 235.409 274.514 235.835C275.071 236.256 275.753 236.466 276.56 236.466C277.401 236.466 278.102 236.244 278.665 235.801C279.233 235.352 279.659 234.75 279.943 233.994C280.233 233.233 280.378 232.386 280.378 231.455C280.378 230.534 280.236 229.705 279.952 228.966C279.673 228.222 279.25 227.634 278.682 227.202C278.119 226.764 277.412 226.545 276.56 226.545C275.741 226.545 275.054 226.753 274.497 227.168C273.94 227.577 273.52 228.151 273.236 228.889C272.952 229.622 272.81 230.477 272.81 231.455ZM290.955 238.273C289.693 238.273 288.605 237.994 287.69 237.438C286.781 236.875 286.08 236.091 285.585 235.085C285.097 234.074 284.852 232.898 284.852 231.557C284.852 230.216 285.097 229.034 285.585 228.011C286.08 226.983 286.767 226.182 287.648 225.608C288.534 225.028 289.568 224.739 290.75 224.739C291.432 224.739 292.105 224.852 292.77 225.08C293.435 225.307 294.04 225.676 294.585 226.188C295.131 226.693 295.565 227.364 295.889 228.199C296.213 229.034 296.375 230.062 296.375 231.284V232.136H286.284V230.398H294.33C294.33 229.659 294.182 229 293.886 228.42C293.597 227.841 293.182 227.384 292.642 227.048C292.108 226.713 291.477 226.545 290.75 226.545C289.949 226.545 289.256 226.744 288.67 227.142C288.091 227.534 287.645 228.045 287.332 228.676C287.02 229.307 286.864 229.983 286.864 230.705V231.864C286.864 232.852 287.034 233.69 287.375 234.378C287.722 235.06 288.202 235.58 288.815 235.938C289.429 236.29 290.142 236.466 290.955 236.466C291.483 236.466 291.96 236.392 292.386 236.244C292.818 236.091 293.19 235.864 293.503 235.562C293.815 235.256 294.057 234.875 294.227 234.42L296.17 234.966C295.966 235.625 295.622 236.205 295.139 236.705C294.656 237.199 294.06 237.585 293.349 237.864C292.639 238.136 291.841 238.273 290.955 238.273ZM307.173 220.545L312.355 235.239H312.56L317.741 220.545H319.957L313.548 238H311.366L304.957 220.545H307.173ZM322.403 238V224.909H324.415V238H322.403ZM323.426 222.727C323.034 222.727 322.696 222.594 322.412 222.327C322.134 222.06 321.994 221.739 321.994 221.364C321.994 220.989 322.134 220.668 322.412 220.401C322.696 220.134 323.034 220 323.426 220C323.818 220 324.153 220.134 324.432 220.401C324.716 220.668 324.858 220.989 324.858 221.364C324.858 221.739 324.716 222.06 324.432 222.327C324.153 222.594 323.818 222.727 323.426 222.727ZM333.042 238.273C331.951 238.273 330.988 237.997 330.153 237.446C329.317 236.889 328.664 236.105 328.192 235.094C327.721 234.077 327.485 232.875 327.485 231.489C327.485 230.114 327.721 228.92 328.192 227.909C328.664 226.898 329.32 226.116 330.161 225.565C331.002 225.014 331.974 224.739 333.076 224.739C333.928 224.739 334.602 224.881 335.096 225.165C335.596 225.443 335.977 225.761 336.238 226.119C336.505 226.472 336.712 226.761 336.86 226.989H337.031V220.545H339.042V238H337.099V235.989H336.86C336.712 236.227 336.502 236.528 336.229 236.892C335.957 237.25 335.567 237.571 335.062 237.855C334.556 238.134 333.883 238.273 333.042 238.273ZM333.315 236.466C334.121 236.466 334.803 236.256 335.36 235.835C335.917 235.409 336.34 234.821 336.63 234.071C336.92 233.315 337.065 232.443 337.065 231.455C337.065 230.477 336.923 229.622 336.638 228.889C336.354 228.151 335.934 227.577 335.377 227.168C334.82 226.753 334.133 226.545 333.315 226.545C332.462 226.545 331.752 226.764 331.184 227.202C330.621 227.634 330.198 228.222 329.914 228.966C329.636 229.705 329.496 230.534 329.496 231.455C329.496 232.386 329.638 233.233 329.923 233.994C330.212 234.75 330.638 235.352 331.201 235.801C331.769 236.244 332.474 236.466 333.315 236.466ZM348.494 238.273C347.232 238.273 346.144 237.994 345.229 237.438C344.32 236.875 343.619 236.091 343.124 235.085C342.636 234.074 342.391 232.898 342.391 231.557C342.391 230.216 342.636 229.034 343.124 228.011C343.619 226.983 344.306 226.182 345.187 225.608C346.073 225.028 347.107 224.739 348.289 224.739C348.971 224.739 349.644 224.852 350.309 225.08C350.974 225.307 351.579 225.676 352.124 226.188C352.67 226.693 353.104 227.364 353.428 228.199C353.752 229.034 353.914 230.062 353.914 231.284V232.136H343.823V230.398H351.869C351.869 229.659 351.721 229 351.425 228.42C351.136 227.841 350.721 227.384 350.181 227.048C349.647 226.713 349.016 226.545 348.289 226.545C347.488 226.545 346.795 226.744 346.21 227.142C345.63 227.534 345.184 228.045 344.871 228.676C344.559 229.307 344.403 229.983 344.403 230.705V231.864C344.403 232.852 344.573 233.69 344.914 234.378C345.261 235.06 345.741 235.58 346.354 235.938C346.968 236.29 347.681 236.466 348.494 236.466C349.022 236.466 349.499 236.392 349.925 236.244C350.357 236.091 350.729 235.864 351.042 235.562C351.354 235.256 351.596 234.875 351.766 234.42L353.71 234.966C353.505 235.625 353.161 236.205 352.678 236.705C352.195 237.199 351.599 237.585 350.888 237.864C350.178 238.136 349.38 238.273 348.494 238.273ZM362.292 238.273C361.11 238.273 360.073 237.991 359.181 237.429C358.295 236.866 357.602 236.08 357.102 235.068C356.607 234.057 356.36 232.875 356.36 231.523C356.36 230.159 356.607 228.969 357.102 227.952C357.602 226.935 358.295 226.145 359.181 225.582C360.073 225.02 361.11 224.739 362.292 224.739C363.474 224.739 364.508 225.02 365.394 225.582C366.286 226.145 366.979 226.935 367.474 227.952C367.974 228.969 368.224 230.159 368.224 231.523C368.224 232.875 367.974 234.057 367.474 235.068C366.979 236.08 366.286 236.866 365.394 237.429C364.508 237.991 363.474 238.273 362.292 238.273ZM362.292 236.466C363.19 236.466 363.928 236.236 364.508 235.776C365.087 235.315 365.516 234.71 365.795 233.96C366.073 233.21 366.212 232.398 366.212 231.523C366.212 230.648 366.073 229.832 365.795 229.077C365.516 228.321 365.087 227.71 364.508 227.244C363.928 226.778 363.19 226.545 362.292 226.545C361.394 226.545 360.656 226.778 360.076 227.244C359.496 227.71 359.067 228.321 358.789 229.077C358.511 229.832 358.371 230.648 358.371 231.523C358.371 232.398 358.511 233.21 358.789 233.96C359.067 234.71 359.496 235.315 360.076 235.776C360.656 236.236 361.394 236.466 362.292 236.466ZM380.567 227.841L378.76 228.352C378.646 228.051 378.479 227.759 378.257 227.474C378.041 227.185 377.746 226.946 377.371 226.759C376.996 226.571 376.516 226.477 375.93 226.477C375.129 226.477 374.462 226.662 373.928 227.031C373.399 227.395 373.135 227.858 373.135 228.42C373.135 228.92 373.317 229.315 373.68 229.605C374.044 229.895 374.612 230.136 375.385 230.33L377.328 230.807C378.499 231.091 379.371 231.526 379.945 232.111C380.518 232.69 380.805 233.437 380.805 234.352C380.805 235.102 380.589 235.773 380.158 236.364C379.732 236.955 379.135 237.42 378.368 237.761C377.601 238.102 376.709 238.273 375.692 238.273C374.357 238.273 373.251 237.983 372.376 237.403C371.501 236.824 370.947 235.977 370.714 234.864L372.624 234.386C372.805 235.091 373.149 235.619 373.655 235.972C374.166 236.324 374.834 236.5 375.658 236.5C376.595 236.5 377.339 236.301 377.891 235.903C378.447 235.5 378.726 235.017 378.726 234.455C378.726 234 378.567 233.619 378.249 233.312C377.93 233 377.442 232.767 376.783 232.614L374.601 232.102C373.402 231.818 372.521 231.378 371.959 230.781C371.402 230.179 371.124 229.426 371.124 228.523C371.124 227.784 371.331 227.131 371.746 226.562C372.166 225.994 372.737 225.548 373.459 225.224C374.186 224.901 375.01 224.739 375.93 224.739C377.226 224.739 378.243 225.023 378.982 225.591C379.726 226.159 380.254 226.909 380.567 227.841Z" fill="white"/>
<path d="M202.114 305V287.545H208.011C209.381 287.545 210.5 287.793 211.369 288.287C212.244 288.776 212.892 289.438 213.312 290.273C213.733 291.108 213.943 292.04 213.943 293.068C213.943 294.097 213.733 295.031 213.312 295.872C212.898 296.713 212.256 297.384 211.386 297.884C210.517 298.378 209.403 298.625 208.045 298.625H203.818V296.75H207.977C208.915 296.75 209.668 296.588 210.236 296.264C210.804 295.94 211.216 295.503 211.472 294.952C211.733 294.395 211.864 293.767 211.864 293.068C211.864 292.369 211.733 291.744 211.472 291.193C211.216 290.642 210.801 290.21 210.227 289.898C209.653 289.58 208.892 289.42 207.943 289.42H204.227V305H202.114ZM222.734 305H217.348V287.545H222.973C224.666 287.545 226.115 287.895 227.32 288.594C228.524 289.287 229.447 290.284 230.089 291.585C230.732 292.881 231.053 294.432 231.053 296.239C231.053 298.057 230.729 299.622 230.081 300.935C229.433 302.241 228.49 303.247 227.251 303.952C226.013 304.651 224.507 305 222.734 305ZM219.462 303.125H222.598C224.041 303.125 225.237 302.847 226.186 302.29C227.135 301.733 227.842 300.94 228.308 299.912C228.774 298.884 229.007 297.659 229.007 296.239C229.007 294.83 228.777 293.616 228.317 292.599C227.857 291.577 227.169 290.793 226.254 290.247C225.339 289.696 224.2 289.42 222.837 289.42H219.462V303.125ZM234.598 305V287.545H245.064V289.42H236.712V295.318H244.28V297.193H236.712V305H234.598ZM257.684 294.841L255.877 295.352C255.763 295.051 255.596 294.759 255.374 294.474C255.158 294.185 254.863 293.946 254.488 293.759C254.113 293.571 253.633 293.477 253.048 293.477C252.246 293.477 251.579 293.662 251.045 294.031C250.516 294.395 250.252 294.858 250.252 295.42C250.252 295.92 250.434 296.315 250.798 296.605C251.161 296.895 251.729 297.136 252.502 297.33L254.445 297.807C255.616 298.091 256.488 298.526 257.062 299.111C257.636 299.69 257.923 300.437 257.923 301.352C257.923 302.102 257.707 302.773 257.275 303.364C256.849 303.955 256.252 304.42 255.485 304.761C254.718 305.102 253.826 305.273 252.809 305.273C251.474 305.273 250.369 304.983 249.494 304.403C248.619 303.824 248.065 302.977 247.832 301.864L249.741 301.386C249.923 302.091 250.266 302.619 250.772 302.972C251.283 303.324 251.951 303.5 252.775 303.5C253.712 303.5 254.457 303.301 255.008 302.903C255.565 302.5 255.843 302.017 255.843 301.455C255.843 301 255.684 300.619 255.366 300.312C255.048 300 254.559 299.767 253.9 299.614L251.718 299.102C250.519 298.818 249.638 298.378 249.076 297.781C248.519 297.179 248.241 296.426 248.241 295.523C248.241 294.784 248.448 294.131 248.863 293.562C249.283 292.994 249.854 292.548 250.576 292.224C251.303 291.901 252.127 291.739 253.048 291.739C254.343 291.739 255.36 292.023 256.099 292.591C256.843 293.159 257.371 293.909 257.684 294.841ZM268.416 296.273C268.416 294.125 268.695 292.151 269.251 290.349C269.814 288.543 270.615 286.881 271.655 285.364H273.428C273.018 285.926 272.635 286.619 272.277 287.443C271.925 288.261 271.615 289.162 271.348 290.145C271.081 291.122 270.871 292.134 270.717 293.179C270.57 294.224 270.496 295.256 270.496 296.273C270.496 297.625 270.626 298.997 270.888 300.389C271.149 301.781 271.501 303.074 271.945 304.267C272.388 305.46 272.882 306.432 273.428 307.182H271.655C270.615 305.665 269.814 304.006 269.251 302.205C268.695 300.398 268.416 298.42 268.416 296.273ZM279.839 305L275.066 287.545H277.214L280.862 301.761H281.032L284.748 287.545H287.134L290.85 301.761H291.021L294.668 287.545H296.816L292.043 305H289.862L286.009 291.091H285.873L282.021 305H279.839ZM303.447 305.273C302.185 305.273 301.097 304.994 300.183 304.438C299.273 303.875 298.572 303.091 298.077 302.085C297.589 301.074 297.344 299.898 297.344 298.557C297.344 297.216 297.589 296.034 298.077 295.011C298.572 293.983 299.259 293.182 300.14 292.608C301.026 292.028 302.06 291.739 303.242 291.739C303.924 291.739 304.597 291.852 305.262 292.08C305.927 292.307 306.532 292.676 307.077 293.188C307.623 293.693 308.058 294.364 308.381 295.199C308.705 296.034 308.867 297.062 308.867 298.284V299.136H298.776V297.398H306.822C306.822 296.659 306.674 296 306.379 295.42C306.089 294.841 305.674 294.384 305.134 294.048C304.6 293.713 303.969 293.545 303.242 293.545C302.441 293.545 301.748 293.744 301.163 294.142C300.583 294.534 300.137 295.045 299.825 295.676C299.512 296.307 299.356 296.983 299.356 297.705V298.864C299.356 299.852 299.526 300.69 299.867 301.378C300.214 302.06 300.694 302.58 301.308 302.938C301.921 303.29 302.634 303.466 303.447 303.466C303.975 303.466 304.452 303.392 304.879 303.244C305.31 303.091 305.683 302.864 305.995 302.562C306.308 302.256 306.549 301.875 306.719 301.42L308.663 301.966C308.458 302.625 308.114 303.205 307.631 303.705C307.148 304.199 306.552 304.585 305.842 304.864C305.131 305.136 304.333 305.273 303.447 305.273ZM312.2 305V287.545H314.211V293.989H314.381C314.529 293.761 314.734 293.472 314.995 293.119C315.262 292.761 315.643 292.443 316.137 292.165C316.637 291.881 317.313 291.739 318.165 291.739C319.268 291.739 320.239 292.014 321.08 292.565C321.921 293.116 322.577 293.898 323.049 294.909C323.521 295.92 323.756 297.114 323.756 298.489C323.756 299.875 323.521 301.077 323.049 302.094C322.577 303.105 321.924 303.889 321.089 304.446C320.254 304.997 319.29 305.273 318.2 305.273C317.359 305.273 316.685 305.134 316.18 304.855C315.674 304.571 315.285 304.25 315.012 303.892C314.739 303.528 314.529 303.227 314.381 302.989H314.143V305H312.2ZM314.177 298.455C314.177 299.443 314.322 300.315 314.612 301.071C314.901 301.821 315.325 302.409 315.881 302.835C316.438 303.256 317.12 303.466 317.927 303.466C318.768 303.466 319.469 303.244 320.032 302.801C320.6 302.352 321.026 301.75 321.31 300.994C321.6 300.233 321.745 299.386 321.745 298.455C321.745 297.534 321.603 296.705 321.319 295.966C321.04 295.222 320.617 294.634 320.049 294.202C319.487 293.764 318.779 293.545 317.927 293.545C317.109 293.545 316.421 293.753 315.864 294.168C315.308 294.577 314.887 295.151 314.603 295.889C314.319 296.622 314.177 297.477 314.177 298.455ZM338.526 305.239C337.379 305.239 336.39 305.028 335.56 304.608C334.731 304.187 334.092 303.611 333.643 302.878C333.194 302.145 332.969 301.307 332.969 300.364C332.969 299.636 333.123 298.991 333.43 298.429C333.742 297.861 334.171 297.335 334.717 296.852C335.268 296.364 335.901 295.875 336.617 295.386L339.14 293.511C339.634 293.187 340.029 292.841 340.325 292.472C340.626 292.102 340.776 291.619 340.776 291.023C340.776 290.58 340.58 290.151 340.188 289.736C339.802 289.321 339.293 289.114 338.663 289.114C338.219 289.114 337.827 289.227 337.487 289.455C337.151 289.676 336.887 289.96 336.694 290.307C336.506 290.648 336.413 291 336.413 291.364C336.413 291.773 336.523 292.188 336.745 292.608C336.972 293.023 337.259 293.449 337.606 293.886C337.958 294.318 338.322 294.761 338.697 295.216L346.708 305H344.288L337.674 297.023C337.06 296.284 336.504 295.614 336.004 295.011C335.504 294.409 335.106 293.815 334.81 293.23C334.515 292.645 334.367 292.011 334.367 291.33C334.367 290.545 334.54 289.858 334.887 289.267C335.239 288.67 335.731 288.207 336.362 287.878C336.998 287.543 337.742 287.375 338.594 287.375C339.469 287.375 340.222 287.545 340.853 287.886C341.484 288.222 341.969 288.668 342.31 289.224C342.651 289.776 342.822 290.375 342.822 291.023C342.822 291.858 342.614 292.582 342.2 293.196C341.785 293.81 341.219 294.381 340.504 294.909L337.026 297.5C336.242 298.08 335.711 298.642 335.433 299.188C335.154 299.733 335.015 300.125 335.015 300.364C335.015 300.909 335.157 301.418 335.441 301.889C335.725 302.361 336.126 302.741 336.643 303.031C337.16 303.321 337.765 303.466 338.458 303.466C339.117 303.466 339.759 303.327 340.384 303.048C341.009 302.764 341.575 302.355 342.08 301.821C342.592 301.287 342.995 300.645 343.29 299.895C343.592 299.145 343.742 298.301 343.742 297.364H345.685C345.685 298.523 345.552 299.469 345.285 300.202C345.018 300.935 344.717 301.509 344.381 301.923C344.046 302.338 343.776 302.648 343.572 302.852C343.504 302.937 343.441 303.023 343.384 303.108C343.327 303.193 343.265 303.278 343.197 303.364C342.634 303.994 341.924 304.466 341.066 304.778C340.208 305.085 339.362 305.239 338.526 305.239ZM355.957 305V287.545H358.071V295.318H367.378V287.545H369.491V305H367.378V297.193H358.071V305H355.957ZM377.303 305.307C376.473 305.307 375.72 305.151 375.044 304.838C374.368 304.52 373.831 304.062 373.433 303.466C373.036 302.864 372.837 302.136 372.837 301.284C372.837 300.534 372.984 299.926 373.28 299.46C373.575 298.989 373.97 298.619 374.464 298.352C374.959 298.085 375.504 297.886 376.101 297.756C376.703 297.619 377.308 297.511 377.916 297.432C378.712 297.33 379.357 297.253 379.851 297.202C380.351 297.145 380.714 297.051 380.942 296.92C381.175 296.79 381.291 296.562 381.291 296.239V296.17C381.291 295.33 381.061 294.676 380.601 294.21C380.146 293.744 379.456 293.511 378.53 293.511C377.57 293.511 376.817 293.722 376.271 294.142C375.726 294.562 375.342 295.011 375.121 295.489L373.212 294.807C373.553 294.011 374.007 293.392 374.575 292.949C375.149 292.5 375.774 292.187 376.45 292.011C377.132 291.83 377.803 291.739 378.462 291.739C378.882 291.739 379.365 291.79 379.911 291.892C380.462 291.989 380.993 292.19 381.504 292.497C382.021 292.804 382.45 293.267 382.791 293.886C383.132 294.506 383.303 295.335 383.303 296.375V305H381.291V303.227H381.189C381.053 303.511 380.825 303.815 380.507 304.139C380.189 304.463 379.766 304.739 379.237 304.966C378.709 305.193 378.064 305.307 377.303 305.307ZM377.609 303.5C378.405 303.5 379.075 303.344 379.621 303.031C380.172 302.719 380.587 302.315 380.865 301.821C381.149 301.327 381.291 300.807 381.291 300.261V298.42C381.206 298.523 381.018 298.616 380.729 298.702C380.445 298.781 380.115 298.852 379.74 298.915C379.371 298.972 379.01 299.023 378.658 299.068C378.311 299.108 378.03 299.142 377.814 299.17C377.291 299.239 376.803 299.349 376.348 299.503C375.899 299.651 375.536 299.875 375.257 300.176C374.984 300.472 374.848 300.875 374.848 301.386C374.848 302.085 375.107 302.614 375.624 302.972C376.146 303.324 376.808 303.5 377.609 303.5ZM386.974 305V291.909H388.917V293.886H389.053C389.292 293.239 389.724 292.713 390.349 292.31C390.974 291.906 391.678 291.705 392.462 291.705C392.61 291.705 392.795 291.707 393.016 291.713C393.238 291.719 393.406 291.727 393.519 291.739V293.784C393.451 293.767 393.295 293.741 393.05 293.707C392.812 293.668 392.559 293.648 392.292 293.648C391.656 293.648 391.087 293.781 390.587 294.048C390.093 294.31 389.701 294.673 389.411 295.139C389.127 295.599 388.985 296.125 388.985 296.716V305H386.974ZM400.448 305.273C399.357 305.273 398.394 304.997 397.559 304.446C396.724 303.889 396.07 303.105 395.599 302.094C395.127 301.077 394.891 299.875 394.891 298.489C394.891 297.114 395.127 295.92 395.599 294.909C396.07 293.898 396.727 293.116 397.567 292.565C398.408 292.014 399.38 291.739 400.482 291.739C401.335 291.739 402.008 291.881 402.502 292.165C403.002 292.443 403.383 292.761 403.644 293.119C403.911 293.472 404.119 293.761 404.266 293.989H404.437V287.545H406.448V305H404.505V302.989H404.266C404.119 303.227 403.908 303.528 403.636 303.892C403.363 304.25 402.974 304.571 402.468 304.855C401.962 305.134 401.289 305.273 400.448 305.273ZM400.721 303.466C401.528 303.466 402.21 303.256 402.766 302.835C403.323 302.409 403.746 301.821 404.036 301.071C404.326 300.315 404.471 299.443 404.471 298.455C404.471 297.477 404.329 296.622 404.045 295.889C403.761 295.151 403.34 294.577 402.783 294.168C402.227 293.753 401.539 293.545 400.721 293.545C399.869 293.545 399.158 293.764 398.59 294.202C398.028 294.634 397.604 295.222 397.32 295.966C397.042 296.705 396.903 297.534 396.903 298.455C396.903 299.386 397.045 300.233 397.329 300.994C397.619 301.75 398.045 302.352 398.607 302.801C399.175 303.244 399.88 303.466 400.721 303.466ZM422.82 305H417.434V287.545H423.059C424.752 287.545 426.201 287.895 427.406 288.594C428.61 289.287 429.533 290.284 430.175 291.585C430.817 292.881 431.138 294.432 431.138 296.239C431.138 298.057 430.815 299.622 430.167 300.935C429.519 302.241 428.576 303.247 427.337 303.952C426.099 304.651 424.593 305 422.82 305ZM419.548 303.125H422.684C424.127 303.125 425.323 302.847 426.272 302.29C427.221 301.733 427.928 300.94 428.394 299.912C428.86 298.884 429.093 297.659 429.093 296.239C429.093 294.83 428.863 293.616 428.403 292.599C427.942 291.577 427.255 290.793 426.34 290.247C425.425 289.696 424.286 289.42 422.923 289.42H419.548V303.125ZM434.411 305V291.909H436.354V293.886H436.491C436.729 293.239 437.161 292.713 437.786 292.31C438.411 291.906 439.116 291.705 439.9 291.705C440.048 291.705 440.232 291.707 440.454 291.713C440.675 291.719 440.843 291.727 440.957 291.739V293.784C440.888 293.767 440.732 293.741 440.488 293.707C440.249 293.668 439.996 293.648 439.729 293.648C439.093 293.648 438.525 293.781 438.025 294.048C437.531 294.31 437.138 294.673 436.849 295.139C436.565 295.599 436.423 296.125 436.423 296.716V305H434.411ZM443.341 305V291.909H445.352V305H443.341ZM444.364 289.727C443.972 289.727 443.634 289.594 443.349 289.327C443.071 289.06 442.932 288.739 442.932 288.364C442.932 287.989 443.071 287.668 443.349 287.401C443.634 287.134 443.972 287 444.364 287C444.756 287 445.091 287.134 445.369 287.401C445.653 287.668 445.795 287.989 445.795 288.364C445.795 288.739 445.653 289.06 445.369 289.327C445.091 289.594 444.756 289.727 444.364 289.727ZM459.741 291.909L454.9 305H452.854L448.013 291.909H450.195L453.809 302.341H453.945L457.559 291.909H459.741ZM467.415 305.273C466.154 305.273 465.066 304.994 464.151 304.438C463.242 303.875 462.54 303.091 462.046 302.085C461.558 301.074 461.313 299.898 461.313 298.557C461.313 297.216 461.558 296.034 462.046 295.011C462.54 293.983 463.228 293.182 464.109 292.608C464.995 292.028 466.029 291.739 467.211 291.739C467.893 291.739 468.566 291.852 469.231 292.08C469.896 292.307 470.501 292.676 471.046 293.188C471.592 293.693 472.026 294.364 472.35 295.199C472.674 296.034 472.836 297.062 472.836 298.284V299.136H462.745V297.398H470.79C470.79 296.659 470.643 296 470.347 295.42C470.058 294.841 469.643 294.384 469.103 294.048C468.569 293.713 467.938 293.545 467.211 293.545C466.41 293.545 465.717 293.744 465.131 294.142C464.552 294.534 464.106 295.045 463.793 295.676C463.481 296.307 463.325 296.983 463.325 297.705V298.864C463.325 299.852 463.495 300.69 463.836 301.378C464.183 302.06 464.663 302.58 465.276 302.938C465.89 303.29 466.603 303.466 467.415 303.466C467.944 303.466 468.421 303.392 468.847 303.244C469.279 303.091 469.651 302.864 469.964 302.562C470.276 302.256 470.518 301.875 470.688 301.42L472.631 301.966C472.427 302.625 472.083 303.205 471.6 303.705C471.117 304.199 470.521 304.585 469.81 304.864C469.1 305.136 468.302 305.273 467.415 305.273ZM480.191 297.636C480.191 299.784 479.91 301.761 479.347 303.568C478.79 305.369 477.992 307.028 476.952 308.545H475.18C475.589 307.983 475.969 307.29 476.322 306.466C476.68 305.648 476.992 304.75 477.259 303.773C477.526 302.79 477.734 301.776 477.881 300.73C478.035 299.679 478.112 298.648 478.112 297.636C478.112 296.284 477.981 294.912 477.719 293.52C477.458 292.128 477.106 290.835 476.663 289.642C476.219 288.449 475.725 287.477 475.18 286.727H476.952C477.992 288.244 478.79 289.906 479.347 291.713C479.91 293.514 480.191 295.489 480.191 297.636Z" fill="white"/>
<path d="M202.114 373V355.545H208.011C209.381 355.545 210.5 355.793 211.369 356.287C212.244 356.776 212.892 357.438 213.312 358.273C213.733 359.108 213.943 360.04 213.943 361.068C213.943 362.097 213.733 363.031 213.312 363.872C212.898 364.713 212.256 365.384 211.386 365.884C210.517 366.378 209.403 366.625 208.045 366.625H203.818V364.75H207.977C208.915 364.75 209.668 364.588 210.236 364.264C210.804 363.94 211.216 363.503 211.472 362.952C211.733 362.395 211.864 361.767 211.864 361.068C211.864 360.369 211.733 359.744 211.472 359.193C211.216 358.642 210.801 358.21 210.227 357.898C209.653 357.58 208.892 357.42 207.943 357.42H204.227V373H202.114ZM222.253 373.273C221.071 373.273 220.034 372.991 219.142 372.429C218.256 371.866 217.562 371.08 217.062 370.068C216.568 369.057 216.321 367.875 216.321 366.523C216.321 365.159 216.568 363.969 217.062 362.952C217.562 361.935 218.256 361.145 219.142 360.582C220.034 360.02 221.071 359.739 222.253 359.739C223.435 359.739 224.469 360.02 225.355 360.582C226.247 361.145 226.94 361.935 227.435 362.952C227.935 363.969 228.185 365.159 228.185 366.523C228.185 367.875 227.935 369.057 227.435 370.068C226.94 371.08 226.247 371.866 225.355 372.429C224.469 372.991 223.435 373.273 222.253 373.273ZM222.253 371.466C223.151 371.466 223.889 371.236 224.469 370.776C225.048 370.315 225.477 369.71 225.756 368.96C226.034 368.21 226.173 367.398 226.173 366.523C226.173 365.648 226.034 364.832 225.756 364.077C225.477 363.321 225.048 362.71 224.469 362.244C223.889 361.778 223.151 361.545 222.253 361.545C221.355 361.545 220.616 361.778 220.037 362.244C219.457 362.71 219.028 363.321 218.75 364.077C218.472 364.832 218.332 365.648 218.332 366.523C218.332 367.398 218.472 368.21 218.75 368.96C219.028 369.71 219.457 370.315 220.037 370.776C220.616 371.236 221.355 371.466 222.253 371.466ZM236.198 373.273C235.107 373.273 234.144 372.997 233.309 372.446C232.474 371.889 231.82 371.105 231.349 370.094C230.877 369.077 230.641 367.875 230.641 366.489C230.641 365.114 230.877 363.92 231.349 362.909C231.82 361.898 232.477 361.116 233.317 360.565C234.158 360.014 235.13 359.739 236.232 359.739C237.085 359.739 237.758 359.881 238.252 360.165C238.752 360.443 239.133 360.761 239.394 361.119C239.661 361.472 239.869 361.761 240.016 361.989H240.187V355.545H242.198V373H240.255V370.989H240.016C239.869 371.227 239.658 371.528 239.386 371.892C239.113 372.25 238.724 372.571 238.218 372.855C237.712 373.134 237.039 373.273 236.198 373.273ZM236.471 371.466C237.278 371.466 237.96 371.256 238.516 370.835C239.073 370.409 239.496 369.821 239.786 369.071C240.076 368.315 240.221 367.443 240.221 366.455C240.221 365.477 240.079 364.622 239.795 363.889C239.511 363.151 239.09 362.577 238.533 362.168C237.977 361.753 237.289 361.545 236.471 361.545C235.619 361.545 234.908 361.764 234.34 362.202C233.778 362.634 233.354 363.222 233.07 363.966C232.792 364.705 232.653 365.534 232.653 366.455C232.653 367.386 232.795 368.233 233.079 368.994C233.369 369.75 233.795 370.352 234.357 370.801C234.925 371.244 235.63 371.466 236.471 371.466ZM251.479 373.273C250.252 373.273 249.195 372.983 248.309 372.403C247.423 371.824 246.741 371.026 246.263 370.009C245.786 368.991 245.548 367.83 245.548 366.523C245.548 365.193 245.792 364.02 246.281 363.003C246.775 361.98 247.462 361.182 248.343 360.608C249.229 360.028 250.263 359.739 251.445 359.739C252.366 359.739 253.195 359.909 253.934 360.25C254.673 360.591 255.278 361.068 255.749 361.682C256.221 362.295 256.513 363.011 256.627 363.83H254.616C254.462 363.233 254.121 362.705 253.593 362.244C253.07 361.778 252.366 361.545 251.479 361.545C250.695 361.545 250.008 361.75 249.417 362.159C248.832 362.562 248.374 363.134 248.045 363.872C247.721 364.605 247.559 365.466 247.559 366.455C247.559 367.466 247.718 368.347 248.036 369.097C248.36 369.847 248.815 370.429 249.4 370.844C249.991 371.259 250.684 371.466 251.479 371.466C252.002 371.466 252.477 371.375 252.903 371.193C253.329 371.011 253.69 370.75 253.985 370.409C254.281 370.068 254.491 369.659 254.616 369.182H256.627C256.513 369.955 256.232 370.651 255.783 371.27C255.34 371.884 254.752 372.372 254.019 372.736C253.292 373.094 252.445 373.273 251.479 373.273ZM263.42 373.307C262.59 373.307 261.837 373.151 261.161 372.838C260.485 372.52 259.948 372.062 259.55 371.466C259.153 370.864 258.954 370.136 258.954 369.284C258.954 368.534 259.102 367.926 259.397 367.46C259.692 366.989 260.087 366.619 260.582 366.352C261.076 366.085 261.621 365.886 262.218 365.756C262.82 365.619 263.425 365.511 264.033 365.432C264.829 365.33 265.474 365.253 265.968 365.202C266.468 365.145 266.832 365.051 267.059 364.92C267.292 364.79 267.408 364.562 267.408 364.239V364.17C267.408 363.33 267.178 362.676 266.718 362.21C266.263 361.744 265.573 361.511 264.647 361.511C263.687 361.511 262.934 361.722 262.388 362.142C261.843 362.562 261.46 363.011 261.238 363.489L259.329 362.807C259.67 362.011 260.124 361.392 260.692 360.949C261.266 360.5 261.891 360.187 262.567 360.011C263.249 359.83 263.92 359.739 264.579 359.739C264.999 359.739 265.482 359.79 266.028 359.892C266.579 359.989 267.11 360.19 267.621 360.497C268.138 360.804 268.567 361.267 268.908 361.886C269.249 362.506 269.42 363.335 269.42 364.375V373H267.408V371.227H267.306C267.17 371.511 266.942 371.815 266.624 372.139C266.306 372.463 265.883 372.739 265.354 372.966C264.826 373.193 264.181 373.307 263.42 373.307ZM263.727 371.5C264.522 371.5 265.192 371.344 265.738 371.031C266.289 370.719 266.704 370.315 266.982 369.821C267.266 369.327 267.408 368.807 267.408 368.261V366.42C267.323 366.523 267.136 366.616 266.846 366.702C266.562 366.781 266.232 366.852 265.857 366.915C265.488 366.972 265.127 367.023 264.775 367.068C264.428 367.108 264.147 367.142 263.931 367.17C263.408 367.239 262.92 367.349 262.465 367.503C262.016 367.651 261.653 367.875 261.374 368.176C261.102 368.472 260.965 368.875 260.965 369.386C260.965 370.085 261.224 370.614 261.741 370.972C262.263 371.324 262.925 371.5 263.727 371.5ZM282.364 362.841L280.557 363.352C280.443 363.051 280.276 362.759 280.054 362.474C279.838 362.185 279.543 361.946 279.168 361.759C278.793 361.571 278.312 361.477 277.727 361.477C276.926 361.477 276.259 361.662 275.724 362.031C275.196 362.395 274.932 362.858 274.932 363.42C274.932 363.92 275.114 364.315 275.477 364.605C275.841 364.895 276.409 365.136 277.182 365.33L279.125 365.807C280.295 366.091 281.168 366.526 281.741 367.111C282.315 367.69 282.602 368.437 282.602 369.352C282.602 370.102 282.386 370.773 281.955 371.364C281.528 371.955 280.932 372.42 280.165 372.761C279.398 373.102 278.506 373.273 277.489 373.273C276.153 373.273 275.048 372.983 274.173 372.403C273.298 371.824 272.744 370.977 272.511 369.864L274.42 369.386C274.602 370.091 274.946 370.619 275.452 370.972C275.963 371.324 276.631 371.5 277.455 371.5C278.392 371.5 279.136 371.301 279.688 370.903C280.244 370.5 280.523 370.017 280.523 369.455C280.523 369 280.364 368.619 280.045 368.312C279.727 368 279.239 367.767 278.58 367.614L276.398 367.102C275.199 366.818 274.318 366.378 273.756 365.781C273.199 365.179 272.92 364.426 272.92 363.523C272.92 362.784 273.128 362.131 273.543 361.562C273.963 360.994 274.534 360.548 275.256 360.224C275.983 359.901 276.807 359.739 277.727 359.739C279.023 359.739 280.04 360.023 280.778 360.591C281.523 361.159 282.051 361.909 282.364 362.841ZM291.323 359.909V361.614H284.539V359.909H291.323ZM286.516 356.773H288.528V369.25C288.528 369.818 288.61 370.244 288.775 370.528C288.945 370.807 289.161 370.994 289.423 371.091C289.69 371.182 289.971 371.227 290.266 371.227C290.488 371.227 290.67 371.216 290.812 371.193C290.954 371.165 291.067 371.142 291.153 371.125L291.562 372.932C291.425 372.983 291.235 373.034 290.991 373.085C290.746 373.142 290.437 373.17 290.062 373.17C289.494 373.17 288.937 373.048 288.391 372.804C287.852 372.56 287.403 372.188 287.045 371.688C286.692 371.188 286.516 370.557 286.516 369.795V356.773ZM303.387 362.841L301.58 363.352C301.467 363.051 301.299 362.759 301.077 362.474C300.862 362.185 300.566 361.946 300.191 361.759C299.816 361.571 299.336 361.477 298.751 361.477C297.95 361.477 297.282 361.662 296.748 362.031C296.219 362.395 295.955 362.858 295.955 363.42C295.955 363.92 296.137 364.315 296.501 364.605C296.864 364.895 297.433 365.136 298.205 365.33L300.148 365.807C301.319 366.091 302.191 366.526 302.765 367.111C303.339 367.69 303.626 368.437 303.626 369.352C303.626 370.102 303.41 370.773 302.978 371.364C302.552 371.955 301.955 372.42 301.188 372.761C300.421 373.102 299.529 373.273 298.512 373.273C297.177 373.273 296.072 372.983 295.197 372.403C294.322 371.824 293.768 370.977 293.535 369.864L295.444 369.386C295.626 370.091 295.969 370.619 296.475 370.972C296.987 371.324 297.654 371.5 298.478 371.5C299.415 371.5 300.16 371.301 300.711 370.903C301.268 370.5 301.546 370.017 301.546 369.455C301.546 369 301.387 368.619 301.069 368.312C300.751 368 300.262 367.767 299.603 367.614L297.421 367.102C296.222 366.818 295.342 366.378 294.779 365.781C294.222 365.179 293.944 364.426 293.944 363.523C293.944 362.784 294.151 362.131 294.566 361.562C294.987 360.994 295.558 360.548 296.279 360.224C297.006 359.901 297.83 359.739 298.751 359.739C300.046 359.739 301.063 360.023 301.802 360.591C302.546 361.159 303.075 361.909 303.387 362.841Z" fill="white"/>
<path d="M204.227 419.545V437H202.114V419.545H204.227ZM208.192 437V423.909H210.136V425.955H210.306C210.579 425.256 211.019 424.713 211.627 424.327C212.235 423.935 212.965 423.739 213.817 423.739C214.681 423.739 215.4 423.935 215.974 424.327C216.553 424.713 217.005 425.256 217.329 425.955H217.465C217.8 425.278 218.303 424.741 218.974 424.344C219.644 423.94 220.448 423.739 221.386 423.739C222.556 423.739 223.513 424.105 224.258 424.838C225.002 425.565 225.374 426.699 225.374 428.239V437H223.363V428.239C223.363 427.273 223.099 426.582 222.57 426.168C222.042 425.753 221.42 425.545 220.704 425.545C219.783 425.545 219.07 425.824 218.565 426.381C218.059 426.932 217.806 427.631 217.806 428.477V437H215.761V428.034C215.761 427.29 215.519 426.69 215.036 426.236C214.553 425.776 213.931 425.545 213.17 425.545C212.647 425.545 212.158 425.685 211.704 425.963C211.255 426.241 210.891 426.628 210.613 427.122C210.34 427.611 210.204 428.176 210.204 428.818V437H208.192ZM232.904 437.307C232.075 437.307 231.322 437.151 230.646 436.838C229.969 436.52 229.433 436.062 229.035 435.466C228.637 434.864 228.438 434.136 228.438 433.284C228.438 432.534 228.586 431.926 228.881 431.46C229.177 430.989 229.572 430.619 230.066 430.352C230.56 430.085 231.106 429.886 231.702 429.756C232.305 429.619 232.91 429.511 233.518 429.432C234.313 429.33 234.958 429.253 235.452 429.202C235.952 429.145 236.316 429.051 236.543 428.92C236.776 428.79 236.893 428.562 236.893 428.239V428.17C236.893 427.33 236.663 426.676 236.202 426.21C235.748 425.744 235.058 425.511 234.131 425.511C233.171 425.511 232.418 425.722 231.873 426.142C231.327 426.562 230.944 427.011 230.722 427.489L228.813 426.807C229.154 426.011 229.609 425.392 230.177 424.949C230.751 424.5 231.376 424.187 232.052 424.011C232.734 423.83 233.404 423.739 234.063 423.739C234.484 423.739 234.967 423.79 235.512 423.892C236.063 423.989 236.594 424.19 237.106 424.497C237.623 424.804 238.052 425.267 238.393 425.886C238.734 426.506 238.904 427.335 238.904 428.375V437H236.893V435.227H236.79C236.654 435.511 236.427 435.815 236.109 436.139C235.79 436.463 235.367 436.739 234.839 436.966C234.31 437.193 233.665 437.307 232.904 437.307ZM233.211 435.5C234.006 435.5 234.677 435.344 235.222 435.031C235.773 434.719 236.188 434.315 236.467 433.821C236.751 433.327 236.893 432.807 236.893 432.261V430.42C236.808 430.523 236.62 430.616 236.33 430.702C236.046 430.781 235.717 430.852 235.342 430.915C234.972 430.972 234.612 431.023 234.259 431.068C233.913 431.108 233.631 431.142 233.415 431.17C232.893 431.239 232.404 431.349 231.95 431.503C231.501 431.651 231.137 431.875 230.859 432.176C230.586 432.472 230.45 432.875 230.45 433.386C230.45 434.085 230.708 434.614 231.225 434.972C231.748 435.324 232.41 435.5 233.211 435.5ZM247.859 442.182C246.888 442.182 246.053 442.057 245.354 441.807C244.655 441.562 244.072 441.239 243.607 440.835C243.146 440.438 242.78 440.011 242.507 439.557L244.109 438.432C244.291 438.67 244.521 438.943 244.8 439.25C245.078 439.562 245.459 439.832 245.942 440.06C246.43 440.293 247.07 440.409 247.859 440.409C248.916 440.409 249.788 440.153 250.476 439.642C251.163 439.131 251.507 438.33 251.507 437.239V434.58H251.337C251.189 434.818 250.979 435.114 250.706 435.466C250.439 435.812 250.053 436.122 249.547 436.395C249.047 436.662 248.371 436.795 247.518 436.795C246.462 436.795 245.513 436.545 244.672 436.045C243.837 435.545 243.175 434.818 242.686 433.864C242.203 432.909 241.962 431.75 241.962 430.386C241.962 429.045 242.197 427.878 242.669 426.884C243.141 425.884 243.797 425.111 244.638 424.565C245.479 424.014 246.45 423.739 247.553 423.739C248.405 423.739 249.081 423.881 249.581 424.165C250.087 424.443 250.473 424.761 250.74 425.119C251.013 425.472 251.223 425.761 251.371 425.989H251.575V423.909H253.518V437.375C253.518 438.5 253.263 439.415 252.751 440.119C252.246 440.83 251.564 441.349 250.706 441.679C249.854 442.014 248.905 442.182 247.859 442.182ZM247.791 434.989C248.598 434.989 249.28 434.804 249.837 434.435C250.393 434.065 250.817 433.534 251.107 432.841C251.396 432.148 251.541 431.318 251.541 430.352C251.541 429.409 251.399 428.577 251.115 427.855C250.831 427.134 250.411 426.568 249.854 426.159C249.297 425.75 248.609 425.545 247.791 425.545C246.939 425.545 246.229 425.761 245.661 426.193C245.098 426.625 244.675 427.205 244.391 427.932C244.112 428.659 243.973 429.466 243.973 430.352C243.973 431.261 244.115 432.065 244.399 432.764C244.689 433.457 245.115 434.003 245.678 434.401C246.246 434.793 246.95 434.989 247.791 434.989ZM262.689 437.273C261.428 437.273 260.339 436.994 259.425 436.438C258.516 435.875 257.814 435.091 257.32 434.085C256.831 433.074 256.587 431.898 256.587 430.557C256.587 429.216 256.831 428.034 257.32 427.011C257.814 425.983 258.501 425.182 259.382 424.608C260.268 424.028 261.303 423.739 262.484 423.739C263.166 423.739 263.839 423.852 264.504 424.08C265.169 424.307 265.774 424.676 266.32 425.188C266.865 425.693 267.3 426.364 267.624 427.199C267.947 428.034 268.109 429.062 268.109 430.284V431.136H258.018V429.398H266.064C266.064 428.659 265.916 428 265.621 427.42C265.331 426.841 264.916 426.384 264.376 426.048C263.842 425.713 263.212 425.545 262.484 425.545C261.683 425.545 260.99 425.744 260.405 426.142C259.825 426.534 259.379 427.045 259.067 427.676C258.754 428.307 258.598 428.983 258.598 429.705V430.864C258.598 431.852 258.768 432.69 259.109 433.378C259.456 434.06 259.936 434.58 260.55 434.938C261.163 435.29 261.876 435.466 262.689 435.466C263.217 435.466 263.695 435.392 264.121 435.244C264.553 435.091 264.925 434.864 265.237 434.562C265.55 434.256 265.791 433.875 265.962 433.42L267.905 433.966C267.7 434.625 267.357 435.205 266.874 435.705C266.391 436.199 265.794 436.585 265.084 436.864C264.374 437.136 263.575 437.273 262.689 437.273ZM280.442 426.841L278.635 427.352C278.521 427.051 278.354 426.759 278.132 426.474C277.916 426.185 277.621 425.946 277.246 425.759C276.871 425.571 276.391 425.477 275.805 425.477C275.004 425.477 274.337 425.662 273.803 426.031C273.274 426.395 273.01 426.858 273.01 427.42C273.01 427.92 273.192 428.315 273.555 428.605C273.919 428.895 274.487 429.136 275.26 429.33L277.203 429.807C278.374 430.091 279.246 430.526 279.82 431.111C280.393 431.69 280.68 432.437 280.68 433.352C280.68 434.102 280.464 434.773 280.033 435.364C279.607 435.955 279.01 436.42 278.243 436.761C277.476 437.102 276.584 437.273 275.567 437.273C274.232 437.273 273.126 436.983 272.251 436.403C271.376 435.824 270.822 434.977 270.589 433.864L272.499 433.386C272.68 434.091 273.024 434.619 273.53 434.972C274.041 435.324 274.709 435.5 275.533 435.5C276.47 435.5 277.214 435.301 277.766 434.903C278.322 434.5 278.601 434.017 278.601 433.455C278.601 433 278.442 432.619 278.124 432.312C277.805 432 277.317 431.767 276.658 431.614L274.476 431.102C273.277 430.818 272.396 430.378 271.834 429.781C271.277 429.179 270.999 428.426 270.999 427.523C270.999 426.784 271.206 426.131 271.621 425.562C272.041 424.994 272.612 424.548 273.334 424.224C274.061 423.901 274.885 423.739 275.805 423.739C277.101 423.739 278.118 424.023 278.857 424.591C279.601 425.159 280.129 425.909 280.442 426.841Z" fill="white"/>
<path d="M305.909 434.17C305.015 434.17 304.246 433.981 303.602 433.602C302.962 433.22 302.47 432.689 302.125 432.011C301.784 431.333 301.614 430.553 301.614 429.67C301.614 428.777 301.786 427.992 302.131 427.318C302.479 426.64 302.973 426.112 303.614 425.733C304.254 425.35 305.015 425.159 305.898 425.159C306.659 425.159 307.326 425.297 307.898 425.574C308.47 425.85 308.922 426.239 309.256 426.739C309.589 427.239 309.773 427.826 309.807 428.5H307.523C307.458 428.064 307.288 427.714 307.011 427.449C306.739 427.18 306.381 427.045 305.938 427.045C305.562 427.045 305.235 427.148 304.955 427.352C304.678 427.553 304.462 427.847 304.307 428.233C304.152 428.619 304.074 429.087 304.074 429.636C304.074 430.193 304.15 430.667 304.301 431.057C304.456 431.447 304.674 431.744 304.955 431.949C305.235 432.153 305.562 432.256 305.938 432.256C306.214 432.256 306.462 432.199 306.682 432.085C306.905 431.972 307.089 431.807 307.233 431.591C307.381 431.371 307.477 431.108 307.523 430.801H309.807C309.769 431.468 309.587 432.055 309.261 432.562C308.939 433.066 308.494 433.46 307.926 433.744C307.358 434.028 306.686 434.17 305.909 434.17ZM315.3 434.17C314.417 434.17 313.654 433.983 313.01 433.608C312.37 433.229 311.875 432.703 311.527 432.028C311.179 431.35 311.004 430.564 311.004 429.67C311.004 428.769 311.179 427.981 311.527 427.307C311.875 426.629 312.37 426.102 313.01 425.727C313.654 425.348 314.417 425.159 315.3 425.159C316.182 425.159 316.944 425.348 317.584 425.727C318.228 426.102 318.724 426.629 319.072 427.307C319.421 427.981 319.595 428.769 319.595 429.67C319.595 430.564 319.421 431.35 319.072 432.028C318.724 432.703 318.228 433.229 317.584 433.608C316.944 433.983 316.182 434.17 315.3 434.17ZM315.311 432.295C315.713 432.295 316.048 432.182 316.317 431.955C316.586 431.723 316.788 431.409 316.925 431.011C317.065 430.614 317.135 430.161 317.135 429.653C317.135 429.146 317.065 428.693 316.925 428.295C316.788 427.898 316.586 427.583 316.317 427.352C316.048 427.121 315.713 427.006 315.311 427.006C314.906 427.006 314.565 427.121 314.288 427.352C314.016 427.583 313.809 427.898 313.669 428.295C313.533 428.693 313.464 429.146 313.464 429.653C313.464 430.161 313.533 430.614 313.669 431.011C313.809 431.409 314.016 431.723 314.288 431.955C314.565 432.182 314.906 432.295 315.311 432.295ZM321.169 434V425.273H323.476V426.812H323.578C323.76 426.301 324.063 425.898 324.487 425.602C324.911 425.307 325.419 425.159 326.01 425.159C326.608 425.159 327.118 425.309 327.538 425.608C327.959 425.903 328.239 426.305 328.379 426.812H328.47C328.648 426.312 328.97 425.913 329.436 425.614C329.906 425.311 330.461 425.159 331.101 425.159C331.915 425.159 332.576 425.419 333.084 425.938C333.595 426.453 333.851 427.184 333.851 428.131V434H331.436V428.608C331.436 428.123 331.307 427.759 331.05 427.517C330.792 427.275 330.47 427.153 330.084 427.153C329.644 427.153 329.302 427.294 329.055 427.574C328.809 427.85 328.686 428.216 328.686 428.67V434H326.339V428.557C326.339 428.129 326.216 427.788 325.97 427.534C325.728 427.28 325.408 427.153 325.01 427.153C324.741 427.153 324.499 427.222 324.283 427.358C324.071 427.491 323.902 427.678 323.777 427.92C323.652 428.159 323.589 428.439 323.589 428.761V434H321.169ZM335.763 434V425.273H338.183V434H335.763ZM336.979 424.148C336.619 424.148 336.31 424.028 336.053 423.79C335.799 423.547 335.672 423.258 335.672 422.92C335.672 422.587 335.799 422.301 336.053 422.062C336.31 421.82 336.619 421.699 336.979 421.699C337.339 421.699 337.645 421.82 337.899 422.062C338.157 422.301 338.286 422.587 338.286 422.92C338.286 423.258 338.157 423.547 337.899 423.79C337.645 424.028 337.339 424.148 336.979 424.148ZM342.543 428.955V434H340.122V425.273H342.429V426.812H342.531C342.724 426.305 343.048 425.903 343.503 425.608C343.957 425.309 344.509 425.159 345.156 425.159C345.762 425.159 346.291 425.292 346.741 425.557C347.192 425.822 347.543 426.201 347.793 426.693C348.043 427.182 348.168 427.765 348.168 428.443V434H345.747V428.875C345.751 428.341 345.615 427.924 345.338 427.625C345.062 427.322 344.681 427.17 344.196 427.17C343.87 427.17 343.582 427.241 343.332 427.381C343.086 427.521 342.893 427.725 342.753 427.994C342.616 428.259 342.546 428.58 342.543 428.955ZM354.007 437.455C353.223 437.455 352.551 437.347 351.99 437.131C351.433 436.919 350.99 436.629 350.661 436.261C350.331 435.894 350.117 435.481 350.018 435.023L352.257 434.722C352.325 434.896 352.433 435.059 352.581 435.21C352.729 435.362 352.924 435.483 353.166 435.574C353.412 435.669 353.712 435.716 354.064 435.716C354.59 435.716 355.024 435.587 355.365 435.33C355.71 435.076 355.882 434.65 355.882 434.051V432.455H355.78C355.674 432.697 355.515 432.926 355.303 433.142C355.09 433.358 354.818 433.534 354.484 433.67C354.151 433.807 353.753 433.875 353.291 433.875C352.636 433.875 352.039 433.723 351.501 433.42C350.967 433.114 350.541 432.646 350.223 432.017C349.909 431.384 349.751 430.585 349.751 429.619C349.751 428.631 349.912 427.805 350.234 427.142C350.556 426.479 350.984 425.983 351.518 425.653C352.056 425.324 352.645 425.159 353.286 425.159C353.774 425.159 354.183 425.242 354.513 425.409C354.842 425.572 355.107 425.777 355.308 426.023C355.513 426.265 355.67 426.504 355.78 426.739H355.871V425.273H358.274V434.085C358.274 434.828 358.092 435.449 357.729 435.949C357.365 436.449 356.861 436.824 356.217 437.074C355.577 437.328 354.84 437.455 354.007 437.455ZM354.058 432.057C354.448 432.057 354.778 431.96 355.047 431.767C355.32 431.57 355.528 431.29 355.672 430.926C355.82 430.559 355.893 430.119 355.893 429.608C355.893 429.097 355.821 428.653 355.678 428.278C355.534 427.9 355.325 427.606 355.053 427.398C354.78 427.189 354.448 427.085 354.058 427.085C353.661 427.085 353.325 427.193 353.053 427.409C352.78 427.621 352.573 427.917 352.433 428.295C352.293 428.674 352.223 429.112 352.223 429.608C352.223 430.112 352.293 430.547 352.433 430.915C352.577 431.278 352.784 431.561 353.053 431.761C353.325 431.958 353.661 432.057 354.058 432.057ZM371.165 427.761L368.949 427.898C368.911 427.708 368.83 427.538 368.705 427.386C368.58 427.231 368.415 427.108 368.21 427.017C368.009 426.922 367.769 426.875 367.489 426.875C367.114 426.875 366.797 426.955 366.54 427.114C366.282 427.269 366.153 427.477 366.153 427.739C366.153 427.947 366.237 428.123 366.403 428.267C366.57 428.411 366.856 428.527 367.261 428.614L368.841 428.932C369.689 429.106 370.322 429.386 370.739 429.773C371.155 430.159 371.364 430.667 371.364 431.295C371.364 431.867 371.195 432.369 370.858 432.801C370.525 433.233 370.066 433.57 369.483 433.812C368.903 434.051 368.235 434.17 367.477 434.17C366.322 434.17 365.402 433.93 364.716 433.449C364.034 432.964 363.634 432.305 363.517 431.472L365.898 431.347C365.97 431.699 366.144 431.968 366.42 432.153C366.697 432.335 367.051 432.426 367.483 432.426C367.907 432.426 368.248 432.345 368.506 432.182C368.767 432.015 368.9 431.801 368.903 431.54C368.9 431.32 368.807 431.14 368.625 431C368.443 430.856 368.163 430.746 367.784 430.67L366.273 430.369C365.42 430.199 364.786 429.903 364.369 429.483C363.956 429.062 363.75 428.527 363.75 427.875C363.75 427.314 363.902 426.831 364.205 426.426C364.511 426.021 364.941 425.708 365.494 425.489C366.051 425.269 366.703 425.159 367.449 425.159C368.551 425.159 369.419 425.392 370.051 425.858C370.688 426.324 371.059 426.958 371.165 427.761ZM376.831 434.17C375.948 434.17 375.185 433.983 374.541 433.608C373.901 433.229 373.407 432.703 373.058 432.028C372.71 431.35 372.536 430.564 372.536 429.67C372.536 428.769 372.71 427.981 373.058 427.307C373.407 426.629 373.901 426.102 374.541 425.727C375.185 425.348 375.948 425.159 376.831 425.159C377.714 425.159 378.475 425.348 379.115 425.727C379.759 426.102 380.255 426.629 380.604 427.307C380.952 427.981 381.126 428.769 381.126 429.67C381.126 430.564 380.952 431.35 380.604 432.028C380.255 432.703 379.759 433.229 379.115 433.608C378.475 433.983 377.714 434.17 376.831 434.17ZM376.842 432.295C377.244 432.295 377.579 432.182 377.848 431.955C378.117 431.723 378.32 431.409 378.456 431.011C378.596 430.614 378.666 430.161 378.666 429.653C378.666 429.146 378.596 428.693 378.456 428.295C378.32 427.898 378.117 427.583 377.848 427.352C377.579 427.121 377.244 427.006 376.842 427.006C376.437 427.006 376.096 427.121 375.82 427.352C375.547 427.583 375.34 427.898 375.2 428.295C375.064 428.693 374.996 429.146 374.996 429.653C374.996 430.161 375.064 430.614 375.2 431.011C375.34 431.409 375.547 431.723 375.82 431.955C376.096 432.182 376.437 432.295 376.842 432.295ZM386.643 434.17C385.761 434.17 384.998 433.983 384.354 433.608C383.714 433.229 383.219 432.703 382.871 432.028C382.522 431.35 382.348 430.564 382.348 429.67C382.348 428.769 382.522 427.981 382.871 427.307C383.219 426.629 383.714 426.102 384.354 425.727C384.998 425.348 385.761 425.159 386.643 425.159C387.526 425.159 388.287 425.348 388.928 425.727C389.571 426.102 390.068 426.629 390.416 427.307C390.765 427.981 390.939 428.769 390.939 429.67C390.939 430.564 390.765 431.35 390.416 432.028C390.068 432.703 389.571 433.229 388.928 433.608C388.287 433.983 387.526 434.17 386.643 434.17ZM386.655 432.295C387.056 432.295 387.392 432.182 387.661 431.955C387.929 431.723 388.132 431.409 388.268 431.011C388.409 430.614 388.479 430.161 388.479 429.653C388.479 429.146 388.409 428.693 388.268 428.295C388.132 427.898 387.929 427.583 387.661 427.352C387.392 427.121 387.056 427.006 386.655 427.006C386.25 427.006 385.909 427.121 385.632 427.352C385.359 427.583 385.153 427.898 385.013 428.295C384.876 428.693 384.808 429.146 384.808 429.653C384.808 430.161 384.876 430.614 385.013 431.011C385.153 431.409 385.359 431.723 385.632 431.955C385.909 432.182 386.25 432.295 386.655 432.295ZM394.933 428.955V434H392.513V425.273H394.82V426.812H394.922C395.115 426.305 395.439 425.903 395.893 425.608C396.348 425.309 396.899 425.159 397.547 425.159C398.153 425.159 398.681 425.292 399.132 425.557C399.583 425.822 399.933 426.201 400.183 426.693C400.433 427.182 400.558 427.765 400.558 428.443V434H398.138V428.875C398.142 428.341 398.005 427.924 397.729 427.625C397.452 427.322 397.071 427.17 396.587 427.17C396.261 427.17 395.973 427.241 395.723 427.381C395.477 427.521 395.284 427.725 395.143 427.994C395.007 428.259 394.937 428.58 394.933 428.955Z" fill="#347AE2"/>
<defs>
<clipPath id="clip0_3810_2211">
<rect width="34.5116" height="34.5116" fill="white" transform="translate(120 144.298)"/>
</clipPath>
<clipPath id="clip1_3810_2211">
<rect width="34.5116" height="34.5116" fill="white" transform="translate(120 211.595)"/>
</clipPath>
<clipPath id="clip2_3810_2211">
<rect width="34.5116" height="34.5116" fill="white" transform="translate(120 346.191)"/>
</clipPath>
</defs>
</svg>
