<svg xmlns="http://www.w3.org/2000/svg" width="516.72" height="521.414" viewBox="0 0 516.72 521.414">
  <g id="Group_130" data-name="Group 130" transform="translate(-360.57 -94.22)">
    <path id="Path_519" data-name="Path 519" d="M1007.708,164.639a402.514,402.514,0,0,1,5.055,46.783c.479,9.733.445,20.1-4.679,28.39-6.7,10.836-21.273,15.291-33.583,12.014s-22.166-13.147-27.606-24.666" transform="translate(-225.429 -27.075)" fill="none" stroke="#000" stroke-miterlimit="10" stroke-width="3"/>
    <path id="Path_520" data-name="Path 520" d="M972.962,178.578a28.783,28.783,0,0,1-7.222,19.275c-.9,1.011-2.047,2.028-3.4,1.963-1.767-.084-2.926-1.932-4.6-2.506-2.517-.864-5.214,1.754-5.2,4.415s1.939,4.968,4.163,6.429a22.188,22.188,0,0,1-11.994,17.659,2.347,2.347,0,0,1-2.1.269,2.314,2.314,0,0,1-.893-1.182c-2.252-5.113-2.286-10.889-2.282-16.476l.012-19.614c0-5.233.028-10.591,1.818-15.508,2.576-7.076,9.227-12.762,16.742-13.25s15.25,4.909,16.533,12.329" transform="translate(-222.562 -25.299)" fill="#ccc"/>
    <path id="Path_521" data-name="Path 521" d="M650.133,151.639a402.661,402.661,0,0,0-5.055,46.783c-.479,9.733-.445,20.1,4.68,28.39,6.7,10.836,21.272,15.291,33.584,12.014s22.165-13.147,27.606-24.666" transform="translate(-109.313 -22.076)" fill="none" stroke="#000" stroke-miterlimit="10" stroke-width="3"/>
    <path id="Path_522" data-name="Path 522" d="M711.212,163.655a42.089,42.089,0,0,0,7.437,21.536c1.11-1.424,3.583-.9,4.63.569s1.04,3.43.852,5.226c-.249,2.369-1.944,5.429-4.137,4.5.371,8.463,8.257,14.564,15.974,18.061a3.223,3.223,0,0,0,2.252.4,3.268,3.268,0,0,0,1.674-1.933c3.8-8.1,6.843-16.65,7.911-25.536s.074-18.157-3.855-26.2c-1.615-3.306-3.835-6.492-7.076-8.235-2.534-1.363-5.466-1.729-8.323-2.072-3.48-.417-7.075-.826-10.435.17s-6.451,3.781-6.662,7.279" transform="translate(-134.814 -21.263)" fill="#ccc"/>
    <path id="Path_523" data-name="Path 523" d="M988.618,586.786l-.084,149.431c-.006,10.6-.012,21.2.945,31.769.357,3.949.954,8.121,3.811,11.241s8.761,4.53,12.2,1.871c2.1-1.625,2.7-4.2,3.179-6.58q14.812-73.285,29.624-146.569a251.632,251.632,0,0,0,4.36-26.331c.582-6.233.587-12.869-3.115-18.264-3.714-5.413-10.815-8.756-18.1-9.562s-14.722.7-21.431,3.256c-6.146,2.344-6.286,5.771-11.182,9.715" transform="translate(-241.439 -184.301)" fill="#1a2f58"/>
    <path id="Path_524" data-name="Path 524" d="M1003.164,327.486c35.156,43.741,51.476,99.451,44.859,153.126-.616,4.995-1.837,10.59-6.513,13.33-2.934,1.72-6.63,1.911-10.13,1.9a120.873,120.873,0,0,1-30.514-4.03" transform="translate(-246.18 -89.686)" fill="#fff" stroke="#000" stroke-miterlimit="10" stroke-width="3"/>
    <rect id="Rectangle_100" data-name="Rectangle 100" width="109.975" height="11.079" rx="5.54" transform="matrix(0.992, -0.126, 0.126, 0.992, 403.733, 326.844)" fill="#1a2f58"/>
    <rect id="Rectangle_101" data-name="Rectangle 101" width="109.975" height="11.079" rx="5.54" transform="translate(370.613 233.232) rotate(65.022)"/>
    <rect id="Rectangle_102" data-name="Rectangle 102" width="109.975" height="5.274" rx="2.637" transform="matrix(-0.112, 0.994, -0.994, -0.112, 877.29, 169.809)" fill="#1a2f58"/>
    <path id="Path_525" data-name="Path 525" d="M687.26,593.628a263.183,263.183,0,0,0-8.943,189.235c1.405,4.167,4.3,9.168,8.63,8.421,4.274-.737,5.369-6.259,5.67-10.586,3.754-54.112,34.6-102.007,53.036-153.021,3.381-9.359,6.391-19.155,5.658-29.078-.233-3.16-.922-6.451-3-8.843-1.8-2.072-4.415-3.219-6.965-4.232-9.962-3.956-20.577-6.9-31.276-6.252a39.093,39.093,0,0,0-21.548,7.736c-2.324,1.808-5.782,4.536-6.8,7.364-1.473,4.076-.944,10.4-.675,14.664a32.5,32.5,0,0,0,4.549,15.446" transform="translate(-116.999 -186.458)" fill="#1a2f58"/>
    <path id="Path_526" data-name="Path 526" d="M688.7,500.153l-.045,40.639c-.007,6.587.58,14.324,6.134,17.867,2.837,1.81,6.365,2.045,9.725,2.23,10.376.569,20.771.7,31.158.936,5.194.116,10.387.25,15.579.468,4.384.184,8.875-.372,10.555-5.359a6.035,6.035,0,0,0,.21-3.033" transform="translate(-126.144 -156.073)" fill="#fff" stroke="#000" stroke-miterlimit="10" stroke-width="3"/>
    <path id="Path_527" data-name="Path 527" d="M793.492,569.454c15.451,63.282,8.825,129.966,11.087,195.328.137,3.935.742,8.621,4.055,10.333,2.711,1.4,6.106-.065,8.049-2.527s2.772-5.686,3.55-8.8l19.629-78.578c6.778-27.133,13.606-54.649,13.579-82.735.23,17.645,3.547,35.056,6.852,52.345l6.787,35.5c4.828,25.254,9.675,50.588,17.481,74.974.979,3.06,2.08,6.229,4.294,8.431s5.884,3.079,8.268,1.09c2.034-1.7,2.47-4.748,2.752-7.493,4.639-45.1,9.023-90.7,3.782-135.719-1.622-13.933-4.165-27.8-4.344-41.835-.133-10.453.505-22.456-6.648-29.573-2.968-2.953-6.878-4.544-10.741-5.855-31.96-10.841-59.6-3.479-88.425,14.849" transform="translate(-166.45 -174.964)" fill="#1a2f58"/>
    <path id="Path_528" data-name="Path 528" d="M786.009,174.2c-1.955,8.015.779,16.369,3.8,24.045,3.593,9.134,7.756,18.265,14.416,25.475s16.245,12.307,26.022,11.443c10.8-.955,19.986-9.052,24.893-18.72s6.188-20.744,6.7-31.574c.512-10.722-.13-22.692-7.758-30.245" transform="translate(-163.319 -23.224)" fill="none" stroke="#000" stroke-miterlimit="10" stroke-width="3"/>
    <path id="Path_529" data-name="Path 529" d="M784.957,168.218a150.4,150.4,0,0,1-8.981-38.017c-.83-8.137-.848-16.905,3.547-23.8,5.164-8.109,15.358-11.713,24.967-12s19.064,2.139,28.6,3.4S852.838,99,861.179,94.22c.948,22.263-14.364,44.231-35.578,51.046-14.926,4.8-31.669,2.66-46,9.02" transform="translate(-159.549 0)" fill="#1a2f58"/>
    <path id="Path_530" data-name="Path 530" d="M831.825,282.056a87.491,87.491,0,0,0,2.747,17.265,4.726,4.726,0,0,0,1.792,3.085,4.786,4.786,0,0,0,2.377.437q8.624.09,17.249-.114a2.52,2.52,0,0,0,3.035-3.364l-1.65-13.132" transform="translate(-181.188 -72.219)" fill="none" stroke="#000" stroke-miterlimit="10" stroke-width="3"/>
    <path id="Path_531" data-name="Path 531" d="M891.3,308.652c14.787,2.693,30.215,5.666,42.051,14.931,11.555,9.046,18.175,22.981,22.8,36.907a196.671,196.671,0,0,1-11.88,150.6c-4.578-3.3-5-9.91-4.363-15.517s1.825-11.659-.885-16.609" transform="translate(-204.055 -82.445)" fill="#fff" stroke="#000" stroke-miterlimit="10" stroke-width="3"/>
    <rect id="Rectangle_103" data-name="Rectangle 103" width="30.161" height="51.088" rx="11.221" transform="translate(663.056 267.662)" fill="#1a2f58"/>
    <path id="Path_532" data-name="Path 532" d="M780.326,463.36a146.109,146.109,0,0,0,2.922,28.8c.622,3.061,1.45,6.295,3.742,8.417,1.859,1.721,4.408,2.445,6.866,3.062a177.331,177.331,0,0,0,85.422.087c5.439-1.351,11.216-3.234,14.506-7.772,2.529-3.488,3.149-7.975,3.471-12.272,2.7-36.115-10.134-71.38-22.769-105.32" transform="translate(-161.387 -109.248)" fill="#fff" stroke="#000" stroke-miterlimit="10" stroke-width="3"/>
    <path id="Path_533" data-name="Path 533" d="M773.982,314.224l-24.956,8.54c-8.442,2.889-17.02,5.847-24.269,11.048-20.339,14.593-25.25,44.073-17.824,67.978,2.648,8.526,6.739,16.82,13.238,22.94,15.461,14.561,41.159,12.968,59.192,1.747s29.982-29.857,40.469-48.326c-4.916-5.415-13.714-2.2-20.451.646-7.888,3.329-16.4,5.659-24.939,5.049s-17.128-4.5-21.977-11.551" transform="translate(-131.911 -84.587)" fill="#fff" stroke="#000" stroke-miterlimit="10" stroke-width="3"/>
    <path id="Path_534" data-name="Path 534" d="M810.423,927.346a8.84,8.84,0,0,1,5.935-6.02,8.176,8.176,0,0,1,7.906,2.235c1.042,1.074,1.8,2.944.828,4.1a3.132,3.132,0,0,1-1.472.848,22.026,22.026,0,0,1-13.525.14" transform="translate(-172.833 -317.902)" fill="#1a2f58"/>
    <path id="Path_535" data-name="Path 535" d="M947.424,927.346a8.84,8.84,0,0,1,5.935-6.02,8.176,8.176,0,0,1,7.906,2.235c1.042,1.074,1.8,2.944.828,4.1a3.132,3.132,0,0,1-1.472.848,22.026,22.026,0,0,1-13.525.14" transform="translate(-225.507 -317.902)" fill="#1a2f58"/>
    <path id="Path_536" data-name="Path 536" d="M882.974,409.981a10.139,10.139,0,0,1,5.437-4.742,6.685,6.685,0,0,1,4.441-.613c1.464.429,2.669,2.008,2.205,3.462a3.994,3.994,0,0,1-1.6,1.874,17.2,17.2,0,0,1-7.706,3.1" transform="translate(-200.853 -119.278)" fill="#fff" stroke="#000" stroke-miterlimit="10" stroke-width="3"/>
    <path id="Path_537" data-name="Path 537" d="M653.34,127.193a31.414,31.414,0,0,0,20.78,18.141,56.055,56.055,0,0,0,10,1.413,298.634,298.634,0,0,0,44.857-.028c-7.418-4.861-10.254-14.163-15.213-21.515-8.8-13.045-24.605-19.891-40.214-21.882-6.328-.808-13.79-.464-17.64,4.621-3.161,4.174-2.657,9.97-2,15.165" transform="translate(-112.564 -3.371)" fill="#1a2f58"/>
    <path id="Path_538" data-name="Path 538" d="M998.52,140.193a31.413,31.413,0,0,1-20.78,18.141,56.055,56.055,0,0,1-10,1.413,298.636,298.636,0,0,1-44.857-.028c7.418-4.861,10.254-14.163,15.213-21.515,8.8-13.045,24.606-19.891,40.214-21.882,6.327-.808,13.789-.464,17.64,4.621,3.161,4.174,2.656,9.97,2,15.165" transform="translate(-216.198 -8.369)" fill="#1a2f58"/>
    <path id="Path_539" data-name="Path 539" d="M686.568,291.563l4.318,15.267c.35,1.235.974,2.711,2.254,2.812a3.157,3.157,0,0,0,1.451-.354A193.457,193.457,0,0,0,720.045,296.2l-5.016-9" transform="translate(-125.339 -74.195)" fill="none" stroke="#000" stroke-miterlimit="10" stroke-width="3"/>
    <path id="Path_540" data-name="Path 540" d="M630.491,322.252c-18.082,22.061-24.951,52.206-45.209,72.288-15.1,14.966-36,22.588-56.8,27.009-1.775,1.752-.724,5.027,1.388,6.352s4.776,1.269,7.267,1.168c33.094-1.332,66.612-2.733,98.3-12.366" transform="translate(-64.214 -87.673)" fill="#fff" stroke="#000" stroke-miterlimit="10" stroke-width="3"/>
    <path id="Path_541" data-name="Path 541" d="M752.793,296.439a79.2,79.2,0,0,1,25.191,8.627" transform="translate(-150.802 -77.749)" fill="none" stroke="#000" stroke-miterlimit="10" stroke-width="1"/>
    <path id="Path_542" data-name="Path 542" d="M754.7,758.6c-1.121,26.626-2.242,53.326-.25,79.9.276,3.679.54,7.66-1.45,10.766s-7.233,4.241-9.235,1.142a8.318,8.318,0,0,1-1-3.561q-1.664-13.511-3.327-27.023c-.7-5.7-1.406-11.419-1.555-17.164a90.184,90.184,0,0,1,17.049-54.895,22.145,22.145,0,0,1-2.264,10.154" transform="translate(-145.058 -251.273)" fill="#1a2f58"/>
    <path id="Path_543" data-name="Path 543" d="M695.382,928.19a19.308,19.308,0,0,0-9.907.754,8.186,8.186,0,0,0-3,1.677,5.285,5.285,0,0,0-1.4,5.167c3.745,1.03,7.737-.279,11.2-2.04,1.954-.995,4.063-2.5,4.133-4.7" transform="translate(-123.155 -320.518)" fill="#1a2f58"/>
    <path id="Path_544" data-name="Path 544" d="M750.616,920.975c-2.406-.338-4.9-.67-7.228.03s-4.437,2.743-4.391,5.172a.955.955,0,0,0,.153.58,1.09,1.09,0,0,0,.93.261l10.235-.4c1.986-.078,4.469-.53,4.969-2.454a2.407,2.407,0,0,0-1.173-2.653" transform="translate(-145.497 -317.723)" fill="#1a2f58"/>
    <path id="Path_545" data-name="Path 545" d="M517.331,484.472A10.794,10.794,0,0,0,507.245,483a3.148,3.148,0,0,0-1.643,1.14,2.887,2.887,0,0,0,.646,3.274c2.5,2.861,7.061,2.694,10.6,1.326" transform="translate(-55.65 -149.23)" fill="none" stroke="#000" stroke-miterlimit="10" stroke-width="3"/>
    <path id="Path_546" data-name="Path 546" d="M598.162,385.027c-26,16.289-57.976,18.636-88.277,23.463l1.338,6.933a355.076,355.076,0,0,0,47.559,2.922c5.764-.033,11.753-.262,16.88-2.9" transform="translate(-57.409 -111.809)" fill="none" stroke="#000" stroke-miterlimit="10" stroke-width="3"/>
    <path id="Path_547" data-name="Path 547" d="M495.714,426.65c-.879-1.463-3-1.344-4.681-1.04-1.871.339-3.838.721-5.283,1.959s-2.081,3.632-.819,5.055c1.034,1.166,2.828,1.221,4.37.986a18.353,18.353,0,0,0,9.851-4.842" transform="translate(-47.554 -127.339)" fill="none" stroke="#000" stroke-miterlimit="10" stroke-width="3"/>
    <path id="Path_548" data-name="Path 548" d="M960.4,297.465a76.825,76.825,0,0,0-3.208,11.681,5.359,5.359,0,0,0,.12,3.392c.706,1.413,2.422,1.935,3.955,2.317l13.455,3.348c1.655.412,3.553.783,4.945-.2a6.017,6.017,0,0,0,1.887-3.265l3.354-10.481" transform="translate(-229.305 -78.143)" fill="none" stroke="#000" stroke-miterlimit="10" stroke-width="3"/>
    <path id="Path_549" data-name="Path 549" d="M1019.721,398.447c2.251,8.595,9.782,15.212,18.286,17.787s17.791,1.51,26.166-1.456a60.891,60.891,0,0,0,30.11-23.465c1.744-2.62,3.643-5.638,6.736-6.227,4.235-.808,7.878,3.881,7.724,8.19s-2.813,8.071-5.368,11.545L1090.9,421.779c-8.495,11.553-17.158,23.278-28.6,31.918s-26.278,13.91-40.261,10.727" transform="translate(-253.43 -111.796)" fill="#fff" stroke="#000" stroke-miterlimit="10" stroke-width="3"/>
    <path id="Path_550" data-name="Path 550" d="M1164.453,375.089l4.814-8.425c1.322-2.314,3.342-4.976,5.963-4.495,3.061.563,3.63,4.82,2.647,7.773a17.553,17.553,0,0,1-9.047,10.2" transform="translate(-309.076 -102.999)" fill="#fff" stroke="#000" stroke-miterlimit="10" stroke-width="3"/>
    <path id="Path_551" data-name="Path 551" d="M1036.777,335.625c7.595-.171,14.766-3.429,21.426-7.084a165.655,165.655,0,0,0,50.246-42.55c2.185-2.773,6.621-5.658,8.585-2.726,1,1.487.355,3.48-.33,5.133a232.478,232.478,0,0,1-61.915,85.975" transform="translate(-259.987 -72.211)" fill="none" stroke="#000" stroke-miterlimit="10" stroke-width="3"/>
    <path id="Path_552" data-name="Path 552" d="M1169.449,276.543a15.574,15.574,0,0,1,6.347-6.042,2.265,2.265,0,0,1,1.539-.339c1.109.279,1.239,1.81.972,2.921a12.6,12.6,0,0,1-9.187,9.12" transform="translate(-310.87 -67.631)" fill="none" stroke="#000" stroke-miterlimit="10" stroke-width="3"/>
    <path id="Path_553" data-name="Path 553" d="M998.947,918.9a27.145,27.145,0,0,1,9.236-1.672c3.142.139,6.386,1.444,8.141,4.054a1.378,1.378,0,0,1,.313,1.083,1.444,1.444,0,0,1-.864.8c-4.508,2.175-9.721,2.154-14.726,2.09a7.737,7.737,0,0,1-4.544-1.01c-1.273-.932-1.742-3.091-.489-4.05" transform="translate(-244.032 -316.422)" fill="#1a2f58"/>
  </g>
</svg>
