<svg width="87" height="85" fill="none" xmlns="http://www.w3.org/2000/svg"><path d="M80.475 0H6.525A6.498 6.498 0 000 6.525v53.65C0 63.8 2.9 66.7 6.525 66.7H32.38c.205 2.524-.933 4.997-2.945 6.38l-2.61 1.885a1.73 1.73 0 00-.62.634c-1.773.546-3.005 2.159-3.005 4.151 0 2.465 1.885 4.35 4.35 4.35h31.9c2.465 0 4.35-1.885 4.35-4.35 0-2.099-1.367-3.776-3.295-4.229a1.784 1.784 0 00-.475-.556l-2.61-1.885c-2.049-1.409-3.078-3.835-2.892-6.38h25.947C84.1 66.7 87 63.8 87 60.175V6.525C87 2.9 84.1 0 80.475 0zM2.9 6.525A3.59 3.59 0 016.525 2.9h73.95A3.59 3.59 0 0184.1 6.525V50.75H2.9V6.525zM59.45 81.2h-31.9c-.87 0-1.45-.58-1.45-1.45s.58-1.45 1.45-1.45h31.9c.87 0 1.45.58 1.45 1.45s-.58 1.45-1.45 1.45zm-3.915-5.8H31.32c2.755-2.03 4.205-5.365 4.06-8.7h16.24c-.29 3.335 1.305 6.67 3.915 8.7zM84.1 60.175a3.59 3.59 0 01-3.625 3.625H6.525A3.59 3.59 0 012.9 60.175V53.65h81.2v6.525z" fill="#544960"/><path d="M25.23 27.55l10.585-10.585c.58-.58.58-1.45 0-2.03-.58-.58-1.45-.58-2.03 0l-11.6 11.6c-.435.435-.58 1.015-.29 1.595.145.29.29.435.435.58l11.455 11.455c.29.29.58.435 1.015.435.435 0 .725-.145 1.015-.435.58-.58.58-1.45 0-2.03L25.23 27.55zm39.44-1.16L53.215 14.935c-.58-.58-1.45-.58-2.03 0-.58.58-.58 1.45 0 2.03L61.77 27.55 51.185 38.135c-.58.58-.58 1.45 0 2.03.29.29.58.435 1.015.435.435 0 .725-.145 1.015-.435l11.6-11.6c.435-.435.58-1.015.29-1.595a2.004 2.004 0 00-.435-.58zM46.835 14.645c-.725-.29-1.595.29-1.74 1.015l-5.8 23.2c-.29.725.29 1.595 1.015 1.74h.29c.725 0 1.305-.435 1.45-1.015l5.8-23.2c.29-.725-.29-1.595-1.015-1.74z" fill="#544960"/></svg>