<svg width="85" height="95" fill="none" xmlns="http://www.w3.org/2000/svg"><path d="M3.447 15.016h6.689l1.516 2.71c.397.71 1.032 1.117 1.744 1.117s1.348-.407 1.745-1.116l1.516-2.711h6.032c1.366 0 2.477-1.146 2.477-2.554V2.554C25.166 1.146 24.055 0 22.689 0H19.37c-.763 0-1.382.638-1.382 1.425 0 .786.619 1.424 1.382 1.424h3.032v9.318H15.86c-.494 0-.95.272-1.197.713l-1.266 2.262-1.265-2.262a1.375 1.375 0 00-1.197-.713h-7.2V2.849h9.188c.763 0 1.382-.638 1.382-1.424C14.304.638 13.685 0 12.922 0H3.447C2.08 0 .97 1.146.97 2.554v9.907c0 1.409 1.11 2.555 2.477 2.555z" fill="#3A2F45"/><path d="M7.122 7.606c0 .787.619 1.425 1.382 1.425h9.127c.764 0 1.382-.638 1.382-1.425s-.618-1.424-1.382-1.424H8.504c-.763 0-1.382.637-1.382 1.424zm68.458.414a8.493 8.493 0 00-5.232 1.797 8.551 8.551 0 00-7.698-1.463c-2.647.787-4.78 2.81-5.76 5.465-15.097-6.247-32.365-2.282-43.461 9.98C2.332 36.061-.31 54.095 6.782 69.188 3.6 70 1.107 72.544.286 75.815c-.822 3.27.16 6.743 2.558 9.045l8.72 9.062A3.45 3.45 0 0014.058 95a3.45 3.45 0 002.497-1.078l6.637-6.901C49.254 101.968 81.6 82.395 81.6 51.514c.008-7.57-2.06-14.988-5.963-21.4l6.188-6.422c2.515-2.628 3.265-6.55 1.904-9.965-1.36-3.415-4.568-5.661-8.149-5.708zm-27.733 6.248v6.8c0 .8-.63 1.45-1.407 1.45a4.156 4.156 0 00-2.981 1.276c-2.729 2.812.408 6.582-3.01 13.642l-8.072 16.76c-.571 1.335-1.984 2.061-3.362 1.727-1.378-.334-2.329-1.632-2.264-3.09V39.917c0-3.203-2.518-5.8-5.625-5.8h-3.825c-2.014-.002-3.745-1.471-4.135-3.508l-.295-1.537c8.087-11.248 21.555-16.948 34.975-14.803zM14.572 91.892a.693.693 0 01-.5.214.693.693 0 01-.499-.214l-8.72-9.047c-1.927-1.94-2.488-4.909-1.405-7.452.832-1.828 2.476-3.122 4.405-3.469a5.89 5.89 0 015.284 1.73 1.377 1.377 0 001.983 0 5.89 5.89 0 014.22-1.828c2.445.045 4.628 1.59 5.547 3.928.92 2.337.396 5.013-1.329 6.801l-8.986 9.337zm26.242-2.682v-7.54a3.438 3.438 0 011.477-2.899c1.704-1.156 2.734-3.116 2.742-5.22a4.43 4.43 0 011.132-3.264 4.16 4.16 0 013.087-1.375h1.406c4.66 0 8.438-3.895 8.438-8.699v-4.35c0-3.202 2.519-5.799 5.625-5.799h8.439c.53 12.197-5.738 23.635-16.145 29.46-.68.401-.916 1.294-.527 1.994a1.393 1.393 0 001.933.544c11.299-6.334 18.11-18.751 17.551-31.998h2.813c.4 10.503-3.472 20.702-10.681 28.134-7.21 7.433-17.102 11.424-27.29 11.012zm37.704-42.045h-2.813c0-.566-.112-1.146-.21-1.697-.133-.8-.87-1.339-1.646-1.203-.777.136-1.3.896-1.168 1.696 0 .406.099.798.155 1.204h-8.115c-4.66 0-8.437 3.894-8.437 8.699v4.35c0 3.202-2.519 5.799-5.626 5.799h-1.406a6.931 6.931 0 00-5.074 2.224 7.377 7.377 0 00-1.958 5.315 3.438 3.438 0 01-1.476 2.9c-1.705 1.156-2.735 3.115-2.743 5.219v7.249a35.775 35.775 0 01-12.741-4.06c3.798-3.203 4.358-8.973 1.251-12.889-3.106-3.915-8.704-4.493-12.502-1.29a8.665 8.665 0 00-4.219-1.696c-5.896-11.55-5.555-25.425.9-36.652 1.04 2.83 3.675 4.697 6.61 4.683h3.825c1.554 0 2.813 1.298 2.813 2.9v12.918c.01 2.74 1.84 5.117 4.428 5.748 2.588.63 5.257-.65 6.457-3.095 10.097-20.907 10.21-19.312 10.21-28.62 0-.8.63-1.45 1.406-1.45 2.33 0 4.22-1.947 4.22-4.35v-6.233a36.148 36.148 0 015.625 1.884c-.077 2.714.941 5.339 2.812 7.25l8.72 9.06a3.409 3.409 0 002.53 1.088 4.302 4.302 0 003.278-1.885 37.807 37.807 0 014.894 14.934zm1.308-25.517c-9.845 10.149-9.085 9.569-9.507 9.569-.422 0 .295.594-9.212-9.265-1.895-1.725-2.565-4.474-1.686-6.918.878-2.444 3.124-4.08 5.652-4.115 1.585.014 3.1.67 4.22 1.827a1.377 1.377 0 001.982 0 5.889 5.889 0 014.22-1.827c2.465-.001 4.69 1.527 5.637 3.874.948 2.348.432 5.052-1.306 6.855z" fill="#3A2F45"/><path d="M65.102 17.864a1.103 1.103 0 01-.38-.942c.38-.697.14-1.58-.534-1.972-1.899-1.131-3.46 2.494-1.083 4.944l3.432 3.58c.354.369.871.514 1.357.381a1.43 1.43 0 00.999-1.022 1.482 1.482 0 00-.36-1.402l-3.43-3.567zM8.849 78.814a1.074 1.074 0 01-.38-.928c.38-.696.14-1.578-.534-1.971-1.913-1.131-3.474 2.493-1.111 4.944l3.46 3.566c.34.416.879.6 1.393.477a1.428 1.428 0 001.046-1.063 1.477 1.477 0 00-.443-1.444l-3.431-3.58zm62.16-41.58a1.449 1.449 0 00-.628.904c-.085.375-.02.77.178 1.096.244.41.46.836.647 1.276.318.733 1.152 1.06 1.863.732.71-.328 1.029-1.188.71-1.92a14.101 14.101 0 00-.83-1.625 1.409 1.409 0 00-.876-.647 1.37 1.37 0 00-1.064.184z" fill="#3A2F45"/></svg>