<svg width="373" height="275" viewBox="0 0 373 275" fill="none" xmlns="http://www.w3.org/2000/svg">
<rect width="79" height="79" rx="20" fill="white" fill-opacity="0.03"/>
<path d="M31.8366 33.5881V30.5455H46.1719V33.5881H40.8281V48H37.1804V33.5881H31.8366Z" fill="#96A0B5"/>
<rect x="98" width="79" height="79" rx="20" fill="white" fill-opacity="0.03"/>
<path d="M140.123 35.5653C140.054 34.8778 139.762 34.3437 139.245 33.9631C138.728 33.5824 138.026 33.392 137.14 33.392C136.537 33.392 136.029 33.4773 135.614 33.6477C135.199 33.8125 134.881 34.0426 134.659 34.3381C134.444 34.6335 134.336 34.9688 134.336 35.3438C134.324 35.6562 134.39 35.929 134.532 36.1619C134.679 36.3949 134.881 36.5966 135.137 36.767C135.392 36.9318 135.688 37.0767 136.023 37.2017C136.358 37.321 136.716 37.4233 137.097 37.5085L138.665 37.8835C139.426 38.054 140.125 38.2812 140.762 38.5653C141.398 38.8494 141.949 39.1989 142.415 39.6136C142.881 40.0284 143.242 40.517 143.498 41.0795C143.759 41.642 143.892 42.2869 143.898 43.0142C143.892 44.0824 143.62 45.0085 143.08 45.7926C142.546 46.571 141.773 47.1761 140.762 47.608C139.756 48.0341 138.543 48.2472 137.123 48.2472C135.713 48.2472 134.486 48.0312 133.441 47.5994C132.401 47.1676 131.588 46.5284 131.003 45.6818C130.424 44.8295 130.12 43.7756 130.091 42.5199H133.662C133.702 43.1051 133.87 43.5937 134.165 43.9858C134.466 44.3722 134.867 44.6648 135.367 44.8636C135.873 45.0568 136.444 45.1534 137.08 45.1534C137.705 45.1534 138.248 45.0625 138.708 44.8807C139.174 44.6989 139.534 44.446 139.79 44.1222C140.046 43.7983 140.174 43.4261 140.174 43.0057C140.174 42.6136 140.057 42.2841 139.824 42.017C139.597 41.75 139.262 41.5227 138.819 41.3352C138.381 41.1477 137.844 40.9773 137.208 40.8239L135.307 40.3466C133.836 39.9886 132.674 39.429 131.821 38.6676C130.969 37.9062 130.546 36.8807 130.551 35.5909C130.546 34.5341 130.827 33.6108 131.395 32.821C131.969 32.0312 132.756 31.4148 133.756 30.9716C134.756 30.5284 135.892 30.3068 137.165 30.3068C138.461 30.3068 139.591 30.5284 140.557 30.9716C141.529 31.4148 142.284 32.0312 142.824 32.821C143.364 33.6108 143.642 34.5256 143.659 35.5653H140.123Z" fill="#96A0B5"/>
<rect y="98" width="79" height="79" rx="20" fill="white" fill-opacity="0.03"/>
<path d="M33.7085 146V128.545H37.3988V142.957H44.8817V146H33.7085Z" fill="#96A0B5"/>
<rect x="98" y="98" width="79" height="79" rx="20" fill="white" fill-opacity="0.03"/>
<path d="M131.498 146V128.545H143.054V131.588H135.188V135.747H142.287V138.79H135.188V146H131.498Z" fill="#96A0B5"/>
<rect x="196" width="79" height="79" rx="20" fill="white" fill-opacity="0.03"/>
<path d="M230.549 48H226.594L232.62 30.5455H237.376L243.393 48H239.438L235.066 34.5341H234.93L230.549 48ZM230.302 41.1392H239.643V44.0199H230.302V41.1392Z" fill="#96A0B5"/>
<rect x="294" width="79" height="79" rx="20" fill="white" fill-opacity="0.03"/>
<path d="M336.544 30.5455H340.235V41.8807C340.235 43.1534 339.931 44.267 339.323 45.2216C338.721 46.1761 337.877 46.9205 336.792 47.4545C335.706 47.983 334.442 48.2472 332.999 48.2472C331.55 48.2472 330.283 47.983 329.198 47.4545C328.113 46.9205 327.269 46.1761 326.667 45.2216C326.064 44.267 325.763 43.1534 325.763 41.8807V30.5455H329.453V41.5653C329.453 42.2301 329.598 42.821 329.888 43.3381C330.184 43.8551 330.598 44.2614 331.132 44.5568C331.667 44.8523 332.289 45 332.999 45C333.715 45 334.337 44.8523 334.865 44.5568C335.4 44.2614 335.811 43.8551 336.101 43.3381C336.397 42.821 336.544 42.2301 336.544 41.5653V30.5455Z" fill="#96A0B5"/>
<rect x="196" y="98" width="79" height="79" rx="20" fill="white" fill-opacity="0.03"/>
<path d="M228.856 146V143.341L235.069 137.588C235.598 137.077 236.041 136.616 236.399 136.207C236.762 135.798 237.038 135.398 237.225 135.006C237.413 134.608 237.507 134.179 237.507 133.719C237.507 133.207 237.39 132.767 237.157 132.398C236.924 132.023 236.606 131.736 236.203 131.537C235.799 131.332 235.342 131.23 234.831 131.23C234.297 131.23 233.831 131.338 233.433 131.554C233.035 131.77 232.728 132.08 232.512 132.483C232.297 132.886 232.189 133.366 232.189 133.923H228.686C228.686 132.781 228.944 131.79 229.461 130.949C229.978 130.108 230.703 129.457 231.635 128.997C232.566 128.537 233.64 128.307 234.856 128.307C236.106 128.307 237.194 128.528 238.12 128.972C239.052 129.409 239.777 130.017 240.294 130.795C240.811 131.574 241.069 132.466 241.069 133.472C241.069 134.131 240.939 134.781 240.677 135.423C240.422 136.065 239.964 136.778 239.305 137.562C238.646 138.341 237.717 139.276 236.518 140.366L233.97 142.864V142.983H241.299V146H228.856Z" fill="#96A0B5"/>
<rect x="294" y="98" width="79" height="79" rx="20" fill="white" fill-opacity="0.03"/>
<path d="M326.326 146V143.81L335.036 131.588H326.309V128.545H339.672V130.736L330.953 142.957H339.689V146H326.326Z" fill="#96A0B5"/>
<rect y="196" width="79" height="79" rx="20" fill="white" fill-opacity="0.03"/>
<path d="M42.1225 231.565C42.0543 230.878 41.7617 230.344 41.2447 229.963C40.7276 229.582 40.0259 229.392 39.1396 229.392C38.5373 229.392 38.0288 229.477 37.614 229.648C37.1992 229.812 36.881 230.043 36.6594 230.338C36.4435 230.634 36.3356 230.969 36.3356 231.344C36.3242 231.656 36.3896 231.929 36.5316 232.162C36.6793 232.395 36.881 232.597 37.1367 232.767C37.3924 232.932 37.6879 233.077 38.0231 233.202C38.3583 233.321 38.7163 233.423 39.0969 233.509L40.6651 233.884C41.4265 234.054 42.1254 234.281 42.7617 234.565C43.3981 234.849 43.9492 235.199 44.4151 235.614C44.881 236.028 45.2418 236.517 45.4975 237.08C45.7589 237.642 45.8924 238.287 45.8981 239.014C45.8924 240.082 45.6197 241.009 45.0799 241.793C44.5458 242.571 43.7731 243.176 42.7617 243.608C41.756 244.034 40.543 244.247 39.1225 244.247C37.7134 244.247 36.4862 244.031 35.4407 243.599C34.4009 243.168 33.5884 242.528 33.0032 241.682C32.4237 240.83 32.1197 239.776 32.0913 238.52H35.6623C35.7021 239.105 35.8697 239.594 36.1651 239.986C36.4663 240.372 36.8668 240.665 37.3668 240.864C37.8725 241.057 38.4435 241.153 39.0799 241.153C39.7049 241.153 40.2475 241.062 40.7077 240.881C41.1737 240.699 41.5344 240.446 41.7901 240.122C42.0458 239.798 42.1737 239.426 42.1737 239.006C42.1737 238.614 42.0572 238.284 41.8242 238.017C41.5969 237.75 41.2617 237.523 40.8185 237.335C40.381 237.148 39.8441 236.977 39.2077 236.824L37.3072 236.347C35.8356 235.989 34.6737 235.429 33.8214 234.668C32.9691 233.906 32.5458 232.881 32.5515 231.591C32.5458 230.534 32.8271 229.611 33.3952 228.821C33.9691 228.031 34.756 227.415 35.756 226.972C36.756 226.528 37.8924 226.307 39.1651 226.307C40.4606 226.307 41.5913 226.528 42.5572 226.972C43.5288 227.415 44.2844 228.031 44.8242 228.821C45.364 229.611 45.6424 230.526 45.6594 231.565H42.1225Z" fill="#96A0B5"/>
<rect x="98" y="196" width="79" height="79" rx="20" fill="white" fill-opacity="0.03"/>
<path d="M130.244 244V226.545H133.934V234.241H134.164L140.445 226.545H144.869L138.391 234.361L144.945 244H140.531L135.749 236.824L133.934 239.04V244H130.244Z" fill="#96A0B5"/>
<rect x="196" y="196" width="79" height="79" rx="20" fill="white" fill-opacity="0.03"/>
<path d="M228.012 244L223.018 226.545H227.049L229.939 238.673H230.083L233.271 226.545H236.723L239.902 238.699H240.055L242.944 226.545H246.975L241.981 244H238.385L235.061 232.588H234.924L231.609 244H228.012Z" fill="#96A0B5"/>
<rect x="294" y="196" width="79" height="79" rx="20" fill="white" fill-opacity="0.03"/>
<path d="M336.962 232.188C336.843 231.773 336.675 231.406 336.459 231.088C336.243 230.764 335.979 230.491 335.667 230.27C335.36 230.043 335.007 229.869 334.61 229.75C334.218 229.631 333.783 229.571 333.306 229.571C332.414 229.571 331.63 229.793 330.953 230.236C330.283 230.679 329.76 231.324 329.385 232.17C329.01 233.011 328.823 234.04 328.823 235.256C328.823 236.472 329.007 237.506 329.377 238.358C329.746 239.21 330.269 239.861 330.945 240.31C331.621 240.753 332.419 240.974 333.34 240.974C334.175 240.974 334.888 240.827 335.479 240.531C336.076 240.23 336.53 239.807 336.843 239.261C337.161 238.716 337.32 238.071 337.32 237.327L338.07 237.438H333.57V234.659H340.874V236.858C340.874 238.392 340.55 239.71 339.902 240.812C339.255 241.909 338.363 242.756 337.226 243.352C336.09 243.943 334.789 244.239 333.323 244.239C331.686 244.239 330.249 243.878 329.01 243.156C327.772 242.429 326.806 241.398 326.113 240.062C325.425 238.722 325.081 237.131 325.081 235.29C325.081 233.875 325.286 232.614 325.695 231.506C326.11 230.392 326.689 229.449 327.434 228.676C328.178 227.903 329.044 227.315 330.033 226.912C331.022 226.509 332.093 226.307 333.246 226.307C334.235 226.307 335.155 226.452 336.007 226.741C336.86 227.026 337.615 227.429 338.275 227.952C338.939 228.474 339.482 229.097 339.902 229.818C340.323 230.534 340.593 231.324 340.712 232.188H336.962Z" fill="#96A0B5"/>
</svg>
