<svg height="512" viewBox="0 0 60 59" width="512" xmlns="http://www.w3.org/2000/svg"><g id="016---Autopilot" transform="translate(-1 -1)"><path id="Shape" d="m9.42 55.694c.24542889.2681382.6170321.3819788.9705389.2973245.3535069-.0846543.633236-.3544695.7305858-.7046929.0973499-.3502234-.0030133-.725691-.2621247-.9806316-9.72944165-10.0411225-10.52418097-25.7332695-1.859-36.706v2.4c0 .5522847.44771525 1 1 1 .5522847 0 1-.4477153 1-1v-5c0-.5522847-.4477153-1-1-1h-5c-.55228475 0-1 .4477153-1 1s.44771525 1 1 1h2.693c-9.54579162 11.7640166-8.80444058 28.8035003 1.727 39.694z"/><path id="Shape" d="m51.424 14.273c-.1928725.1821696-.3054501.4335161-.3129521.6987128s.0906865.5225055.2729521.7152872c9.5114275 10.1406434 10.1978351 25.7054439 1.616 36.644v-2.331c0-.5522847-.4477153-1-1-1s-1 .4477153-1 1v5c0 .5522847.4477153 1 1 1h5c.5522847 0 1-.4477153 1-1s-.4477153-1-1-1h-2.773c9.5386924-11.7110941 8.9446542-28.6719513-1.39-39.687-.3792552-.4009853-1.0116677-.418888-1.413-.04z"/><path id="Shape" d="m7 35c-.00957166 11.6583787 8.360464 21.6373603 19.842599 23.6568802 11.4821351 2.0195198 22.7548021-4.5046315 26.7237824-15.4666149 3.9689802-10.9619834-.5138781-23.1907018-10.6273814-28.9902653.460894-4.55356022-1.7085488-8.97277465-5.5930242-11.39314344-3.8844753-2.4203688-8.8074763-2.4203688-12.6919516 0-3.8844754 2.42036879-6.0539182 6.83958322-5.5930242 11.39314344-7.4628285 4.2653942-12.06620457 12.2042237-12.061 20.8zm7.07 1.39c4.516 1.821 12.019 10.224 11.372 14.658-6.3547761-2.2086546-10.8119095-7.9537004-11.372-14.658zm33.905-2.125c-4.275 1.245-9.733 7.047-12 11.323-3.2992793.516008-6.6587207.516008-9.958 0-2.253-4.257-7.73-10.081-12-11.323.0477394-1.0888918.2007867-2.1706043.457-3.23 1.666-.189 3.252-.43 4.713-.724 3.8918605-.7809132 7.844619-1.2195881 11.813-1.311 3.9640413.0920106 7.9124307.5306834 11.8 1.311 1.463.294 3.049.535 4.715.724.2572244 1.0592963.4112766 2.1410101.46 3.23zm-21.012 13.472c2.6814612.326002 5.3925388.326002 8.074 0-.4736663 1.2296529-.6144058 2.5625382-.408 3.864-2.3900772.5320917-4.8679228.5320917-7.258 0 .2064058-1.3014618.0656663-2.6343471-.408-3.864zm9.595 3.311c-.646-4.424 6.818-12.821 11.372-14.658-.5600905 6.7042996-5.0172239 12.4493454-11.372 14.658zm6.642-22.698c-14.43-2.879-20.972-.314-28.062.594 1.2974794-3.3847705 3.6411447-6.2672335 6.69-8.228 2.2745109 2.7154444 5.6348201 4.2841598 9.177 4.2841598s6.9024891-1.5687154 9.177-4.2841598c3.0444986 1.9578838 5.385788 4.8351057 6.684 8.214-1.285-.164-2.527-.35-3.666-.58zm-12.2-25.35c5.5228475 0 10 4.4771525 10 10s-4.4771525 10-10 10-10-4.4771525-10-10c.0060624-5.52033443 4.4796656-9.99393763 10-10zm-11.534 13.276c.2789841.9806788.6822561 1.9216469 1.2 2.8-6.2595149 4.0457826-9.5695378 11.3824145-8.4605035 18.7526199 1.1090342 7.3702053 6.4315564 13.407852 13.6045035 15.4323801 11.435 3.499 24.19-5.285 24.19-18.261-.0171294-6.430813-3.2781282-12.4187755-8.671-15.922.5177439-.8783531.9210159-1.8193212 1.2-2.8 8.3808693 5.1598368 12.315135 15.2582426 9.6337869 24.7278391-2.6813482 9.4695966-11.3258925 16.00627-21.1677869 16.00627s-18.4864387-6.5366734-21.16778685-16.00627c-2.6813481-9.4695965 1.25291755-19.5680023 9.63378685-24.7278391z"/><path id="Shape" d="m20 32c-.5522847 0-1 .4477153-1 1v2c0 .5522847.4477153 1 1 1s1-.4477153 1-1v-2c0-.5522847-.4477153-1-1-1z"/><path id="Shape" d="m24 32c-.5522847 0-1 .4477153-1 1v2c0 .5522847.4477153 1 1 1s1-.4477153 1-1v-2c0-.5522847-.4477153-1-1-1z"/><path id="Shape" d="m38 32c-.5522847 0-1 .4477153-1 1v2c0 .5522847.4477153 1 1 1s1-.4477153 1-1v-2c0-.5522847-.4477153-1-1-1z"/><path id="Shape" d="m42 32c-.5522847 0-1 .4477153-1 1v2c0 .5522847.4477153 1 1 1s1-.4477153 1-1v-2c0-.5522847-.4477153-1-1-1z"/><path id="Shape" d="m28.4 18.8c.4158377.3119546 1.0013411.2532739 1.347-.135l8-9c.2375816-.26687739.3147387-.64023057.2024069-.979421s-.3970866-.59268701-.747-.66500002c-.3499134-.07231302-.7118253.0475436-.9494069.31442102l-7.389 8.313-3.264-2.448c-.4418278-.3313708-1.0686291-.2418278-1.4.2-.3313708.4418278-.2418278 1.0686291.2 1.4z"/></g></svg>