<svg width="512" height="512" viewBox="0 0 512 512" fill="none" xmlns="http://www.w3.org/2000/svg">
<g clip-path="url(#clip0)">
<path d="M334.277 227.737C331.475 233.959 332.687 241.255 337.349 246.238L409.772 322.927C413.074 326.31 417.595 328.226 422.322 328.247C427.05 328.268 431.588 326.391 434.919 323.038L507.572 246.118C512.098 241.117 513.254 233.919 510.521 227.752C507.788 221.585 501.68 217.606 494.934 217.6H448.999C436.706 146.036 390.776 84.7375 325.545 52.839C260.315 20.9406 183.73 22.3276 119.698 56.5672C115.6 58.8231 114.082 63.9578 116.295 68.0792C118.508 72.2007 123.626 73.7724 127.771 71.6029C157.99 55.3107 191.803 46.8304 226.134 46.9331C330.394 47.2495 418.605 124.074 433.238 227.302C433.822 231.521 437.427 234.664 441.686 234.666L495.054 234.521L422.281 311.321L349.868 234.666H398.422C400.938 234.667 403.326 233.558 404.948 231.635C406.571 229.712 407.261 227.171 406.836 224.691C391.976 138.407 318.261 74.6195 230.737 72.3074C143.214 69.9952 66.2339 129.802 46.8386 215.181C27.4432 300.559 71.0291 387.755 150.961 423.483C230.894 459.212 324.933 433.532 375.613 362.137C377.824 358.992 381.314 356.986 385.144 356.659C388.874 356.355 392.55 357.699 395.205 360.337C397.632 362.768 399.003 366.058 399.02 369.493C399.012 372.042 398.213 374.526 396.733 376.601C350.001 442.792 269.218 476.001 189.444 461.816C109.671 447.632 45.2875 388.61 24.2377 310.367C3.18782 232.124 29.266 148.765 91.154 96.4691C94.7499 93.4222 95.195 88.0372 92.1481 84.4414C89.1013 80.8455 83.7163 80.4004 80.1204 83.4472C10.8863 141.975 -16.6883 236.202 10.0695 322.821C36.8273 409.441 112.742 471.698 202.924 480.981C210.501 481.749 218.059 482.133 225.597 482.133C299.171 482.139 368.177 446.456 410.702 386.415C414.199 381.465 416.08 375.554 416.086 369.493C416.055 361.535 412.888 353.909 407.271 348.271C401.085 342.038 392.452 338.871 383.702 339.626C374.861 340.373 366.802 344.989 361.686 352.239C330.512 396.176 280.007 422.317 226.134 422.4C180.414 422.336 136.728 403.489 105.309 370.274C73.8902 337.06 57.4984 292.395 59.9732 246.741C64.6202 164.251 129.089 97.6642 211.385 90.3531C293.681 83.0419 368.878 137.221 387.995 217.6H349.868C343.106 217.54 336.965 221.533 334.277 227.737V227.737Z" fill="#544960"/>
<path d="M281.601 204.8C281.601 209.513 285.422 213.333 290.135 213.333C294.848 213.333 298.668 209.513 298.668 204.8C298.668 176.572 272.556 153.242 238.935 149.811V140.8C238.935 136.087 235.114 132.267 230.401 132.267C225.689 132.267 221.868 136.087 221.868 140.8V149.811C188.247 153.224 162.135 176.572 162.135 204.8C162.135 233.028 188.247 256.358 221.868 259.789V336.486C197.693 333.431 179.201 317.653 179.201 298.667C179.201 293.954 175.381 290.133 170.668 290.133C165.955 290.133 162.135 293.954 162.135 298.667C162.135 326.895 188.247 350.225 221.868 353.655V362.667C221.868 367.379 225.689 371.2 230.401 371.2C235.114 371.2 238.935 367.379 238.935 362.667V353.655C272.556 350.242 298.668 326.895 298.668 298.667C298.668 270.438 272.556 247.108 238.935 243.678V166.98C263.11 170.035 281.601 185.813 281.601 204.8V204.8ZM179.201 204.8C179.201 185.813 197.693 170.035 221.868 166.98V242.62C197.693 239.565 179.201 223.787 179.201 204.8ZM281.601 298.667C281.601 317.653 263.11 333.431 238.935 336.486V260.847C263.11 263.902 281.601 279.68 281.601 298.667Z" fill="#544960"/>
</g>
<defs>
<clipPath id="clip0">
<rect width="512" height="512" fill="white"/>
</clipPath>
</defs>
</svg>
