<svg xmlns="http://www.w3.org/2000/svg" width="400.715" height="636.333" viewBox="0 0 400.715 636.333">
  <g id="Group_179" data-name="Group 179" transform="translate(-1443 -2800.169)">
    <path id="Path_124" data-name="Path 124" d="M1609.586,572.158c-6.527,33.039-2.825,67.138.9,100.609q8.274,74.381,16.548,148.762c.552,4.964,1.253,10.274,4.58,14s10.265,4.547,12.91.31c1.161-1.861,1.229-4.177,1.277-6.369a445.067,445.067,0,0,1,32.987-158.242c13.15-32.115,20.193-58.555,22.065-93.207.276-5.117,2.474-16.294,0-20.781-2.355-4.273,1.266-6.593-3.023-8.916-29.717-16.091-70.643-7-90.75,20.164" transform="translate(-1.271 2580.66)" fill="#1a2f58"/>
    <path id="Path_125" data-name="Path 125" d="M1702.495,258.24a133.86,133.86,0,0,1,13.748,47.741c.231,2.476.272,5.3-1.5,7.048a8.031,8.031,0,0,1-4.654,1.8,47.705,47.705,0,0,1-43.782-18.161" transform="translate(-16.757 2653.118)" fill="none" stroke="#000" stroke-miterlimit="10" stroke-width="3"/>
    <path id="hair" d="M1616.454,224.811c-4.937-.317-18.073.427-20.486.665-1.541.152-3.178.67-4.23-.656-.863-1.085-.782-3.073-1.138-4.4-.414-1.538-.934-3.044-1.458-4.546a47.485,47.485,0,0,0-6.133-11.971,38.473,38.473,0,0,0-19.769-14.637c-8.955-2.845-18.759-2.731-27.925-1.069-9.809,1.778-18.437,5.925-27.471,9.918a59.333,59.333,0,0,1-27.258,5.367c-9.517-.514-17.1-4.9-25.486-8.939-8.582-4.138-18.153-6.454-27.649-4.767-8.865,1.576-16.734,6.077-23.634,11.733-6.457,5.293-11.611,11.4-14.061,19.527-2.635,8.739-1.721,17.957,4.707,24.815,9.318,9.942,24.919,11.211,37.642,9.675a69.756,69.756,0,0,0,21.191-6.085c8.964-4.183,16.442-10.511,24.686-15.861a67.988,67.988,0,0,1,12.207-6.341c4.167-1.633,8.334-2.606,12.47-.4,4.376,2.334,8.321,4.661,13.188,5.913a40.461,40.461,0,0,0,14.328,1.139c9.333-.994,18.253-4.814,27.132-7.658,7.241-2.319,15-4.685,22.692-3.9,3.21.326,7.937,1.189,9.4,4.348-18.788,5.355-23.966,29.757-16.858,46.592,3.836,9.087,22.415,18.318,28.732,12.718,4-3.548.98-7.389-.98-9.927-3.755-4.862-5.521-11.408.123-15.608,4.869-3.623,11.041,3.229,11.143,3.211,1.411-.253,13.017-8.418,20.485-19.4,8.4-.329,9.128-5.963,6.688-10.272S1623.276,225.25,1616.454,224.811Z" transform="translate(54.623 2671.407)" fill="#1a2f58" fill-rule="evenodd"/>
    <path id="Path_126" data-name="Path 126" d="M1653.529,331.528c-17.108,7.765-27.594,25.146-35.538,42.171a331.62,331.62,0,0,0-28.97,103.018c-1.064,9.487-1.549,19.759,3.492,27.865,5.531,8.894,16.623,12.988,27.094,13.164s20.683-2.9,30.871-5.33c17.674-4.213,24.208-7.451,42.374-7.834,3.335-.071-19.312,9.4-16.366,7.834,8.552-4.538,28.8-9.94,25.674-19.1-4.561-13.37-14.75-39.616-16.406-56.217" transform="translate(3.27 2634.295)" fill="#fff" stroke="#000" stroke-miterlimit="10" stroke-width="3"/>
    <path id="Path_127" data-name="Path 127" d="M1706.747,705.9a570.423,570.423,0,0,0,17.612,175.022c-5.426,2.644-10.778-3.6-13.619-8.925l-17.747-33.265c-8.092-15.167-16.42-31.371-15.239-48.521.571-8.28,3.352-16.227,6.109-24.056l21.093-59.894" transform="translate(-19.668 2538.145)" fill="#1a2f58"/>
    <path id="Path_130" data-name="Path 130" d="M1710.3,287.981a342.2,342.2,0,0,0,77.184-124.328c1-2.82,2.247-5.975,5.023-7.086,3.581-1.433,7.669,1.682,8.734,5.389s0,7.655-1.055,11.365L1759.934,314.46c-4.327,15.172-8.739,30.544-16.855,44.073s-20.513,25.23-35.827,29.024" transform="translate(-27.273 2679.322)" fill="#fff" stroke="#000" stroke-miterlimit="10" stroke-width="3"/>
    <path id="Path_131" data-name="Path 131" d="M1824.083,148.268a86.527,86.527,0,0,1,5.21-20.851c7.445,6.217,8.616,18.613,2.468,26.116" transform="translate(-57.278 2686.717)" fill="none" stroke="#000" stroke-miterlimit="10" stroke-width="3"/>
    <path id="Path_132" data-name="Path 132" d="M1834.177,122.589a52.724,52.724,0,0,1,18.871-11.225,346.323,346.323,0,0,1,.618,49.494,4.837,4.837,0,0,1-3.515,5.274l-18.76,8.792a11.464,11.464,0,0,1-.644-6.454" transform="translate(-58.938 2690.84)" fill="none" stroke="#000" stroke-miterlimit="10" stroke-width="3"/>
    <path id="Path_133" data-name="Path 133" d="M1844.108,134.685l6.868-4.332" transform="translate(-62.421 2685.963)" fill="none" stroke="#000" stroke-miterlimit="10" stroke-width="3"/>
    <path id="Path_134" data-name="Path 134" d="M1842.55,154.517a22.919,22.919,0,0,0,10.016-4.661" transform="translate(-62.021 2680.954)" fill="none" stroke="#000" stroke-miterlimit="10" stroke-width="3"/>
    <path id="Path_135" data-name="Path 135" d="M1835.278,175.541a59.57,59.57,0,0,0,12.852-6.109" transform="translate(-60.154 2675.926)" fill="none" stroke="#000" stroke-miterlimit="10" stroke-width="3"/>
    <path id="Path_136" data-name="Path 136" d="M1835.217,224.872l22.3-9.389a2.84,2.84,0,0,1,2.579-.2,2.812,2.812,0,0,1,.94,2.1,273.337,273.337,0,0,1,2.166,49.739,2.849,2.849,0,0,1-2.018,3.086l-18.075,9.108c-2.252,1.135-4.933,2.28-7.188,1.15-3.021-1.514-2.985-5.754-2.634-9.114a136.9,136.9,0,0,0-2.607-44.294" transform="translate(-58.973 2664.212)" fill="none" stroke="#000" stroke-miterlimit="10" stroke-width="3"/>
    <path id="Path_137" data-name="Path 137" d="M1927.573,231.545" transform="translate(-83.858 2659.974)" fill="none" stroke="#000" stroke-miterlimit="10" stroke-width="3"/>
    <path id="Path_138" data-name="Path 138" d="M1847.085,232.6a13.321,13.321,0,0,0-4.544,10.041c.017,2.119.747,4.479,2.643,5.423,2.271,1.13,5.04-.341,6.654-2.3a12.377,12.377,0,0,0,1.784-12.5" transform="translate(-62.019 2659.702)" fill="none" stroke="#000" stroke-miterlimit="10" stroke-width="3"/>
    <path id="Path_139" data-name="Path 139" d="M1847.616,267.357a31.075,31.075,0,0,0,12.636-4.081" transform="translate(-63.323 2651.824)" fill="none" stroke="#000" stroke-miterlimit="10" stroke-width="3"/>
    <path id="Path_140" data-name="Path 140" d="M1849.934,279.265l13.289-2.969" transform="translate(-63.918 2648.48)" fill="none" stroke="#000" stroke-miterlimit="10" stroke-width="3"/>
    <path id="Path_141" data-name="Path 141" d="M1773.664,161.676l17.873-8.694a3.779,3.779,0,0,1,2.854-.537c1.052.386,1.521,1.587,1.835,2.663a56.85,56.85,0,0,1,2.268,16.761" transform="translate(-44.33 2680.32)" fill="none" stroke="#000" stroke-miterlimit="10" stroke-width="3"/>
    <path id="Path_142" data-name="Path 142" d="M1769.279,173.878c5.138,12,2.572,25.912,5.771,38.568.307,1.217.979,2.67,2.234,2.672" transform="translate(-43.203 2674.784)" fill="none" stroke="#000" stroke-miterlimit="10" stroke-width="3"/>
    <path id="Path_143" data-name="Path 143" d="M1780.061,183.374l9.19-5.885" transform="translate(-45.972 2673.857)" fill="none" stroke="#000" stroke-miterlimit="10" stroke-width="3"/>
    <path id="Path_144" data-name="Path 144" d="M1781.249,199.435a21.132,21.132,0,0,0,7.393-2.962" transform="translate(-46.278 2668.981)" fill="none" stroke="#000" stroke-miterlimit="10" stroke-width="3"/>
    <path id="Path_145" data-name="Path 145" d="M1876.7,135.75a51.518,51.518,0,0,1,20.218-10.34,1.66,1.66,0,0,1,1.443.088,1.678,1.678,0,0,1,.45,1.228,354.869,354.869,0,0,1,.715,45.408,9.556,9.556,0,0,1-.884,4.261,8.919,8.919,0,0,1-2.828,2.753,57.258,57.258,0,0,1-19.4,8.745c-5.256-14.991.242-31.946-4.021-47.249" transform="translate(-69.686 2687.263)" fill="none" stroke="#000" stroke-miterlimit="10" stroke-width="3"/>
    <path id="Path_146" data-name="Path 146" d="M1883.6,153.113l11.709-5.042" transform="translate(-72.565 2681.412)" fill="none" stroke="#000" stroke-miterlimit="10" stroke-width="3"/>
    <path id="Path_147" data-name="Path 147" d="M1884.726,171.11a25.686,25.686,0,0,0,10.158-4.753" transform="translate(-72.853 2676.716)" fill="none" stroke="#000" stroke-miterlimit="10" stroke-width="3"/>
    <path id="Path_148" data-name="Path 148" d="M1797.512,360.076q16.472-9.861,33.823-18.142a2.309,2.309,0,0,1,3.876,1.986,134.581,134.581,0,0,1,1.3,35.226,6.147,6.147,0,0,1-1.086,3.488,6.276,6.276,0,0,1-3.078,1.631l-35.11,10.812a56.119,56.119,0,0,1-3.789-29.133" transform="translate(-49.279 2631.765)" fill="none" stroke="#000" stroke-miterlimit="10" stroke-width="3"/>
    <path id="Path_149" data-name="Path 149" d="M1802.76,374.527l28.146-8.556" transform="translate(-51.802 2625.449)" fill="none" stroke="#000" stroke-miterlimit="10" stroke-width="3"/>
    <path id="Path_150" data-name="Path 150" d="M1806.02,387.944a153.9,153.9,0,0,1,24.248-7.52" transform="translate(-52.64 2621.737)" fill="none" stroke="#000" stroke-miterlimit="10" stroke-width="3"/>
    <path id="Path_151" data-name="Path 151" d="M1860.022,314.2q13.574-4.715,27.389-8.694a300.349,300.349,0,0,1-.426,34.462,6.458,6.458,0,0,1-.765,3.121c-.818,1.257-2.366,1.783-3.8,2.225l-21.641,6.677q.573-18.923-.731-37.84" transform="translate(-66.509 2640.979)" fill="none" stroke="#000" stroke-miterlimit="10" stroke-width="3"/>
    <path id="Path_152" data-name="Path 152" d="M1877.626,323.415a15.542,15.542,0,0,0-6.543,14.263,3.9,3.9,0,0,0,.579,1.855c1.4,1.956,4.56.494,6-1.431a14.713,14.713,0,0,0,2.032-13.52" transform="translate(-69.327 2636.379)" fill="none" stroke="#000" stroke-miterlimit="10" stroke-width="3"/>
    <path id="Path_153" data-name="Path 153" d="M1788.566,320.587a84.332,84.332,0,0,0,13.257-5.969,12.531,12.531,0,0,0,3.566-2.64c2.1-2.47,2.148-6.026,2.053-9.264q-.5-17.345-2.489-34.6" transform="translate(-48.157 2650.583)" fill="none" stroke="#000" stroke-miterlimit="10" stroke-width="3"/>
    <path id="Path_154" data-name="Path 154" d="M1796.4,317.389a21.094,21.094,0,0,1,5.853-5.849" transform="translate(-50.167 2639.429)" fill="none" stroke="#000" stroke-miterlimit="10" stroke-width="3"/>
    <path id="Path_128" data-name="Path 128" d="M1731.314,944.109a52.144,52.144,0,0,1,27.489,8.721,32.926,32.926,0,0,1-25.651,5.488,13.063,13.063,0,0,1-6.93-3.3c-1.8-1.877-2.562-4.939-1.178-7.14" transform="translate(-31.66 2476.967)" fill="#1a2f58"/>
    <path id="Path_129" data-name="Path 129" d="M1649.26,942.957a47.131,47.131,0,0,1,19.539,15.917,56.228,56.228,0,0,1-29.459-4.591,6.966,6.966,0,0,1-2.884-2,4.91,4.91,0,0,1,.267-5.54,11.7,11.7,0,0,1,4.663-3.54" transform="translate(-8.901 2477.263)" fill="#1a2f58"/>
  </g>
</svg>
