<svg width="185" height="53" fill="none" xmlns="http://www.w3.org/2000/svg"><path d="M184.808 0H0v52.86h184.808V0z" fill="#000"/><path d="M176.51 37.942a3.536 3.536 0 01-.97.157c-1.082 0-1.59-.462-1.59-1.793V26.26c0-5.278-4.204-7.847-9.176-7.847-3.797 0-5.839.462-9.896 2.098l-.906 5.324 5.277.564.748-2.607c1.081-.564 2.153-.665 3.539-.665 3.743 0 3.798 2.819 3.798 5.176v.767c-1.183-.157-2.513-.203-3.798-.203-5.276 0-10.765 1.33-10.765 7.024 0 4.816 3.789 6.618 7.125 6.618 3.742 0 6.098-2.255 7.429-4.612.305 2.819 1.996 4.612 5.073 4.612 1.432 0 2.92-.407 4.149-1.081l-.037-3.485zm-14.193-.148c-1.996 0-2.717-1.183-2.717-2.671 0-2.514 2.051-3.18 4.408-3.18 1.071 0 2.254.158 3.335.305-.157 3.855-2.67 5.546-5.026 5.546zm-8.88-31.075L143.438 42h-6.514l9.998-35.28h6.515zm-13.427 0L130.012 42h-6.505l9.998-35.28h6.505zm-27.758 12.155h6.921v8.3h-6.921v-8.3zm0 14.816h6.921V42h-6.921v-8.31zm-10.072-.305l5.23.509L105.978 42h-20.2l-.665-3.485 12.715-14.613h-7.226l-1.026 3.586-4.768-.517.823-8.106h20.301l.517 3.484-12.825 14.623h7.484l1.072-3.587zM69.053 18.412c-8.307 0-12.41 5.592-12.41 12.358 0 7.385 4.926 11.738 12.05 11.738 7.383 0 12.715-4.668 12.715-12.053 0-6.46-4.057-12.043-12.355-12.043zm-.157 19.022c-3.585 0-5.433-3.078-5.433-7.08 0-4.363 2.098-6.868 5.489-6.868 3.123 0 5.636 2.098 5.636 6.766 0 4.409-2.254 7.182-5.692 7.182zm-18.203-.462h3.077V42h-9.693V28.976c0-4.002-1.331-5.536-3.946-5.536-3.179 0-4.463 2.255-4.463 5.49v8.042h3.077V42H29.06V28.976c0-4.002-1.33-5.536-3.946-5.536-3.178 0-4.463 2.255-4.463 5.49v8.042h4.408V42H10.968v-5.028h3.077v-13.08h-3.077v-5.027h9.684v3.484c1.386-2.458 3.798-3.947 7.023-3.947 3.336 0 6.403 1.59 7.54 4.973 1.284-3.078 3.9-4.973 7.54-4.973 4.15 0 7.947 2.515 7.947 7.996v10.574h-.01z" fill="#fff"/></svg>