<svg width="254" height="492" viewBox="0 0 254 492" fill="none" xmlns="http://www.w3.org/2000/svg">
<path d="M169 344H208V347C208 348.657 206.657 350 205 350H172C170.343 350 169 348.657 169 347V344Z" fill="#5CD9A6"/>
<path d="M157 329H170V333C170 334.657 168.657 336 167 336H160C158.343 336 157 334.657 157 333V329Z" fill="#5CD9A6"/>
<path d="M201.5 420L205.5 428L213.388 428.637L207.5 434.5L208.847 442.613L201.5 438L194.153 442.613L196 434L191 428.637L198 428L201.5 420Z" fill="#5CD9A6"/>
<path fill-rule="evenodd" clip-rule="evenodd" d="M203.278 225.146C203.745 224.167 204 223.107 204 222C204 217.029 198.851 213 192.5 213C186.149 213 180.5 218.029 180.5 223C180.5 225.397 181.814 227.342 183.886 228.715L187.5 232L186 236H187.5L193 232L198.5 230.5L204 226L203.278 225.146Z" fill="#5CD9A6"/>
<path fill-rule="evenodd" clip-rule="evenodd" d="M189 152H170V167H189V152ZM179 161C180.657 161 182 159.657 182 158C182 156.343 180.657 155 179 155C177.343 155 176 156.343 176 158C176 159.657 177.343 161 179 161Z" fill="#5CD9A6"/>
<circle cx="185.5" cy="48.5" r="15.5" fill="#5CD9A6"/>
<path d="M62.525 128L57.813 121.418L57.812 121.417L57.515 121H36V174H96V128H62.525ZM94 130V135H67.537L63.958 130H94ZM38 172V123H56.485L61.485 130H61.497L66.187 136.551C66.382 136.823 66.689 136.968 67 136.969V137H94V172H38Z" fill="#544960"/>
<path d="M72 147C72 143.691 69.309 141 66 141C62.691 141 60 143.691 60 147V151H56V167H76V151H72V147ZM62 147C62 144.794 63.794 143 66 143C68.206 143 70 144.794 70 147V151H62V147ZM74 153V165H58V153H60H72H74Z" fill="#544960"/>
<path d="M65 161.858V163C65 163.553 65.447 164 66 164C66.553 164 67 163.553 67 163V161.858C68.721 161.411 70 159.859 70 158C70 155.794 68.206 154 66 154C63.794 154 62 155.794 62 158C62 159.859 63.279 161.411 65 161.858ZM66 156C67.103 156 68 156.897 68 158C68 159.103 67.103 160 66 160C64.897 160 64 159.103 64 158C64 156.897 64.897 156 66 156Z" fill="#544960"/>
<path d="M100.788 428.347C100.679 428.002 100.38 427.751 100.023 427.7L92.7159 426.677L89.4523 420.306C89.1309 419.678 88.101 419.678 87.7806 420.306L84.5179 426.677L77.2097 427.7C76.8517 427.751 76.5538 428.001 76.4448 428.347C76.3358 428.692 76.4335 429.068 76.6975 429.316L81.9646 434.265L80.7233 441.244C80.6613 441.595 80.8022 441.951 81.0879 442.163C81.2533 442.286 81.4506 442.348 81.6489 442.348C81.7936 442.348 81.9402 442.316 82.0737 442.247L88.6178 438.932L95.163 442.247C95.4796 442.41 95.8621 442.377 96.1487 442.163C96.4344 441.95 96.5754 441.596 96.5133 441.244L95.271 434.265L100.538 429.316C100.799 429.067 100.897 428.692 100.788 428.347ZM93.6106 433.244C93.3794 433.461 93.2732 433.78 93.3286 434.092L94.3294 439.718L89.0398 437.038C88.9054 436.97 88.7607 436.937 88.615 436.937C88.4694 436.937 88.3237 436.97 88.1903 437.038L82.9015 439.718L83.9014 434.092C83.9578 433.78 83.8507 433.461 83.6195 433.244L79.4105 429.29L85.2602 428.471C85.5628 428.428 85.8269 428.241 85.966 427.969L88.6141 422.797L91.2631 427.969C91.4022 428.241 91.6663 428.428 91.9689 428.471L97.8177 429.29L93.6106 433.244Z" fill="#544960"/>
<path d="M81.1735 413.156C81.1735 415.195 82.833 416.854 84.8722 416.854C86.9114 416.854 88.57 415.195 88.57 413.156C88.57 411.117 86.9114 409.457 84.8722 409.457C82.833 409.457 81.1735 411.117 81.1735 413.156ZM86.6896 413.156C86.6896 414.158 85.8739 414.975 84.8712 414.975C83.8686 414.975 83.052 414.159 83.052 413.156C83.052 412.154 83.8676 411.337 84.8712 411.337C85.8739 411.337 86.6896 412.153 86.6896 413.156Z" fill="#544960"/>
<path d="M75.1846 402.879H86.792L96.1337 412.2V424.319H98.0132V411.421L87.5682 401H74.4084L50.6336 424.697L50.6421 424.704L45 430.331L68.6179 454L75.8669 447.058L53.3071 424.701L75.1846 402.879ZM73.1736 447.035L68.647 451.37L47.6575 430.335L51.9765 426.027L73.1736 447.035Z" fill="#544960"/>
<path d="M78.3333 336.917H61.55C61.0622 336.917 60.6667 336.521 60.6667 336.033C60.6667 335.545 61.0622 335.15 61.55 335.15H78.3333C80.2839 335.148 81.8646 333.567 81.8667 331.617V310.417C81.8651 308.954 80.6796 307.768 79.2167 307.767H47.4167C45.9538 307.768 44.7683 308.954 44.7667 310.417V332.5C44.7683 333.963 45.9538 335.148 47.4167 335.15H56.25C56.7379 335.15 57.1333 335.545 57.1333 336.033C57.1333 336.521 56.7379 336.917 56.25 336.917H47.4167C44.9786 336.914 43.0029 334.938 43 332.5V310.417C43.0029 307.979 44.9786 306.003 47.4167 306H79.2167C81.6547 306.003 83.6305 307.979 83.6333 310.417V331.617C83.6301 334.542 81.2591 336.913 78.3333 336.917Z" fill="#544960"/>
<path d="M56.25 329.85H43.8833C43.3955 329.85 43 329.454 43 328.967C43 328.479 43.3955 328.083 43.8833 328.083H56.25C56.7379 328.083 57.1333 328.479 57.1333 328.967C57.1333 329.454 56.7379 329.85 56.25 329.85Z" fill="#544960"/>
<path d="M95.1167 343.983H56.25C55.7622 343.983 55.3667 343.588 55.3667 343.1C55.3667 342.612 55.7622 342.217 56.25 342.217H95.1167C95.6046 342.217 96 342.612 96 343.1C96 343.588 95.6046 343.983 95.1167 343.983Z" fill="#544960"/>
<path d="M80.1 355.467H71.2666C70.7788 355.467 70.3833 355.071 70.3833 354.583V350.167C70.3833 349.679 70.7788 349.283 71.2666 349.283H80.1C80.5878 349.283 80.9833 349.679 80.9833 350.167V354.583C80.9833 355.071 80.5878 355.467 80.1 355.467ZM72.15 353.7H79.2166V351.05H72.15V353.7Z" fill="#544960"/>
<path d="M83.6333 359H67.7333C66.7581 358.999 65.9678 358.209 65.9667 357.233C65.9687 355.283 67.5494 353.702 69.5 353.7H81.8667C83.8172 353.702 85.398 355.283 85.4 357.233C85.3989 358.209 84.6086 358.999 83.6333 359ZM69.5 355.467C68.5248 355.468 67.7345 356.258 67.7333 357.233H83.6333C83.6322 356.258 82.8419 355.468 81.8667 355.467H69.5Z" fill="#544960"/>
<path d="M90.7 351.05H59.7834C57.3453 351.047 55.3696 349.071 55.3667 346.633V324.55C55.3696 322.112 57.3453 320.136 59.7834 320.133H75.3176L73.2922 318.108C72.9574 317.761 72.9622 317.21 73.3029 316.87C73.6437 316.529 74.1946 316.524 74.5412 316.859L78.0746 320.392C78.3271 320.645 78.4026 321.025 78.266 321.355C78.1293 321.685 77.8073 321.9 77.45 321.9H59.7834C58.3205 321.902 57.135 323.087 57.1334 324.55V346.633C57.135 348.096 58.3205 349.282 59.7834 349.283H90.7C92.6506 349.281 94.2313 347.701 94.2334 345.75V324.55C94.2318 323.087 93.0463 321.902 91.5834 321.9H82.75C82.2622 321.9 81.8667 321.505 81.8667 321.017C81.8667 320.529 82.2622 320.133 82.75 320.133H91.5834C94.0214 320.136 95.9972 322.112 96 324.55V345.75C95.9968 348.676 93.6258 351.047 90.7 351.05V351.05Z" fill="#544960"/>
<path d="M73.9166 325.433C73.5594 325.433 73.2374 325.218 73.1007 324.888C72.964 324.558 73.0395 324.178 73.2921 323.925L76.8254 320.392C77.172 320.057 77.723 320.062 78.0637 320.403C78.4044 320.744 78.4092 321.295 78.0745 321.641L74.5411 325.175C74.3757 325.34 74.1509 325.434 73.9166 325.433V325.433Z" fill="#544960"/>
<path d="M61.55 336.917C61.1928 336.917 60.8708 336.701 60.7341 336.371C60.5974 336.041 60.673 335.661 60.9255 335.409L64.4589 331.875C64.8055 331.541 65.3564 331.545 65.6971 331.886C66.0379 332.227 66.0427 332.778 65.7079 333.124L62.1746 336.658C62.0091 336.824 61.7844 336.917 61.55 336.917V336.917Z" fill="#544960"/>
<path d="M65.0833 340.45C64.849 340.45 64.6242 340.357 64.4588 340.191L60.9255 336.658C60.5907 336.311 60.5955 335.76 60.9362 335.42C61.2769 335.079 61.8279 335.074 62.1745 335.409L65.7078 338.942C65.9604 339.195 66.0359 339.575 65.8992 339.905C65.7625 340.235 65.4405 340.45 65.0833 340.45Z" fill="#544960"/>
<path d="M76.5667 347.517H74.8001C74.3122 347.517 73.9167 347.121 73.9167 346.633C73.9167 346.145 74.3122 345.75 74.8001 345.75H76.5667C77.0546 345.75 77.4501 346.145 77.4501 346.633C77.4501 347.121 77.0546 347.517 76.5667 347.517Z" fill="#544960"/>
<path d="M49.1833 311.3H47.4167C46.9288 311.3 46.5333 310.905 46.5333 310.417C46.5333 309.929 46.9288 309.533 47.4167 309.533H49.1833C49.6712 309.533 50.0667 309.929 50.0667 310.417C50.0667 310.905 49.6712 311.3 49.1833 311.3Z" fill="#544960"/>
<path d="M63.3167 311.3H52.7167C52.2289 311.3 51.8334 310.905 51.8334 310.417C51.8334 309.929 52.2289 309.533 52.7167 309.533H63.3167C63.8046 309.533 64.2 309.929 64.2 310.417C64.2 310.905 63.8046 311.3 63.3167 311.3Z" fill="#544960"/>
<path d="M72.5774 64.0106C71.206 64.0101 69.84 63.8398 68.5105 63.5035C59.6566 61.2736 54.2866 52.2886 56.5161 43.4345C58.6218 35.1018 66.7627 29.7738 75.2417 31.1791C83.7207 32.5844 89.7074 40.254 89.0122 48.8205C88.3171 57.387 81.1721 63.9909 72.5774 64.0106V64.0106ZM72.549 32.9393C65.8928 32.9481 60.0905 37.4706 58.4567 43.9231C56.9454 49.9368 59.4187 56.2467 64.6139 59.6317C69.8091 63.0166 76.5803 62.7301 81.4709 58.9182C86.3615 55.1064 88.2927 48.6101 86.2787 42.7456C84.2647 36.8812 78.7497 32.9421 72.549 32.9393V32.9393Z" fill="#544960"/>
<path d="M87.1319 80.4091C86.6817 80.4094 86.2867 80.109 86.1667 79.6751C86.0468 79.2411 86.2314 78.7805 86.6179 78.5496L93.2839 74.5653C93.5911 74.3747 93.9773 74.3646 94.294 74.5389C94.6107 74.7132 94.8088 75.0448 94.8121 75.4064C94.8154 75.7679 94.6234 76.103 94.3099 76.2831L87.6439 80.2674C87.4893 80.3604 87.3123 80.4093 87.1319 80.4091V80.4091Z" fill="#544960"/>
<path d="M89.819 83C89.5702 82.9997 89.3224 82.9687 89.0813 82.9076C88.3083 82.7152 87.6443 82.2216 87.2374 81.5368L81.7214 72.3067C80.871 70.8837 81.3352 69.0407 82.7582 68.1902L85.9886 66.2591C87.4121 65.412 89.2525 65.8753 90.1053 67.2954L95.6212 76.5254C96.469 77.9487 96.0058 79.7895 94.5855 80.6421L91.3536 82.5724C90.8903 82.8515 90.3599 82.9993 89.819 83ZM87.5266 67.8357C87.3463 67.8357 87.1693 67.8846 87.0146 67.9774L83.7842 69.9085C83.5562 70.0442 83.3916 70.2652 83.3269 70.5226C83.2621 70.7799 83.3026 71.0525 83.4392 71.2799L88.9552 80.5105C89.2385 80.9841 89.8519 81.1389 90.326 80.8564L90.327 80.8559L93.5589 78.9256C94.0322 78.6409 94.1863 78.0272 93.9038 77.5527L88.3875 68.3233C88.2063 68.0206 87.8794 67.8354 87.5266 67.8357V67.8357Z" fill="#544960"/>
<path d="M82.8872 70.2796C82.5348 70.28 82.2082 70.0949 82.0273 69.7925L79.6372 65.793C79.501 65.5652 79.461 65.2925 79.5258 65.0351C79.5907 64.7777 79.7552 64.5567 79.9831 64.4206L83.9826 62.0301C84.4568 61.7468 85.0709 61.9014 85.3545 62.3755L87.7459 66.3749C87.8821 66.6027 87.9221 66.8753 87.8573 67.1327C87.7924 67.3901 87.6279 67.6112 87.4 67.7473L83.3996 70.1379C83.2449 70.2309 83.0677 70.2799 82.8872 70.2796V70.2796ZM81.868 65.6249L83.2321 67.9063L85.5148 66.5427L84.1497 64.2613L81.868 65.6249Z" fill="#544960"/>
<path d="M79.7067 66.498C78.8072 66.5009 77.9725 66.0304 77.5091 65.2595L76.0892 62.8738C75.9067 62.5662 75.902 62.1846 76.0771 61.8727C76.2521 61.5608 76.5803 61.366 76.9379 61.3617C77.2956 61.3573 77.6284 61.5441 77.811 61.8517L79.2269 64.2325C79.3027 64.3593 79.4262 64.4506 79.5697 64.4859C79.7132 64.5213 79.8649 64.4977 79.991 64.4206L83.9846 62.0281C84.2445 61.8727 84.3293 61.5361 84.1741 61.2761L82.7433 58.8812C82.4588 58.4077 82.6052 57.7937 83.0726 57.4995C83.2943 57.3591 83.563 57.3131 83.8188 57.3718C84.0746 57.4306 84.2964 57.5891 84.4347 57.8122L85.8917 60.2497C86.6122 61.458 86.2188 63.0215 85.0122 63.7449L81.0128 66.1413C80.6172 66.375 80.1661 66.4982 79.7067 66.498V66.498Z" fill="#544960"/>
<path d="M58.0431 54.016H37.0006C36.448 54.016 36 53.568 36 53.0154C36 52.4628 36.448 52.0148 37.0006 52.0148H58.0431C58.5957 52.0148 59.0437 52.4628 59.0437 53.0154C59.0437 53.568 58.5957 54.016 58.0431 54.016Z" fill="#544960"/>
<path d="M64.0167 67.0237H54.0107C53.4581 67.0237 53.0101 66.5757 53.0101 66.0231V61.0202C53.0101 60.4676 53.4581 60.0196 54.0107 60.0196H64.0167C64.5693 60.0196 65.0173 60.4676 65.0173 61.0202V66.0231C65.0173 66.5757 64.5693 67.0237 64.0167 67.0237ZM55.0113 65.0225H63.0161V62.0208H55.0113V65.0225Z" fill="#544960"/>
<path d="M68.0189 71.0261H50.0083C48.9036 71.0248 48.0083 70.1296 48.0071 69.0249C48.0094 66.8154 49.8 65.0249 52.0095 65.0226H66.0178C68.2272 65.0249 70.0178 66.8154 70.0201 69.0249C70.0189 70.1296 69.1236 71.0248 68.0189 71.0261ZM52.0095 67.0237C50.9048 67.025 50.0095 67.9202 50.0083 69.0249H68.0189C68.0177 67.9202 67.1225 67.025 66.0178 67.0237H52.0095Z" fill="#544960"/>
<path d="M64.9572 62.0208H41.003C38.2413 62.0175 36.0033 59.7795 36 57.0178V32.003C36.0033 29.2413 38.2413 27.0033 41.003 27H77.0243C79.786 27.0033 82.024 29.2413 82.0273 32.003V34.4544C82.0273 35.007 81.5793 35.455 81.0267 35.455C80.4741 35.455 80.0261 35.007 80.0261 34.4544V32.003C80.0243 30.3459 78.6814 29.003 77.0243 29.0012H41.003C39.3459 29.003 38.003 30.3459 38.0012 32.003V57.0178C38.003 58.6749 39.3459 60.0178 41.003 60.0196H64.9572C65.5098 60.0196 65.9578 60.4676 65.9578 61.0202C65.9578 61.5728 65.5098 62.0208 64.9572 62.0208Z" fill="#544960"/>
<path d="M91.6665 247.533H48.3335C46.0435 247.44 44.1075 249.213 44 251.502V263.133C44 263.612 44.388 264 44.8669 264H95.1331C95.612 264 96 263.612 96 263.133V251.502C95.8925 249.213 93.9564 247.44 91.6665 247.533V247.533ZM49.1999 262.267V257.933H54.3998V262.267H49.1999ZM94.2667 262.267H56.1331V257.933C56.1331 256.976 55.3571 256.2 54.3998 256.2H49.1999C48.2426 256.2 47.4666 256.976 47.4666 257.933V262.267H45.7333V251.502C45.8432 250.171 47.0013 249.175 48.3335 249.267H91.6665C92.9987 249.175 94.1568 250.171 94.2667 251.502V262.267Z" fill="#544960"/>
<path d="M71.7333 255.333H58.7333C58.2548 255.333 57.8668 255.721 57.8668 256.2C57.8668 256.679 58.2548 257.067 58.7333 257.067H71.7333C72.2121 257.067 72.6001 256.679 72.6001 256.2C72.6001 255.721 72.2121 255.333 71.7333 255.333V255.333Z" fill="#544960"/>
<path d="M62.1999 258.8H58.7333C58.2548 258.8 57.8668 259.188 57.8668 259.667C57.8668 260.145 58.2548 260.533 58.7333 260.533H62.1999C62.6787 260.533 63.0667 260.145 63.0667 259.667C63.0667 259.188 62.6787 258.8 62.1999 258.8Z" fill="#544960"/>
<path d="M69.1331 258.8H65.6665C65.188 258.8 64.8 259.188 64.8 259.667C64.8 260.145 65.188 260.533 65.6665 260.533H69.1331C69.612 260.533 70 260.145 70 259.667C70 259.188 69.612 258.8 69.1331 258.8Z" fill="#544960"/>
<path d="M91.6665 218.067H91.2757C89.1905 214.487 84.7186 212 79.5334 212C74.3481 212 69.8762 214.487 67.791 218.067H48.3335C45.9412 218.07 44.0028 220.008 44 222.4V241.467C44.0028 243.859 45.9412 245.797 48.3335 245.8H91.6665C94.0588 245.797 95.9972 243.859 96 241.467V222.4C95.9972 220.008 94.0588 218.07 91.6665 218.067V218.067ZM79.5334 213.733C85.7457 213.733 90.8001 217.699 90.8001 222.573C90.8001 227.447 85.7457 231.414 79.5334 231.414H79.3513C79.0343 231.413 78.7423 231.586 78.5904 231.865C77.6077 233.724 75.9553 235.14 73.9677 235.826C74.6786 234.34 74.9305 232.676 74.6913 231.047C74.6564 230.737 74.4576 230.47 74.1712 230.347C70.5288 228.791 68.2667 225.812 68.2667 222.573C68.2667 217.699 73.321 213.733 79.5334 213.733V213.733ZM94.2667 241.467C94.2667 242.903 93.1027 244.067 91.6665 244.067H48.3335C46.8973 244.067 45.7333 242.903 45.7333 241.467V222.4C45.7333 220.964 46.8973 219.8 48.3335 219.8H67.0023C66.6968 220.693 66.5381 221.629 66.5334 222.573C66.5385 224.024 66.8972 225.452 67.5784 226.733H58.7333C58.2548 226.733 57.8668 227.121 57.8668 227.6C57.8668 228.079 58.2548 228.467 58.7333 228.467H68.7313C69.9004 229.856 71.3624 230.97 73.0124 231.727C73.2611 233.503 72.5819 235.282 71.2132 236.44C70.9149 236.664 70.7931 237.053 70.9113 237.407C71.0291 237.761 71.3604 238 71.7333 238C75.0817 237.843 78.1298 236.021 79.8539 233.147C86.874 233.008 92.5334 228.32 92.5334 222.573C92.5282 221.644 92.3743 220.722 92.0775 219.842C93.3356 220.043 94.2623 221.126 94.2667 222.4V241.467Z" fill="#544960"/>
<path d="M54.3998 227.6H49.1999C48.2426 227.6 47.4666 228.376 47.4666 229.333V234.533C47.4666 235.491 48.2426 236.267 49.1999 236.267H54.3998C55.3571 236.267 56.1331 235.491 56.1331 234.533V229.333C56.1331 228.376 55.3571 227.6 54.3998 227.6ZM49.1999 234.533V229.333H54.3998V234.533H49.1999Z" fill="#544960"/>
<path d="M58.7333 231.933H62.1999C62.6787 231.933 63.0667 231.545 63.0667 231.067C63.0667 230.588 62.6787 230.2 62.1999 230.2H58.7333C58.2548 230.2 57.8668 230.588 57.8668 231.067C57.8668 231.545 58.2548 231.933 58.7333 231.933Z" fill="#544960"/>
<path d="M67.3998 230.2H65.6665C65.188 230.2 64.8 230.588 64.8 231.067C64.8 231.545 65.188 231.933 65.6665 231.933H67.3998C67.8787 231.933 68.2667 231.545 68.2667 231.067C68.2667 230.588 67.8787 230.2 67.3998 230.2Z" fill="#544960"/>
<path d="M64.8 235.4H58.7333C58.2548 235.4 57.8668 235.788 57.8668 236.267C57.8668 236.745 58.2548 237.133 58.7333 237.133H64.8C65.2785 237.133 65.6665 236.745 65.6665 236.267C65.6665 235.788 65.2785 235.4 64.8 235.4Z" fill="#544960"/>
<path d="M175.525 128L170.813 121.418L170.812 121.417L170.515 121H149V174H209V128H175.525ZM207 130V135H180.537L176.958 130H207ZM151 172V123H169.485L174.485 130H174.497L179.187 136.551C179.382 136.823 179.689 136.968 180 136.969V137H207V172H151Z" fill="#544960"/>
<path d="M185 147C185 143.691 182.309 141 179 141C175.691 141 173 143.691 173 147V151H169V167H189V151H185V147ZM175 147C175 144.794 176.794 143 179 143C181.206 143 183 144.794 183 147V151H175V147ZM187 153V165H171V153H173H185H187Z" fill="#544960"/>
<path d="M178 161.858V163C178 163.553 178.447 164 179 164C179.553 164 180 163.553 180 163V161.858C181.721 161.411 183 159.859 183 158C183 155.794 181.206 154 179 154C176.794 154 175 155.794 175 158C175 159.859 176.279 161.411 178 161.858ZM179 156C180.103 156 181 156.897 181 158C181 159.103 180.103 160 179 160C177.897 160 177 159.103 177 158C177 156.897 177.897 156 179 156Z" fill="#544960"/>
<path d="M213.788 428.347C213.679 428.002 213.38 427.751 213.023 427.7L205.716 426.677L202.452 420.306C202.131 419.678 201.101 419.678 200.781 420.306L197.518 426.677L190.21 427.7C189.852 427.751 189.554 428.001 189.445 428.347C189.336 428.692 189.433 429.068 189.698 429.316L194.965 434.265L193.723 441.244C193.661 441.595 193.802 441.951 194.088 442.163C194.253 442.286 194.451 442.348 194.649 442.348C194.794 442.348 194.94 442.316 195.074 442.247L201.618 438.932L208.163 442.247C208.48 442.41 208.862 442.377 209.149 442.163C209.434 441.95 209.575 441.596 209.513 441.244L208.271 434.265L213.538 429.316C213.799 429.067 213.897 428.692 213.788 428.347ZM206.611 433.244C206.379 433.461 206.273 433.78 206.329 434.092L207.329 439.718L202.04 437.038C201.905 436.97 201.761 436.937 201.615 436.937C201.469 436.937 201.324 436.97 201.19 437.038L195.902 439.718L196.901 434.092C196.958 433.78 196.851 433.461 196.619 433.244L192.411 429.29L198.26 428.471C198.563 428.428 198.827 428.241 198.966 427.969L201.614 422.797L204.263 427.969C204.402 428.241 204.666 428.428 204.969 428.471L210.818 429.29L206.611 433.244Z" fill="#544960"/>
<path d="M194.173 413.156C194.173 415.195 195.833 416.854 197.872 416.854C199.911 416.854 201.57 415.195 201.57 413.156C201.57 411.117 199.911 409.457 197.872 409.457C195.833 409.457 194.173 411.117 194.173 413.156ZM199.69 413.156C199.69 414.158 198.874 414.975 197.871 414.975C196.869 414.975 196.052 414.159 196.052 413.156C196.052 412.154 196.868 411.337 197.871 411.337C198.874 411.337 199.69 412.153 199.69 413.156Z" fill="#544960"/>
<path d="M188.185 402.879H199.792L209.134 412.2V424.319H211.013V411.421L200.568 401H187.408L163.634 424.697L163.642 424.704L158 430.331L181.618 454L188.867 447.058L166.307 424.701L188.185 402.879ZM186.174 447.035L181.647 451.37L160.658 430.335L164.976 426.027L186.174 447.035Z" fill="#544960"/>
<path d="M191.333 336.917H174.55C174.062 336.917 173.667 336.521 173.667 336.033C173.667 335.545 174.062 335.15 174.55 335.15H191.333C193.284 335.148 194.865 333.567 194.867 331.617V310.417C194.865 308.954 193.68 307.768 192.217 307.767H160.417C158.954 307.768 157.768 308.954 157.767 310.417V332.5C157.768 333.963 158.954 335.148 160.417 335.15H169.25C169.738 335.15 170.133 335.545 170.133 336.033C170.133 336.521 169.738 336.917 169.25 336.917H160.417C157.979 336.914 156.003 334.938 156 332.5V310.417C156.003 307.979 157.979 306.003 160.417 306H192.217C194.655 306.003 196.63 307.979 196.633 310.417V331.617C196.63 334.542 194.259 336.913 191.333 336.917Z" fill="#544960"/>
<path d="M169.25 329.85H156.883C156.395 329.85 156 329.454 156 328.967C156 328.479 156.395 328.083 156.883 328.083H169.25C169.738 328.083 170.133 328.479 170.133 328.967C170.133 329.454 169.738 329.85 169.25 329.85Z" fill="#544960"/>
<path d="M208.117 343.983H169.25C168.762 343.983 168.367 343.588 168.367 343.1C168.367 342.612 168.762 342.217 169.25 342.217H208.117C208.605 342.217 209 342.612 209 343.1C209 343.588 208.605 343.983 208.117 343.983Z" fill="#544960"/>
<path d="M193.1 355.467H184.267C183.779 355.467 183.383 355.071 183.383 354.583V350.167C183.383 349.679 183.779 349.283 184.267 349.283H193.1C193.588 349.283 193.983 349.679 193.983 350.167V354.583C193.983 355.071 193.588 355.467 193.1 355.467ZM185.15 353.7H192.217V351.05H185.15V353.7Z" fill="#544960"/>
<path d="M196.633 359H180.733C179.758 358.999 178.968 358.209 178.967 357.233C178.969 355.283 180.549 353.702 182.5 353.7H194.867C196.817 353.702 198.398 355.283 198.4 357.233C198.399 358.209 197.609 358.999 196.633 359ZM182.5 355.467C181.525 355.468 180.734 356.258 180.733 357.233H196.633C196.632 356.258 195.842 355.468 194.867 355.467H182.5Z" fill="#544960"/>
<path d="M203.7 351.05H172.783C170.345 351.047 168.37 349.071 168.367 346.633V324.55C168.37 322.112 170.345 320.136 172.783 320.133H188.318L186.292 318.108C185.957 317.761 185.962 317.21 186.303 316.87C186.644 316.529 187.195 316.524 187.541 316.859L191.075 320.392C191.327 320.645 191.403 321.025 191.266 321.355C191.129 321.685 190.807 321.9 190.45 321.9H172.783C171.32 321.902 170.135 323.087 170.133 324.55V346.633C170.135 348.096 171.32 349.282 172.783 349.283H203.7C205.651 349.281 207.231 347.701 207.233 345.75V324.55C207.232 323.087 206.046 321.902 204.583 321.9H195.75C195.262 321.9 194.867 321.505 194.867 321.017C194.867 320.529 195.262 320.133 195.75 320.133H204.583C207.021 320.136 208.997 322.112 209 324.55V345.75C208.997 348.676 206.626 351.047 203.7 351.05V351.05Z" fill="#544960"/>
<path d="M186.917 325.433C186.559 325.433 186.237 325.218 186.101 324.888C185.964 324.558 186.04 324.178 186.292 323.925L189.825 320.392C190.172 320.057 190.723 320.062 191.064 320.403C191.404 320.744 191.409 321.295 191.074 321.641L187.541 325.175C187.376 325.34 187.151 325.434 186.917 325.433V325.433Z" fill="#544960"/>
<path d="M174.55 336.917C174.193 336.917 173.871 336.701 173.734 336.371C173.597 336.041 173.673 335.661 173.926 335.409L177.459 331.875C177.805 331.541 178.356 331.545 178.697 331.886C179.038 332.227 179.043 332.778 178.708 333.124L175.175 336.658C175.009 336.824 174.784 336.917 174.55 336.917V336.917Z" fill="#544960"/>
<path d="M178.083 340.45C177.849 340.45 177.624 340.357 177.459 340.191L173.925 336.658C173.591 336.311 173.595 335.76 173.936 335.42C174.277 335.079 174.828 335.074 175.174 335.409L178.708 338.942C178.96 339.195 179.036 339.575 178.899 339.905C178.763 340.235 178.441 340.45 178.083 340.45Z" fill="#544960"/>
<path d="M189.567 347.517H187.8C187.312 347.517 186.917 347.121 186.917 346.633C186.917 346.145 187.312 345.75 187.8 345.75H189.567C190.055 345.75 190.45 346.145 190.45 346.633C190.45 347.121 190.055 347.517 189.567 347.517Z" fill="#544960"/>
<path d="M162.183 311.3H160.417C159.929 311.3 159.533 310.905 159.533 310.417C159.533 309.929 159.929 309.533 160.417 309.533H162.183C162.671 309.533 163.067 309.929 163.067 310.417C163.067 310.905 162.671 311.3 162.183 311.3Z" fill="#544960"/>
<path d="M176.317 311.3H165.717C165.229 311.3 164.833 310.905 164.833 310.417C164.833 309.929 165.229 309.533 165.717 309.533H176.317C176.805 309.533 177.2 309.929 177.2 310.417C177.2 310.905 176.805 311.3 176.317 311.3Z" fill="#544960"/>
<path d="M185.577 64.0106C184.206 64.0101 182.84 63.8398 181.511 63.5035C172.657 61.2736 167.287 52.2886 169.516 43.4345C171.622 35.1018 179.763 29.7738 188.242 31.1791C196.721 32.5844 202.707 40.254 202.012 48.8205C201.317 57.387 194.172 63.9909 185.577 64.0106ZM185.549 32.9393C178.893 32.9481 173.09 37.4706 171.457 43.9231C169.945 49.9368 172.419 56.2467 177.614 59.6317C182.809 63.0166 189.58 62.7301 194.471 58.9182C199.361 55.1064 201.293 48.6101 199.279 42.7456C197.265 36.8812 191.75 32.9421 185.549 32.9393Z" fill="#544960"/>
<path d="M200.132 80.4091C199.682 80.4094 199.287 80.109 199.167 79.6751C199.047 79.2411 199.231 78.7805 199.618 78.5496L206.284 74.5653C206.591 74.3747 206.977 74.3646 207.294 74.5389C207.611 74.7132 207.809 75.0448 207.812 75.4064C207.815 75.7679 207.623 76.103 207.31 76.2831L200.644 80.2674C200.489 80.3604 200.312 80.4093 200.132 80.4091V80.4091Z" fill="#544960"/>
<path d="M202.819 83C202.57 82.9997 202.322 82.9687 202.081 82.9076C201.308 82.7152 200.644 82.2216 200.237 81.5368L194.721 72.3067C193.871 70.8837 194.335 69.0407 195.758 68.1902L198.989 66.2591C200.412 65.412 202.253 65.8753 203.105 67.2954L208.621 76.5254C209.469 77.9487 209.006 79.7895 207.586 80.6421L204.354 82.5724C203.89 82.8515 203.36 82.9993 202.819 83ZM200.527 67.8357C200.346 67.8357 200.169 67.8846 200.015 67.9774L196.784 69.9085C196.556 70.0442 196.392 70.2652 196.327 70.5226C196.262 70.7799 196.303 71.0525 196.439 71.2799L201.955 80.5105C202.239 80.9841 202.852 81.1389 203.326 80.8564L203.327 80.8559L206.559 78.9256C207.032 78.6409 207.186 78.0272 206.904 77.5527L201.387 68.3233C201.206 68.0206 200.879 67.8354 200.527 67.8357V67.8357Z" fill="#544960"/>
<path d="M195.887 70.2796C195.535 70.28 195.208 70.0949 195.027 69.7925L192.637 65.793C192.501 65.5652 192.461 65.2925 192.526 65.0351C192.591 64.7777 192.755 64.5567 192.983 64.4206L196.983 62.0301C197.457 61.7468 198.071 61.9014 198.354 62.3755L200.746 66.3749C200.882 66.6027 200.922 66.8753 200.857 67.1327C200.792 67.3901 200.628 67.6112 200.4 67.7473L196.4 70.1379C196.245 70.2309 196.068 70.2799 195.887 70.2796V70.2796ZM194.868 65.6249L196.232 67.9063L198.515 66.5427L197.15 64.2613L194.868 65.6249Z" fill="#544960"/>
<path d="M192.707 66.498C191.807 66.5009 190.972 66.0304 190.509 65.2595L189.089 62.8738C188.907 62.5662 188.902 62.1846 189.077 61.8727C189.252 61.5608 189.58 61.366 189.938 61.3617C190.296 61.3573 190.628 61.5441 190.811 61.8517L192.227 64.2325C192.303 64.3593 192.426 64.4506 192.57 64.4859C192.713 64.5213 192.865 64.4977 192.991 64.4206L196.985 62.0281C197.245 61.8727 197.329 61.5361 197.174 61.2761L195.743 58.8812C195.459 58.4077 195.605 57.7937 196.073 57.4995C196.294 57.3591 196.563 57.3131 196.819 57.3718C197.075 57.4306 197.296 57.5891 197.435 57.8122L198.892 60.2497C199.612 61.458 199.219 63.0215 198.012 63.7449L194.013 66.1413C193.617 66.375 193.166 66.4982 192.707 66.498V66.498Z" fill="#544960"/>
<path d="M171.043 54.016H150.001C149.448 54.016 149 53.568 149 53.0154C149 52.4628 149.448 52.0148 150.001 52.0148H171.043C171.596 52.0148 172.044 52.4628 172.044 53.0154C172.044 53.568 171.596 54.016 171.043 54.016Z" fill="#544960"/>
<path d="M177.017 67.0237H167.011C166.458 67.0237 166.01 66.5757 166.01 66.0231V61.0202C166.01 60.4676 166.458 60.0196 167.011 60.0196H177.017C177.569 60.0196 178.017 60.4676 178.017 61.0202V66.0231C178.017 66.5757 177.569 67.0237 177.017 67.0237ZM168.011 65.0225H176.016V62.0208H168.011V65.0225Z" fill="#544960"/>
<path d="M181.019 71.0261H163.008C161.904 71.0248 161.008 70.1296 161.007 69.0249C161.009 66.8154 162.8 65.0249 165.009 65.0226H179.018C181.227 65.0249 183.018 66.8154 183.02 69.0249C183.019 70.1296 182.124 71.0248 181.019 71.0261ZM165.009 67.0237C163.905 67.025 163.01 67.9202 163.008 69.0249H181.019C181.018 67.9202 180.122 67.025 179.018 67.0237H165.009Z" fill="#544960"/>
<path d="M177.957 62.0208H154.003C151.241 62.0175 149.003 59.7795 149 57.0178V32.003C149.003 29.2413 151.241 27.0033 154.003 27H190.024C192.786 27.0033 195.024 29.2413 195.027 32.003V34.4544C195.027 35.007 194.579 35.455 194.027 35.455C193.474 35.455 193.026 35.007 193.026 34.4544V32.003C193.024 30.3459 191.681 29.003 190.024 29.0012H154.003C152.346 29.003 151.003 30.3459 151.001 32.003V57.0178C151.003 58.6749 152.346 60.0178 154.003 60.0196H177.957C178.51 60.0196 178.958 60.4676 178.958 61.0202C178.958 61.5728 178.51 62.0208 177.957 62.0208Z" fill="#544960"/>
<path d="M204.667 247.533H161.333C159.044 247.44 157.108 249.213 157 251.502V263.133C157 263.612 157.388 264 157.867 264H208.133C208.612 264 209 263.612 209 263.133V251.502C208.892 249.213 206.956 247.44 204.667 247.533V247.533ZM162.2 262.267V257.933H167.4V262.267H162.2ZM207.267 262.267H169.133V257.933C169.133 256.976 168.357 256.2 167.4 256.2H162.2C161.243 256.2 160.467 256.976 160.467 257.933V262.267H158.733V251.502C158.843 250.171 160.001 249.175 161.333 249.267H204.667C205.999 249.175 207.157 250.171 207.267 251.502V262.267Z" fill="#544960"/>
<path d="M184.733 255.333H171.733C171.255 255.333 170.867 255.721 170.867 256.2C170.867 256.679 171.255 257.067 171.733 257.067H184.733C185.212 257.067 185.6 256.679 185.6 256.2C185.6 255.721 185.212 255.333 184.733 255.333V255.333Z" fill="#544960"/>
<path d="M175.2 258.8H171.733C171.255 258.8 170.867 259.188 170.867 259.667C170.867 260.145 171.255 260.533 171.733 260.533H175.2C175.679 260.533 176.067 260.145 176.067 259.667C176.067 259.188 175.679 258.8 175.2 258.8Z" fill="#544960"/>
<path d="M182.133 258.8H178.667C178.188 258.8 177.8 259.188 177.8 259.667C177.8 260.145 178.188 260.533 178.667 260.533H182.133C182.612 260.533 183 260.145 183 259.667C183 259.188 182.612 258.8 182.133 258.8Z" fill="#544960"/>
<path d="M204.667 218.067H204.276C202.191 214.487 197.719 212 192.533 212C187.348 212 182.876 214.487 180.791 218.067H161.333C158.941 218.07 157.003 220.008 157 222.4V241.467C157.003 243.859 158.941 245.797 161.333 245.8H204.667C207.059 245.797 208.997 243.859 209 241.467V222.4C208.997 220.008 207.059 218.07 204.667 218.067V218.067ZM192.533 213.733C198.746 213.733 203.8 217.699 203.8 222.573C203.8 227.447 198.746 231.414 192.533 231.414H192.351C192.034 231.413 191.742 231.586 191.59 231.865C190.608 233.724 188.955 235.14 186.968 235.826C187.679 234.34 187.931 232.676 187.691 231.047C187.656 230.737 187.458 230.47 187.171 230.347C183.529 228.791 181.267 225.812 181.267 222.573C181.267 217.699 186.321 213.733 192.533 213.733V213.733ZM207.267 241.467C207.267 242.903 206.103 244.067 204.667 244.067H161.333C159.897 244.067 158.733 242.903 158.733 241.467V222.4C158.733 220.964 159.897 219.8 161.333 219.8H180.002C179.697 220.693 179.538 221.629 179.533 222.573C179.539 224.024 179.897 225.452 180.578 226.733H171.733C171.255 226.733 170.867 227.121 170.867 227.6C170.867 228.079 171.255 228.467 171.733 228.467H181.731C182.9 229.856 184.362 230.97 186.012 231.727C186.261 233.503 185.582 235.282 184.213 236.44C183.915 236.664 183.793 237.053 183.911 237.407C184.029 237.761 184.36 238 184.733 238C188.082 237.843 191.13 236.021 192.854 233.147C199.874 233.008 205.533 228.32 205.533 222.573C205.528 221.644 205.374 220.722 205.078 219.842C206.336 220.043 207.262 221.126 207.267 222.4V241.467Z" fill="#544960"/>
<path d="M167.4 227.6H162.2C161.243 227.6 160.467 228.376 160.467 229.333V234.533C160.467 235.491 161.243 236.267 162.2 236.267H167.4C168.357 236.267 169.133 235.491 169.133 234.533V229.333C169.133 228.376 168.357 227.6 167.4 227.6ZM162.2 234.533V229.333H167.4V234.533H162.2Z" fill="#544960"/>
<path d="M171.733 231.933H175.2C175.679 231.933 176.067 231.545 176.067 231.067C176.067 230.588 175.679 230.2 175.2 230.2H171.733C171.255 230.2 170.867 230.588 170.867 231.067C170.867 231.545 171.255 231.933 171.733 231.933Z" fill="#544960"/>
<path d="M180.4 230.2H178.667C178.188 230.2 177.8 230.588 177.8 231.067C177.8 231.545 178.188 231.933 178.667 231.933H180.4C180.879 231.933 181.267 231.545 181.267 231.067C181.267 230.588 180.879 230.2 180.4 230.2Z" fill="#544960"/>
<path d="M177.8 235.4H171.733C171.255 235.4 170.867 235.788 170.867 236.267C170.867 236.745 171.255 237.133 171.733 237.133H177.8C178.279 237.133 178.667 236.745 178.667 236.267C178.667 235.788 178.279 235.4 177.8 235.4Z" fill="#544960"/>
</svg>
